<?xml version="1.0" encoding="UTF-8" standalone="no"?>
<!-- Created with Inkscape (http://www.inkscape.org/) -->

<svg
   width="63.499985mm"
   height="63.500004mm"
   viewBox="0 0 63.499985 63.500004"
   version="1.1"
   id="svg11390"
   xml:space="preserve"
   xmlns:inkscape="http://www.inkscape.org/namespaces/inkscape"
   xmlns:sodipodi="http://sodipodi.sourceforge.net/DTD/sodipodi-0.dtd"
   xmlns="http://www.w3.org/2000/svg"
   xmlns:svg="http://www.w3.org/2000/svg"><sodipodi:namedview
     id="namedview11392"
     pagecolor="#ffffff"
     bordercolor="#000000"
     borderopacity="0.25"
     inkscape:showpageshadow="2"
     inkscape:pageopacity="0.0"
     inkscape:pagecheckerboard="0"
     inkscape:deskcolor="#d1d1d1"
     inkscape:document-units="mm"
     showgrid="false" /><defs
     id="defs11387" /><g
     inkscape:label="Capa 1"
     inkscape:groupmode="layer"
     id="layer1"
     transform="translate(-53.757882,-52.329348)"><g
       id="g11650"
       transform="matrix(0.26458333,0,0,0.26458333,12.747454,21.902265)"
       inkscape:export-filename="g11650.png"
       inkscape:export-xdpi="96"
       inkscape:export-ydpi="96"><g
         fill="#004992"
         fill-rule="none"
         stroke="none"
         stroke-width="1"
         stroke-linecap="butt"
         stroke-linejoin="miter"
         stroke-miterlimit="10"
         stroke-dasharray="none"
         stroke-dashoffset="0"
         font-family="none"
         font-weight="none"
         font-size="none"
         text-anchor="none"
         style="mix-blend-mode:normal;fill:#000080"
         id="g11530"><g
           data-paper-data="{&quot;isGlobalGroup&quot;:true,&quot;bounds&quot;:{&quot;x&quot;:155,&quot;y&quot;:114.99999999999999,&quot;width&quot;:240,&quot;height&quot;:240}}"
           id="g11528"
           style="fill:#000080"><g
             data-paper-data="{&quot;isPrimaryText&quot;:true}"
             id="element-id-81829"
             style="fill:#000080"><path
               d="m 164.181,289.03052 h 2.29018 v 19.46651 c 0,3.47768 -3.81696,3.85937 -6.44643,2.88393 l -1.44196,6.70089 c 0,0 2.45982,1.06027 6.82812,1.06027 5.72544,0 10.09375,-3.09598 10.09375,-9.03348 v -21.07811 h 2.29018 v -6.99776 h -13.61383 z"
               data-paper-data="{&quot;glyphName&quot;:&quot;J&quot;,&quot;glyphIndex&quot;:0,&quot;firstGlyphOfWord&quot;:true,&quot;word&quot;:1}"
               fill-rule="nonzero"
               fill="#ffffff"
               id="element-id-95326"
               style="fill:#000080" /><path
               d="m 194.92875,289.03052 h 2.29018 v 10.56026 c 0,1.95089 -0.97545,3.5625 -3.09598,3.5625 -2.03571,0 -3.09598,-1.61161 -3.09598,-3.5625 v -10.56026 h 2.29018 v -6.99776 h -13.61383 v 6.99776 h 2.29018 v 10.81473 c 0,6.10714 4.49553,9.33035 12.12946,9.33035 7.63392,0 12.12946,-3.22321 12.12946,-9.33035 v -10.81473 h 2.29018 v -6.99776 h -13.61383 z"
               data-paper-data="{&quot;glyphName&quot;:&quot;U&quot;,&quot;glyphIndex&quot;:1,&quot;word&quot;:1}"
               fill-rule="nonzero"
               fill="#ffffff"
               id="element-id-67126"
               style="fill:#000080" /><path
               d="m 232.08052,301.6689 c 0,-9.41517 -12.76562,-8.48214 -12.76562,-12.76562 0,-1.27232 0.67857,-2.29018 2.20536,-2.29018 2.54464,0 2.67187,2.29018 2.67187,2.29018 h 7.25223 v -6.14955 c 0,0 -4.3683,-1.35714 -9.83928,-1.35714 -6.61607,0 -10.94196,3.43527 -10.94196,8.14285 0,9.62723 12.55357,8.60937 12.55357,12.76562 0,1.22991 -0.76339,2.29018 -2.50223,2.29018 -2.375,0 -2.7567,-2.29018 -2.7567,-2.29018 h -7.46428 v 5.59821 c 0,0 4.53794,2.03571 11.02678,2.03571 7.67634,0 10.56026,-3.68973 10.56026,-8.27009 z"
               data-paper-data="{&quot;glyphName&quot;:&quot;S&quot;,&quot;glyphIndex&quot;:2,&quot;word&quot;:1}"
               fill-rule="nonzero"
               fill="#ffffff"
               id="element-id-42021"
               style="fill:#000080" /><path
               d="m 240.13855,291.95685 v -2.92634 h 2.24777 v 13.14732 h -2.29018 v 6.99776 h 13.61383 v -6.99776 h -2.29018 v -13.14732 h 2.24777 v 2.92634 h 6.99776 v -9.9241 h -27.52454 v 9.9241 z"
               data-paper-data="{&quot;glyphName&quot;:&quot;T&quot;,&quot;glyphIndex&quot;:3,&quot;word&quot;:1}"
               fill-rule="nonzero"
               fill="#ffffff"
               id="element-id-27966"
               style="fill:#000080" /><path
               d="m 261.72559,309.1756 h 13.57142 v -6.99776 h -2.24777 v -13.14732 h 2.29018 v -6.99776 h -13.61383 v 6.99776 h 2.29018 v 13.14732 h -2.29018 z"
               data-paper-data="{&quot;glyphName&quot;:&quot;I&quot;,&quot;glyphIndex&quot;:4,&quot;word&quot;:1}"
               fill-rule="nonzero"
               fill="#ffffff"
               id="element-id-54152"
               style="fill:#000080" /><path
               d="m 294.46665,298.57292 v -5.30134 h -5.68303 v -4.24107 h 5.59821 v 2.92634 h 6.99776 v -9.9241 h -23.87722 v 6.99776 h 2.24777 v 13.14732 h -2.29018 v 6.99776 h 13.61383 v -6.99776 h -2.29018 v -3.60491 z"
               data-paper-data="{&quot;glyphName&quot;:&quot;F&quot;,&quot;glyphIndex&quot;:5,&quot;word&quot;:1}"
               fill-rule="nonzero"
               fill="#ffffff"
               id="element-id-74900"
               style="fill:#000080" /><g
               data-paper-data="{&quot;glyphName&quot;:&quot;Ã&quot;,&quot;glyphIndex&quot;:6,&quot;word&quot;:1}"
               fill-rule="evenodd"
               id="element-id-67950"
               style="fill:#000080"><path
                 d="m 314.61173,279.78498 c -3.68973,1.86607 -6.70089,-0.12723 -6.87053,-2.71428 l 8.22767,-6.53125 4.32589,6.40401 z"
                 fill="#ffffff"
                 id="element-id-21247"
                 style="fill:#000080" /><path
                 d="m 316.73226,281.60864 8.05803,20.6116 h 0.97545 v 6.99776 h -11.36607 v -6.99776 h 1.31473 l -0.67857,-1.73884 h -5.68303 l -0.67857,1.73884 h 1.39955 v 6.99776 h -11.4933 v -6.99776 h 1.01786 l 8.05803,-20.6116 z m -4.53794,11.62053 -1.73884,4.41071 h 3.47768 z"
                 fill="#ffffff"
                 id="element-id-56112"
                 style="fill:#000080" /></g><path
               d="m 327.25012,295.22248 c 0,17.38838 16.2433,15.90401 23.83481,12.59598 l -1.27232,-6.48884 c 0,0 -3.52009,1.48437 -7.08259,1.48437 -3.26562,0 -6.27678,-1.86607 -6.27678,-7.71875 0,-4.53794 1.65402,-6.78571 3.98661,-6.78571 2.7567,0 3.22321,2.54464 3.22321,2.54464 h 7.04018 v -6.53125 c 0,0 -3.52009,-3.01116 -10.3058,-3.01116 -6.99776,0 -13.14732,4.02902 -13.14732,13.91071 z"
               data-paper-data="{&quot;glyphName&quot;:&quot;C&quot;,&quot;glyphIndex&quot;:7,&quot;word&quot;:1}"
               fill-rule="nonzero"
               fill="#ffffff"
               id="element-id-2329"
               style="fill:#000080" /><path
               d="m 352.951,309.1756 h 13.57142 v -6.99776 h -2.24777 v -13.14732 h 2.29018 v -6.99776 H 352.951 v 6.99776 h 2.29018 v 13.14732 H 352.951 Z"
               data-paper-data="{&quot;glyphName&quot;:&quot;I&quot;,&quot;glyphIndex&quot;:8,&quot;word&quot;:1}"
               fill-rule="nonzero"
               fill="#ffffff"
               id="element-id-6614"
               style="fill:#000080" /><path
               d="m 368.68536,289.03052 h 2.29018 v 13.14732 h -2.29018 v 6.99776 h 22.73213 v -10.72991 h -6.99776 v 3.73214 h -4.41071 v -13.14732 h 2.29018 v -6.99776 h -13.61383 z"
               data-paper-data="{&quot;glyphName&quot;:&quot;L&quot;,&quot;glyphIndex&quot;:9,&quot;lastGlyphOfWord&quot;:true,&quot;word&quot;:1}"
               fill-rule="nonzero"
               fill="#ffffff"
               id="element-id-52678"
               style="fill:#000080" /></g><g
             data-paper-data="{&quot;fillRule&quot;:&quot;evenodd&quot;,&quot;fillRuleOriginal&quot;:&quot;evenodd&quot;,&quot;isIcon&quot;:true,&quot;iconStyle&quot;:&quot;standalone&quot;,&quot;selectedEffects&quot;:{&quot;container&quot;:&quot;&quot;,&quot;transformation&quot;:&quot;&quot;,&quot;pattern&quot;:&quot;&quot;},&quot;bounds&quot;:{&quot;x&quot;:226.134538770258,&quot;y&quot;:150.85817183076344,&quot;width&quot;:97.73120293271202,&quot;height&quot;:97.73120293271205},&quot;widthRatioIconToContainer&quot;:0.8952300022463616,&quot;heightRatioIconToContainer&quot;:0.8952300022463616,&quot;relativeBoundsIconToContainer&quot;:{&quot;top&quot;:1.7103985932895595e-16,&quot;left&quot;:1.7103985932895595e-16},&quot;iconType&quot;:&quot;icon&quot;,&quot;rawIconId&quot;:&quot;45888&quot;,&quot;combineTerms&quot;:&quot;check&quot;,&quot;isDetailed&quot;:false,&quot;suitableAsStandaloneIcon&quot;:true}"
             fill-rule="evenodd"
             id="element-id-47560"
             style="fill:#000080"><g
               data-paper-data="{&quot;isPathIcon&quot;:true}"
               id="element-id-40532"
               style="fill:#000080"><path
                 d="m 275.00014,150.85817 c -26.98582,0 -48.8656,21.87979 -48.8656,48.8656 0,26.98652 21.87979,48.8656 48.8656,48.8656 26.98582,0 48.8656,-21.87908 48.8656,-48.8656 0,-26.98582 -21.87979,-48.8656 -48.8656,-48.8656 z m -6.10802,69.67047 -20.80487,-20.80487 8.58812,-8.58812 12.21675,12.21675 24.4328,-24.4328 8.58812,8.58812 z"
                 fill="#ffffff"
                 id="element-id-29024"
                 style="fill:#000080" /></g></g><path
             d="m 190.14744,150.14744 c 11.07131,-11.07149 23.78533,-19.64349 38.14207,-25.71602 C 243.15529,118.14381 258.7255,115 275.00014,115 c 16.27464,0 31.84485,3.14381 46.71063,9.43142 14.35674,6.07244 27.07076,14.64444 38.14207,25.71602 11.07131,11.07131 19.64343,23.78533 25.71635,38.14207 6.28721,14.86533 9.43082,30.43554 9.43082,46.71063 0,15.0875 -2.70172,29.56958 -8.10515,43.44626 l -0.15979,-0.20008 -0.26084,-0.28608 -0.27977,-0.26855 -0.2973,-0.24892 -0.31273,-0.22929 -0.32745,-0.20755 -0.34077,-0.18511 -0.35199,-0.16267 -0.36181,-0.13813 -0.37022,-0.11429 -0.37724,-0.0897 -0.38285,-0.0638 -0.38565,-0.0386 -0.38705,-0.0133 h -0.83303 c 5.10749,-13.15798 7.66123,-26.89136 7.66123,-41.20012 0,-15.48063 -2.98934,-30.28816 -8.96801,-44.42261 -5.77461,-13.65341 -13.92772,-25.74592 -24.45931,-36.27751 -10.53159,-10.53137 -22.6241,-18.68456 -36.27751,-24.45958 -14.13445,-5.97832 -28.94198,-8.96748 -44.42261,-8.96748 -15.48063,0 -30.28816,2.98916 -44.42261,8.96748 -13.65341,5.77493 -25.74592,13.92812 -36.27751,24.45958 -10.53115,10.53115 -18.68425,22.62365 -24.45931,36.27751 -5.97868,14.13445 -8.96801,28.94198 -8.96801,44.42261 0,14.30839 2.55376,28.04176 7.66127,41.20012 H 164.181 l -0.28608,0.007 -0.28538,0.021 -0.28398,0.0351 -0.28258,0.0491 -0.27907,0.0631 -0.27556,0.0757 -0.1245,0.0411 c -4.90921,-13.28072 -7.36381,-27.11145 -7.36381,-41.49222 0,-16.27464 3.1437,-31.84485 9.43109,-46.71063 6.07248,-14.35674 14.6446,-27.07076 25.71635,-38.14207 z M 359.85283,319.85283 C 348.78152,330.92414 336.0675,339.49626 321.71076,345.56918 306.84543,351.85639 291.27522,355 275.00013,355 c -16.27464,0 -31.84485,-3.14361 -46.71063,-9.43082 -14.35674,-6.07248 -27.07076,-14.6446 -38.14207,-25.71635 -0.75725,-0.75725 -1.50281,-1.52219 -2.23668,-2.29481 l 5.91711,-2.33257 c 0.15685,0.15862 0.31423,0.31689 0.47215,0.47481 10.53115,10.53115 22.62365,18.68425 36.27751,24.45931 14.134,5.97868 28.94154,8.96801 44.42261,8.96801 15.48063,0 30.28816,-2.98934 44.42261,-8.96801 13.65386,-5.77461 25.74636,-13.92772 36.27751,-24.45931 0.15991,-0.15992 0.31927,-0.3202 0.47809,-0.48083 l 2.51531,-0.086 5.66545,-0.0306 c -1.45303,1.61558 -2.95512,3.19892 -4.50628,4.75001 z"
             data-paper-data="{&quot;isLogoContainer&quot;:true}"
             fill-rule="nonzero"
             fill="#ffffff"
             id="element-id-71313"
             style="fill:#000080" /></g></g></g></g></svg>
