<?xml version="1.0" encoding="UTF-8" standalone="no"?>
<!-- Created with Inkscape (http://www.inkscape.org/) -->

<svg
   width="103.56871mm"
   height="54.853542mm"
   viewBox="0 0 103.56871 54.853542"
   version="1.1"
   id="svg1562"
   xml:space="preserve"
   xmlns:inkscape="http://www.inkscape.org/namespaces/inkscape"
   xmlns:sodipodi="http://sodipodi.sourceforge.net/DTD/sodipodi-0.dtd"
   xmlns="http://www.w3.org/2000/svg"
   xmlns:svg="http://www.w3.org/2000/svg"><sodipodi:namedview
     id="namedview1564"
     pagecolor="#ffffff"
     bordercolor="#000000"
     borderopacity="0.25"
     inkscape:showpageshadow="2"
     inkscape:pageopacity="0.0"
     inkscape:pagecheckerboard="0"
     inkscape:deskcolor="#d1d1d1"
     inkscape:document-units="mm"
     showgrid="false"
     showguides="true" /><defs
     id="defs1559" /><g
     id="g1957"
     transform="matrix(0.26458333,0,0,0.26458333,-5.8263175,-28.073655)"
     inkscape:export-filename="logo.png"
     inkscape:export-xdpi="96"
     inkscape:export-ydpi="96"
     inkscape:label="CONECTA2"><rect
       style="mix-blend-mode:normal;fill:#000000;fill-rule:evenodd;stroke-width:1.65991"
       id="rect2392-9"
       width="391.4408"
       height="207.32048"
       x="82.055977"
       y="136.82086"
       ry="22.776524"
       inkscape:label="rect2392"
       transform="translate(-60.035258,-30.715713)" /><path
       style="mix-blend-mode:normal;fill:#ffffff;fill-rule:evenodd;stroke-width:1.39365"
       d="m 217.34115,255.16043 c 1.47301,-3.51499 60.58194,-103.5284 61.17565,-103.51035 0.60248,0.0193 59.78032,100.13772 61.17567,103.49941 0.26183,0.63083 -4.55843,1.12858 -10.71169,1.10612 l -11.1878,-0.0407 -19.28103,-33.23645 c -10.60457,-18.28007 -19.6024,-33.24317 -19.99515,-33.25136 -0.39277,-0.007 -9.39058,14.9463 -19.99514,33.23218 l -19.28108,33.24712 -11.18775,0.0451 c -6.15327,0.0248 -10.97354,-0.46616 -10.71168,-1.09096 z"
       id="path2215-3-0"
       transform="translate(-60.035258,-30.715713)"
       inkscape:label="aa" /><path
       style="mix-blend-mode:normal;fill:#ffffff;fill-rule:evenodd;stroke-width:1.39365"
       d="m 275.32083,254.83693 c -6.257,-3.471 -6.02284,-10.25747 0.46803,-13.56513 7.52096,-3.83258 13.75976,8.19582 6.69484,12.90766 -3.68895,2.46025 -3.88131,2.47792 -7.16287,0.65747 z"
       id="path2217-8-5"
       transform="translate(-60.035258,-30.715713)"
       inkscape:label=".." /><path
       style="fill:#ffffff;fill-rule:evenodd;stroke-width:0.49362"
       d="m 385.32221,351.94234 c -5.98633,-1.68145 -10.78897,-5.65277 -13.29051,-10.98995 -1.14189,-2.4363 -1.31774,-3.4305 -1.285,-7.26513 0.0413,-4.83657 0.82095,-7.23444 3.48938,-10.73162 5.49982,-7.20794 16.61278,-9.87353 24.87826,-5.96738 3.4948,1.65159 7.14453,4.64891 8.496,6.97727 l 0.86729,1.4942 -3.19632,1.06367 -3.19631,1.06366 -1.50233,-1.71106 c -2.38159,-2.71248 -5.51704,-3.97216 -9.88228,-3.97025 -4.20329,0.002 -6.3165,0.73735 -9.07355,3.15807 -6.14423,5.3947 -5.17586,14.85942 1.94742,19.03394 1.76016,1.03152 3.14515,1.39914 5.94907,1.57909 4.50281,0.28897 7.3364,-0.66386 10.41599,-3.50253 2.13105,-1.96433 2.14741,-1.96957 4.22472,-1.35081 1.14696,0.34164 2.59466,0.88608 3.2171,1.20986 l 1.13171,0.58871 -1.69962,2.22593 c -1.97044,2.58061 -6.01525,5.49718 -9.20216,6.63535 -3.20786,1.14566 -9.06527,1.36443 -12.28886,0.45898 z"
       id="path2211"
       transform="translate(-138.40585,-69.13002)"
       inkscape:label="c" /><path
       style="fill:#ffffff;fill-rule:evenodd;stroke-width:0.49362"
       d="m 426.24104,336.64898 v -15.54904 h -6.66387 -6.66387 v -2.71491 -2.71491 h 16.78308 16.78309 v 2.71491 2.71491 h -6.66387 -6.66387 v 15.54904 15.54903 h -3.45535 -3.45534 z"
       id="path2213"
       transform="translate(-138.40585,-69.13002)"
       inkscape:label="t" /><path
       style="fill:#ffffff;fill-rule:evenodd;stroke-width:0.49362"
       d="m 443.60002,351.78566 c 0.5091,-1.27585 20.9382,-37.57837 21.1434,-37.57182 0.20822,0.007 20.66114,36.34764 21.1434,37.56785 0.0905,0.22898 -1.57547,0.40965 -3.70215,0.4015 l -3.8667,-0.0148 -6.66387,-12.06405 c -3.66513,-6.63523 -6.77494,-12.06649 -6.91068,-12.06946 -0.13575,-0.003 -3.24555,5.42515 -6.91068,12.0625 l -6.66388,12.06792 -3.86669,0.0164 c -2.12668,0.009 -3.79265,-0.1692 -3.70215,-0.39599 z"
       id="path2215"
       transform="translate(-138.40585,-69.13002)"
       inkscape:label="a" /><path
       style="fill:#ffffff;fill-rule:evenodd;stroke-width:0.49362"
       d="m 463.63883,351.66824 c -2.16252,-1.25989 -2.08159,-3.72322 0.16176,-4.92382 2.59938,-1.39114 4.75562,2.97489 2.31386,4.68517 -1.27497,0.89302 -1.34145,0.89943 -2.47562,0.23865 z"
       id="path2217"
       transform="translate(-138.40585,-69.13002)"
       inkscape:label="." /><path
       style="fill:#ffffff;fill-rule:evenodd;stroke-width:0.49362"
       d="m 490.41167,349.56515 v -2.63286 l 6.54047,-3.84977 c 15.44155,-9.089 18.63416,-11.86711 18.63416,-16.21487 0,-1.90737 -1.40104,-3.97147 -3.37552,-4.97304 -4.70048,-2.38435 -13.50721,-0.61297 -15.12888,3.04301 -0.43366,0.97766 -0.85076,1.09852 -3.7911,1.09852 h -3.30384 l 0.43925,-1.53156 c 2.94361,-10.26378 24.55171,-12.10597 30.57595,-2.60673 4.3379,6.84016 0.98143,12.374 -12.17008,20.06492 -3.57908,2.09302 -6.64647,4.03047 -6.81641,4.30545 -0.20488,0.3315 3.19378,0.49997 10.08616,0.49997 h 10.39515 v 2.71491 2.71491 h -16.04265 -16.04266 z"
       id="path2219"
       transform="translate(-138.40585,-69.13002)"
       inkscape:label="2" /><path
       style="fill:#ffffff;fill-rule:evenodd;stroke-width:0.49362"
       d="m 256.76466,350.68077 c -3.73551,-1.28499 -6.01726,-2.75653 -8.56204,-5.52183 -8.42037,-9.15002 -5.33152,-22.04764 6.61957,-27.64023 2.62302,-1.22745 4.13059,-1.58634 7.38029,-1.7569 6.70313,-0.35183 11.75785,1.49004 16.28752,5.93495 11.86145,11.63947 2.59981,30.06853 -15.07221,29.9911 -2.45372,-0.0107 -4.78072,-0.36299 -6.65313,-1.00709 z m 11.32648,-6.12275 c 7.10932,-2.11124 10.51573,-9.51332 7.3248,-15.91667 -2.14944,-4.31337 -6.19152,-6.55417 -11.82275,-6.55417 -7.69313,0 -13.09709,4.70753 -13.0701,11.38571 0.0337,8.3354 8.60837,13.74587 17.56805,11.08513 z"
       id="path2221"
       transform="translate(-138.40585,-69.13002)"
       inkscape:label="o" /><path
       style="fill:#ffffff;fill-rule:evenodd;stroke-width:0.49362"
       d="m 311.22754,341.29785 -13.08094,-11.82906 -0.1325,11.36461 -0.1325,11.36461 h -3.44625 -3.44624 v -18.5712 c 0,-17.60615 0.0448,-18.53599 0.86261,-17.89373 0.47443,0.37261 6.46085,5.84197 13.30314,12.15414 6.8423,6.31217 12.56268,11.47667 12.71195,11.47667 0.14928,0 0.27141,-5.3311 0.27141,-11.84689 v -11.84688 h 3.20853 3.20853 v 18.75757 c 0,10.31666 -0.0555,18.74443 -0.1234,18.72839 -0.0679,-0.016 -6.00983,-5.35225 -13.20434,-11.85823 z"
       id="path2223"
       transform="translate(-138.40585,-69.13002)"
       inkscape:label="n" /><path
       style="fill:#ffffff;fill-rule:evenodd;stroke-width:0.49362"
       d="m 215.51687,351.91047 c -5.92442,-1.59317 -10.80014,-5.61753 -13.27625,-10.95808 -1.08582,-2.34194 -1.31109,-3.53699 -1.32293,-7.01832 -0.0122,-3.57891 0.1889,-4.63121 1.36762,-7.1575 1.52784,-3.27451 4.95712,-7.07099 8.00315,-8.86011 5.5643,-3.26825 13.27425,-3.63196 19.10919,-0.90147 3.48666,1.63161 6.98407,4.52758 8.40734,6.96156 l 0.86729,1.48318 -3.19631,1.06367 -3.19632,1.06366 -1.51822,-1.72917 c -2.42959,-2.76714 -5.50152,-3.99917 -9.86639,-3.95702 -4.16797,0.0403 -6.42229,0.83511 -9.14268,3.22365 -5.13934,4.5124 -5.35722,12.00203 -0.49072,16.86854 2.56842,2.56841 5.63994,3.78789 9.54066,3.78789 3.90969,0 6.29132,-0.88681 9.05514,-3.37171 l 2.4448,-2.19809 2.95833,0.89571 c 1.62709,0.49264 3.06333,1.06558 3.19164,1.2732 0.12831,0.20761 -0.71528,1.52733 -1.87466,2.93269 -4.97054,6.02517 -13.38611,8.66153 -21.06068,6.59772 z"
       id="path2225"
       transform="translate(-138.40585,-69.13002)"
       inkscape:label="c" /><path
       style="fill:#ffffff;fill-rule:evenodd;stroke-width:0.49362"
       d="m 333.44045,333.93407 v -18.26395 h 17.02989 17.0299 v 2.71491 2.71491 h -13.57456 -13.57455 v 4.9362 4.9362 h 11.84688 11.84689 v 2.46811 2.4681 h -11.84689 -11.84688 v 5.18301 5.18301 h 13.57455 13.57456 v 2.96172 2.96172 h -17.0299 -17.02989 z"
       id="path2338"
       transform="translate(-138.40585,-69.13002)"
       inkscape:label="e" /></g></svg>
