<?xml version="1.0" encoding="UTF-8" standalone="no"?>
<!-- Created with Inkscape (http://www.inkscape.org/) -->

<svg
   width="50mm"
   height="50.000008mm"
   viewBox="0 0 50 50.000008"
   version="1.1"
   id="svg1562"
   xml:space="preserve"
   xmlns:inkscape="http://www.inkscape.org/namespaces/inkscape"
   xmlns:sodipodi="http://sodipodi.sourceforge.net/DTD/sodipodi-0.dtd"
   xmlns="http://www.w3.org/2000/svg"
   xmlns:svg="http://www.w3.org/2000/svg"><sodipodi:namedview
     id="namedview1564"
     pagecolor="#ffffff"
     bordercolor="#000000"
     borderopacity="0.25"
     inkscape:showpageshadow="2"
     inkscape:pageopacity="0.0"
     inkscape:pagecheckerboard="0"
     inkscape:deskcolor="#d1d1d1"
     inkscape:document-units="mm"
     showgrid="false"
     showguides="true"><sodipodi:guide
       position="-6.372119e-06,34.32757"
       orientation="1,0"
       id="guide2948"
       inkscape:locked="false" /><sodipodi:guide
       position="50.282407,18.52452"
       orientation="1,0"
       id="guide2950"
       inkscape:locked="false" /><sodipodi:guide
       position="32.128497,50.00001"
       orientation="0,-1"
       id="guide2952"
       inkscape:locked="false" /><sodipodi:guide
       position="39.311697,0.76242035"
       orientation="0,-1"
       id="guide2954"
       inkscape:locked="false" /><sodipodi:guide
       position="21.418996,25.83833"
       orientation="0,-1"
       id="guide2956"
       inkscape:locked="false" /><sodipodi:guide
       position="25.075899,19.30814"
       orientation="1,0"
       id="guide2958"
       inkscape:locked="false" /></sodipodi:namedview><defs
     id="defs1559" /><g
     id="g1957"
     transform="matrix(0.26458333,0,0,0.26458333,-33.253091,-22.457692)"
     inkscape:export-filename="CONECTA222.png"
     inkscape:export-xdpi="96"
     inkscape:export-ydpi="96"
     inkscape:label="CONECTA2"><rect
       style="mix-blend-mode:normal;fill:#000000;fill-rule:evenodd;stroke-width:1.10113"
       id="rect2392-9"
       width="188.97638"
       height="188.97638"
       x="125.68097"
       y="84.879478"
       ry="20.761215"
       inkscape:label="rect2392" /><path
       style="mix-blend-mode:normal;fill:#ffffff;fill-rule:evenodd;stroke-width:1.91377"
       d="m 138.05821,248.764 c 1.98258,-4.92468 81.53929,-145.04877 82.33839,-145.02341 0.81095,0.0275 80.46039,140.29812 82.33845,145.00808 0.3524,0.88382 -6.13537,1.58109 -14.41728,1.54964 l -15.05803,-0.0563 -25.95098,-46.56602 c -14.27302,-25.61135 -26.38351,-46.57539 -26.91216,-46.58687 -0.52865,-0.009 -12.63911,20.94051 -26.91211,46.55999 l -25.95106,46.58095 -15.05803,0.0637 c -8.28186,0.0349 -14.76965,-0.65311 -14.41719,-1.52846 z"
       id="path2215-3-0"
       inkscape:label="aa" /><path
       style="mix-blend-mode:normal;fill:#ffffff;fill-rule:evenodd;stroke-width:1.91377"
       d="m 216.095,248.31076 c -8.42144,-4.86304 -8.10633,-14.37124 0.62999,-19.00553 10.12273,-5.36956 18.51977,11.48284 9.01086,18.08432 -4.96518,3.44695 -5.22403,3.47169 -9.64085,0.92121 z"
       id="path2217-8-5"
       inkscape:label=".." /><path
       style="fill:#ffffff;fill-rule:evenodd;stroke-width:0.539147"
       d="m 250.38467,137.99229 v -2.7262 l 7.53543,-3.98624 c 17.79058,-9.41121 21.46886,-12.2878 21.46886,-16.78969 0,-1.97499 -1.61417,-4.11226 -3.88902,-5.14933 -5.41553,-2.46888 -15.56198,-0.6347 -17.43034,3.15088 -0.49963,1.01232 -0.98018,1.13746 -4.36782,1.13746 h -3.80643 l 0.50607,-1.58585 c 3.3914,-10.62763 28.28661,-12.535131 35.22728,-2.69914 4.9978,7.08264 1.13073,12.81266 -14.02144,20.77622 -4.12354,2.16722 -7.65755,4.17335 -7.85335,4.45808 -0.23604,0.34325 3.67963,0.51769 11.62051,0.51769 h 11.9765 v 2.81116 2.81115 H 268.8678 250.38467 Z"
       id="path2219"
       inkscape:label="2" /></g></svg>
