<?xml version="1.0" encoding="UTF-8" standalone="no"?>
<!-- Created with Inkscape (http://www.inkscape.org/) -->

<svg
   width="36.237907mm"
   height="37.514771mm"
   viewBox="0 0 36.237907 37.514771"
   version="1.1"
   id="svg10990"
   xml:space="preserve"
   xmlns:inkscape="http://www.inkscape.org/namespaces/inkscape"
   xmlns:sodipodi="http://sodipodi.sourceforge.net/DTD/sodipodi-0.dtd"
   xmlns="http://www.w3.org/2000/svg"
   xmlns:svg="http://www.w3.org/2000/svg"><sodipodi:namedview
     id="namedview10992"
     pagecolor="#ffffff"
     bordercolor="#000000"
     borderopacity="0.25"
     inkscape:showpageshadow="2"
     inkscape:pageopacity="0.0"
     inkscape:pagecheckerboard="0"
     inkscape:deskcolor="#d1d1d1"
     inkscape:document-units="mm"
     showgrid="false" /><defs
     id="defs10987" /><g
     fill="#006747"
     fill-rule="evenodd"
     stroke="none"
     stroke-width="1"
     stroke-linecap="butt"
     stroke-linejoin="miter"
     stroke-miterlimit="10"
     stroke-dasharray="none"
     stroke-dashoffset="0"
     font-family="none"
     font-weight="none"
     font-size="none"
     text-anchor="none"
     style="mix-blend-mode:normal"
     id="g11117"
     transform="matrix(0.26458333,0,0,0.26458333,-54.641454,-43.419663)"><g
       data-paper-data="{&quot;isGlobalGroup&quot;:true,&quot;bounds&quot;:{&quot;x&quot;:146,&quot;y&quot;:106,&quot;width&quot;:258,&quot;height&quot;:258}}"
       id="g11115"><g
         data-paper-data="{&quot;fillRule&quot;:&quot;evenodd&quot;,&quot;fillRuleOriginal&quot;:&quot;evenodd&quot;,&quot;isIcon&quot;:true,&quot;iconStyle&quot;:&quot;standalone&quot;,&quot;selectedEffects&quot;:{&quot;container&quot;:&quot;enclosed_circle_outline3&quot;,&quot;transformation&quot;:&quot;&quot;,&quot;pattern&quot;:&quot;&quot;},&quot;bounds&quot;:{&quot;x&quot;:206.51886040616571,&quot;y&quot;:164.10579875675072,&quot;width&quot;:136.9622008310745,&quot;height&quot;:141.78812264151972},&quot;widthRatioIconToContainer&quot;:1,&quot;heightRatioIconToContainer&quot;:0.6837622753513592,&quot;relativeBoundsIconToContainer&quot;:{&quot;top&quot;:0.09548914752883948,&quot;left&quot;:0},&quot;iconType&quot;:&quot;icon&quot;,&quot;rawIconId&quot;:&quot;668276&quot;,&quot;combineTerms&quot;:&quot;gym&quot;,&quot;isDetailed&quot;:false,&quot;blockLetter&quot;:&quot;O&quot;,&quot;suitableAsStandaloneIcon&quot;:true}"
         id="element-id-83131"><path
           d="m 312.18867,200.0644 h 27.96878 c 1.83513,0 3.3225,1.48848 3.32361,3.3225 v 63.22602 c 0,1.83513 -1.48848,3.3225 -3.3225,3.3225 h -27.96878 c -1.83623,0 -3.3225,-1.48737 -3.3225,-3.3225 v -19.86078 h -0.9602 v 0.34664 c 0,0.0753 -0.0177,0.14508 -0.0222,0.21818 -0.006,0.0853 -0.0133,0.16834 -0.0255,0.25362 -0.0255,0.18163 -0.0676,0.35551 -0.12182,0.52606 -0.0133,0.0454 -0.0144,0.093 -0.031,0.13733 l -8.78468,24.18224 v 21.27506 c 0,1.83513 -1.48848,3.3225 -3.3225,3.3225 h -34.83306 c -1.83513,0 -3.3225,-1.48737 -3.3225,-3.3225 v -21.5032 l -14.17377,-12.73403 c -0.0199,-0.0177 -0.0321,-0.0388 -0.0509,-0.0565 -0.10743,-0.10078 -0.20157,-0.21153 -0.29459,-0.32561 -0.0487,-0.0609 -0.10299,-0.11629 -0.1484,-0.17941 -0.0908,-0.12958 -0.16612,-0.27023 -0.23812,-0.4131 -0.0288,-0.0554 -0.0653,-0.10743 -0.0908,-0.16612 -0.0731,-0.16945 -0.12736,-0.34886 -0.17277,-0.53049 -0.01,-0.0399 -0.0255,-0.0753 -0.0343,-0.11297 -0.0465,-0.2215 -0.072,-0.45075 -0.072,-0.68664 v -10.23108 h -1.03551 v 19.86078 c 0,1.83513 -1.48848,3.3225 -3.3225,3.3225 h -27.96878 c -1.83513,0 -3.3225,-1.48737 -3.3225,-3.3225 v -63.226 c 0,-1.83513 1.48737,-3.3225 3.3225,-3.3225 h 27.96767 c 1.83402,0 3.3225,1.48737 3.3225,3.3225 v 19.86078 h 13.10726 v -5.03137 c 0,-1.83513 1.48737,-3.3225 3.3225,-3.3225 h 47.02219 c 1.83402,0 3.3225,1.48737 3.3225,3.3225 v 5.03137 h 0.9602 V 203.3869 c 0,-1.83513 1.48627,-3.3225 3.3225,-3.3225 z m -42.58333,33.82745 v -12.35304 h -8.72156 v 12.35304 z m 16.68114,-12.35304 h -10.03505 v 22.23637 h 10.03505 z m 6.645,22.23637 h 8.3295 v -22.23637 h -8.3295 z m -44.11944,-3.23833 v 13.12276 h 20.00918 v -13.12276 z m 43.4638,31.29239 c 0,-0.38651 0.0675,-0.77082 0.19935,-1.13408 l 7.36487,-20.27388 h -24.37384 v 6.56193 c 0,1.83513 -1.48848,3.3225 -3.3225,3.3225 h -17.98357 l 8.82566,7.92859 c 0.70105,0.62906 1.10196,1.52724 1.10196,2.47084 v 19.66143 h 28.18807 z m -67.40565,-86.95903 c 6.54047,-6.54049 14.05169,-11.60452 22.53367,-15.19209 8.78292,-3.71488 17.98156,-5.57232 27.59592,-5.57232 9.61435,0 18.81313,1.85744 27.59633,5.57232 8.48177,3.58759 15.99293,8.65163 22.53351,15.19209 3.4283,3.42837 6.45098,7.12348 9.06803,11.08533 h -6.66243 c -1.89248,-2.53751 -3.97972,-4.94725 -6.26171,-7.22922 -6.03919,-6.03905 -12.9732,-10.71425 -20.80203,-14.0256 -8.10386,-3.42769 -16.59443,-5.14154 -25.47169,-5.14154 -8.87699,0 -17.36755,1.71384 -25.47169,5.14154 -7.82878,3.31135 -14.76271,7.98655 -20.80179,14.0256 -2.28196,2.28197 -4.36918,4.69171 -6.26166,7.22922 h -6.6626 c 2.61704,-3.96184 5.63975,-7.65696 9.06815,-11.08534 z m 100.25943,100.25922 c -6.54057,6.54057 -14.05175,11.60463 -22.53351,15.19217 -8.7832,3.71488 -17.98197,5.57232 -27.59633,5.57232 -9.61435,0 -18.81299,-1.85744 -27.59592,-5.57232 -8.48199,-3.58754 -15.99321,-8.6516 -22.53367,-15.19217 -3.42842,-3.42832 -6.45115,-7.12339 -9.06819,-11.08523 h 6.66258 c 1.8925,2.5375 3.97974,4.9472 6.26173,7.22912 6.03905,6.03919 12.97298,10.71449 20.80179,14.02589 1.54696,0.6543 3.108,1.24616 4.68313,1.77557 l 0.59381,0.98852 0.5062,0.67452 0.63244,0.55653 1.10811,0.7888 0.73764,0.41791 0.80736,0.25784 1.3313,0.27723 0.8383,0.0866 h 34.83288 l 0.68071,-0.0569 1.09037,-0.18317 0.74259,-0.19761 0.69308,-0.33251 1.16546,-0.70051 0.67411,-0.50538 0.55653,-0.63244 0.7888,-1.1077 0.41832,-0.73764 0.25743,-0.80777 0.27765,-1.3313 0.0365,-0.35314 c 6.80927,-3.21635 12.90685,-7.51746 18.29273,-12.90335 2.28192,-2.28192 4.36912,-4.69163 6.26159,-7.22912 h 6.66279 c -2.61706,3.96184 -5.63981,7.65692 -9.06827,11.08523 z"
           data-paper-data="{&quot;isPathIcon&quot;:true}"
           id="element-id-78341" /></g></g></g></svg>
