<?xml version="1.0" encoding="UTF-8" standalone="no"?>
<!-- Created with Inkscape (http://www.inkscape.org/) -->

<svg
   width="68.262497mm"
   height="68.262505mm"
   viewBox="0 0 68.262497 68.262505"
   version="1.1"
   id="svg10990"
   xml:space="preserve"
   xmlns:inkscape="http://www.inkscape.org/namespaces/inkscape"
   xmlns:sodipodi="http://sodipodi.sourceforge.net/DTD/sodipodi-0.dtd"
   xmlns="http://www.w3.org/2000/svg"
   xmlns:svg="http://www.w3.org/2000/svg"><sodipodi:namedview
     id="namedview10992"
     pagecolor="#ffffff"
     bordercolor="#000000"
     borderopacity="0.25"
     inkscape:showpageshadow="2"
     inkscape:pageopacity="0.0"
     inkscape:pagecheckerboard="0"
     inkscape:deskcolor="#d1d1d1"
     inkscape:document-units="mm"
     showgrid="false" /><defs
     id="defs10987" /><g
     fill="#006747"
     fill-rule="evenodd"
     stroke="none"
     stroke-width="1"
     stroke-linecap="butt"
     stroke-linejoin="miter"
     stroke-miterlimit="10"
     stroke-dasharray="none"
     stroke-dashoffset="0"
     font-family="none"
     font-weight="none"
     font-size="none"
     text-anchor="none"
     style="mix-blend-mode:normal"
     id="g11117"
     transform="matrix(0.26458333,0,0,0.26458333,-38.629167,-28.045831)"><circle
       style="fill:#ffffff;fill-rule:evenodd;stroke-width:0.959798"
       id="path11279"
       cx="273.19974"
       cy="231.17259"
       inkscape:export-filename="path11279.svg"
       inkscape:export-xdpi="96"
       inkscape:export-ydpi="96"
       r="124.72441" /><g
       data-paper-data="{&quot;isGlobalGroup&quot;:true,&quot;bounds&quot;:{&quot;x&quot;:146,&quot;y&quot;:106,&quot;width&quot;:258,&quot;height&quot;:258}}"
       id="g11115"><g
         data-paper-data="{&quot;fillRule&quot;:&quot;evenodd&quot;,&quot;fillRuleOriginal&quot;:&quot;evenodd&quot;,&quot;isIcon&quot;:true,&quot;iconStyle&quot;:&quot;standalone&quot;,&quot;selectedEffects&quot;:{&quot;container&quot;:&quot;enclosed_circle_outline3&quot;,&quot;transformation&quot;:&quot;&quot;,&quot;pattern&quot;:&quot;&quot;},&quot;bounds&quot;:{&quot;x&quot;:206.51886040616571,&quot;y&quot;:164.10579875675072,&quot;width&quot;:136.9622008310745,&quot;height&quot;:141.78812264151972},&quot;widthRatioIconToContainer&quot;:1,&quot;heightRatioIconToContainer&quot;:0.6837622753513592,&quot;relativeBoundsIconToContainer&quot;:{&quot;top&quot;:0.09548914752883948,&quot;left&quot;:0},&quot;iconType&quot;:&quot;icon&quot;,&quot;rawIconId&quot;:&quot;668276&quot;,&quot;combineTerms&quot;:&quot;gym&quot;,&quot;isDetailed&quot;:false,&quot;blockLetter&quot;:&quot;O&quot;,&quot;suitableAsStandaloneIcon&quot;:true}"
         id="element-id-83131"><path
           d="m 312.18867,200.0644 h 27.96878 c 1.83513,0 3.3225,1.48848 3.32361,3.3225 v 63.22602 c 0,1.83513 -1.48848,3.3225 -3.3225,3.3225 h -27.96878 c -1.83623,0 -3.3225,-1.48737 -3.3225,-3.3225 v -19.86078 h -0.9602 v 0.34664 c 0,0.0753 -0.0177,0.14508 -0.0222,0.21818 -0.006,0.0853 -0.0133,0.16834 -0.0255,0.25362 -0.0255,0.18163 -0.0676,0.35551 -0.12182,0.52606 -0.0133,0.0454 -0.0144,0.093 -0.031,0.13733 l -8.78468,24.18224 v 21.27506 c 0,1.83513 -1.48848,3.3225 -3.3225,3.3225 h -34.83306 c -1.83513,0 -3.3225,-1.48737 -3.3225,-3.3225 v -21.5032 l -14.17377,-12.73403 c -0.0199,-0.0177 -0.0321,-0.0388 -0.0509,-0.0565 -0.10743,-0.10078 -0.20157,-0.21153 -0.29459,-0.32561 -0.0487,-0.0609 -0.10299,-0.11629 -0.1484,-0.17941 -0.0908,-0.12958 -0.16612,-0.27023 -0.23812,-0.4131 -0.0288,-0.0554 -0.0653,-0.10743 -0.0908,-0.16612 -0.0731,-0.16945 -0.12736,-0.34886 -0.17277,-0.53049 -0.01,-0.0399 -0.0255,-0.0753 -0.0343,-0.11297 -0.0465,-0.2215 -0.072,-0.45075 -0.072,-0.68664 v -10.23108 h -1.03551 v 19.86078 c 0,1.83513 -1.48848,3.3225 -3.3225,3.3225 h -27.96878 c -1.83513,0 -3.3225,-1.48737 -3.3225,-3.3225 v -63.226 c 0,-1.83513 1.48737,-3.3225 3.3225,-3.3225 h 27.96767 c 1.83402,0 3.3225,1.48737 3.3225,3.3225 v 19.86078 h 13.10726 v -5.03137 c 0,-1.83513 1.48737,-3.3225 3.3225,-3.3225 h 47.02219 c 1.83402,0 3.3225,1.48737 3.3225,3.3225 v 5.03137 h 0.9602 V 203.3869 c 0,-1.83513 1.48627,-3.3225 3.3225,-3.3225 z m -42.58333,33.82745 v -12.35304 h -8.72156 v 12.35304 z m 16.68114,-12.35304 h -10.03505 v 22.23637 h 10.03505 z m 6.645,22.23637 h 8.3295 v -22.23637 h -8.3295 z m -44.11944,-3.23833 v 13.12276 h 20.00918 v -13.12276 z m 43.4638,31.29239 c 0,-0.38651 0.0675,-0.77082 0.19935,-1.13408 l 7.36487,-20.27388 h -24.37384 v 6.56193 c 0,1.83513 -1.48848,3.3225 -3.3225,3.3225 h -17.98357 l 8.82566,7.92859 c 0.70105,0.62906 1.10196,1.52724 1.10196,2.47084 v 19.66143 h 28.18807 z m -67.40565,-86.95903 c 6.54047,-6.54049 14.05169,-11.60452 22.53367,-15.19209 8.78292,-3.71488 17.98156,-5.57232 27.59592,-5.57232 9.61435,0 18.81313,1.85744 27.59633,5.57232 8.48177,3.58759 15.99293,8.65163 22.53351,15.19209 3.4283,3.42837 6.45098,7.12348 9.06803,11.08533 h -6.66243 c -1.89248,-2.53751 -3.97972,-4.94725 -6.26171,-7.22922 -6.03919,-6.03905 -12.9732,-10.71425 -20.80203,-14.0256 -8.10386,-3.42769 -16.59443,-5.14154 -25.47169,-5.14154 -8.87699,0 -17.36755,1.71384 -25.47169,5.14154 -7.82878,3.31135 -14.76271,7.98655 -20.80179,14.0256 -2.28196,2.28197 -4.36918,4.69171 -6.26166,7.22922 h -6.6626 c 2.61704,-3.96184 5.63975,-7.65696 9.06815,-11.08534 z m 100.25943,100.25922 c -6.54057,6.54057 -14.05175,11.60463 -22.53351,15.19217 -8.7832,3.71488 -17.98197,5.57232 -27.59633,5.57232 -9.61435,0 -18.81299,-1.85744 -27.59592,-5.57232 -8.48199,-3.58754 -15.99321,-8.6516 -22.53367,-15.19217 -3.42842,-3.42832 -6.45115,-7.12339 -9.06819,-11.08523 h 6.66258 c 1.8925,2.5375 3.97974,4.9472 6.26173,7.22912 6.03905,6.03919 12.97298,10.71449 20.80179,14.02589 1.54696,0.6543 3.108,1.24616 4.68313,1.77557 l 0.59381,0.98852 0.5062,0.67452 0.63244,0.55653 1.10811,0.7888 0.73764,0.41791 0.80736,0.25784 1.3313,0.27723 0.8383,0.0866 h 34.83288 l 0.68071,-0.0569 1.09037,-0.18317 0.74259,-0.19761 0.69308,-0.33251 1.16546,-0.70051 0.67411,-0.50538 0.55653,-0.63244 0.7888,-1.1077 0.41832,-0.73764 0.25743,-0.80777 0.27765,-1.3313 0.0365,-0.35314 c 6.80927,-3.21635 12.90685,-7.51746 18.29273,-12.90335 2.28192,-2.28192 4.36912,-4.69163 6.26159,-7.22912 h 6.66279 c -2.61706,3.96184 -5.63981,7.65692 -9.06827,11.08523 z"
           data-paper-data="{&quot;isPathIcon&quot;:true}"
           id="element-id-78341" /></g><g
         data-paper-data="{&quot;isContainerElementsWrapper&quot;:true}"
         id="element-id-63433"><path
           d="M 146,234.99995 C 146,163.75523 203.75521,106 274.99986,106 346.24466,106 404,163.75524 404,234.99995 404,306.24466 346.24466,364 274.99986,364 203.75521,364 146,306.24466 146,234.99995 Z m 129.93212,-113.77116 12.89852,0.83375 -0.14636,2.26432 -10.4051,-0.67256 -0.52443,8.11373 9.39421,0.60726 -0.14636,2.26432 -9.39421,-0.60726 -0.41641,6.44259 -2.49351,-0.16119 z m 29.88054,4.34879 -2.37962,-0.76053 -5.82171,18.21744 12.31225,3.93397 0.69122,-2.16134 -9.93263,-3.17354 z m -81.5209,7.81747 -0.68758,0.28115 5.85734,18.25211 2.23783,-0.91496 -4.39748,-13.61063 9.36259,4.59132 0.25009,-0.10214 3.61812,-10.02992 6.58121,12.84918 2.26283,-0.92517 -8.73275,-17.07651 -0.73758,0.30158 -4.29982,11.75312 z m 97.50284,16.79695 -0.23973,-0.92088 c -0.15982,-0.61386 -0.14365,-1.56328 0.0485,-2.84826 0.19216,-1.28495 0.61659,-2.42794 1.27423,-3.42894 0.65764,-1.00101 1.3302,-1.80043 2.01955,-2.39836 0.68842,-0.59784 1.42908,-1.08123 2.22104,-1.45006 0.79103,-0.36884 1.6175,-0.6262 2.47756,-0.772 0.86099,-0.1458 1.73224,-0.17686 2.61468,-0.093 1.84418,0.17696 3.57549,0.79681 5.19299,1.85948 1.55127,1.01817 2.7686,2.31339 3.65384,3.88555 0.85726,1.53243 1.27796,3.15535 1.2621,4.86865 -0.0354,1.77584 -0.5572,3.43144 -1.56527,4.96681 -1.59636,2.431 -3.77635,3.88083 -6.53998,4.3495 -1.73411,0.29421 -3.48407,0.13027 -5.25176,-0.49182 -0.88431,-0.31104 -1.82645,-0.79524 -2.82737,-1.45261 -1.00091,-0.65736 -1.89455,-1.52711 -2.68185,-2.60927 -0.78636,-1.08215 -1.33952,-2.23709 -1.65855,-3.46479 z m 8.47464,-9.53432 -0.70801,0.12472 c -0.47201,0.0832 -1.12218,0.39113 -1.95145,0.92386 -0.82927,0.53264 -1.54101,1.25063 -2.13335,2.15378 -0.59327,0.90315 -0.97666,1.86349 -1.14923,2.8811 -0.17257,1.01761 -0.15112,2.01768 0.0653,3.00012 0.46174,2.1021 1.61097,3.75614 3.44769,4.96213 1.78355,1.17139 3.68183,1.5778 5.69485,1.21922 2.03727,-0.36374 3.63239,-1.42243 4.78442,-3.17606 0.78046,-1.18917 1.20333,-2.48947 1.26863,-3.90088 0.0681,-1.33411 -0.21641,-2.63073 -0.85446,-3.89003 -0.62312,-1.24932 -1.46172,-2.22001 -2.51487,-2.91197 -1.05408,-0.69196 -2.07272,-1.13748 -3.05684,-1.33673 -0.98412,-0.19925 -1.94865,-0.21567 -2.89266,-0.0493 z m -120.63939,15.38106 -12.37977,-4.08936 2.1312,-1.72493 9.83344,3.28331 -1.19318,-10.27626 2.00522,-1.62291 1.51983,12.82671 5.15765,6.37259 -1.94222,1.57194 z m -14.35796,78.96121 c 0,-44.03258 35.69549,-79.72803 79.72797,-79.72803 44.03267,0 79.72783,35.69545 79.72783,79.72803 0,44.03258 -35.69516,79.72774 -79.72783,79.72774 -44.03249,0 -79.72797,-35.69516 -79.72797,-79.72774 z m 162.92682,-77.06734 -1.76396,-2.30676 -10.50165,18.19673 0.46827,0.61155 11.97457,-3.81765 c 0.35727,-0.12574 0.69775,-0.25046 1.0233,-0.37415 l 1.14643,-0.43479 0.0494,0.0644 -1.3274,1.93298 c -0.22201,0.31725 -0.4123,0.60988 -0.56995,0.87787 l -6.11088,9.84112 0.46734,0.61155 19.98466,-5.79391 -1.76396,-2.30676 -9.63413,3.03147 c -0.4888,0.14683 -0.99905,0.31632 -1.53262,0.50857 l -3.02886,1.10875 -0.0737,-0.0966 2.68371,-4.00682 5.38422,-8.65659 -0.46827,-0.61155 -9.85987,3.13615 c -0.57648,0.18005 -1.12404,0.36076 -1.64269,0.542 l -1.41695,0.50484 c -0.43189,0.16072 -0.85166,0.32313 -1.2593,0.48721 l -0.0737,-0.0965 0.55689,-0.85073 c 0.21455,-0.31177 0.61037,-0.92056 1.18748,-1.82638 0.23072,-0.38033 2.26457,-3.80566 6.10155,-10.27598 z m -168.55334,27.0499 -0.62182,-0.0483 c -0.41454,-0.0322 -1.03365,-0.19412 -1.85742,-0.48572 -0.82368,-0.2916 -1.63,-0.71398 -2.41889,-1.26704 -0.78885,-0.5531 -1.47161,-1.18303 -2.04828,-1.88979 -0.57667,-0.7067 -1.03729,-1.46135 -1.38197,-2.26376 -0.34458,-0.80247 -0.57667,-1.636 -0.69625,-2.5006 -0.11959,-0.86463 -0.12406,-1.73653 -0.0135,-2.61571 0.23302,-1.83802 0.90521,-3.54965 2.01656,-5.13472 1.63342,-2.32973 3.63394,-3.80278 6.00156,-4.41913 l 0.76398,2.25114 c -2.02527,0.5045 -3.71504,1.72256 -5.0693,3.65419 -1.22507,1.74726 -1.68905,3.63239 -1.39186,5.6552 0.2943,2.04278 1.30398,3.66895 3.02923,4.87854 1.88,1.31813 3.83994,1.78507 5.87982,1.40081 2.0347,-0.37692 3.71111,-1.50538 5.02923,-3.38538 0.99764,-1.42286 1.47276,-2.98666 1.42536,-4.69141 -0.0136,-0.48245 -0.072,-0.9247 -0.17492,-1.32684 l -1.69201,-1.18626 -3.80709,5.42993 -1.85789,-1.30268 5.24152,-7.47576 7.15507,5.01658 -1.43442,2.04595 -1.51506,-1.06229 c 0.1701,1.37292 -0.0911,2.86683 -0.78345,4.48172 -0.25862,0.58851 -0.6283,1.22553 -1.10903,1.91115 -0.48072,0.68568 -1.05583,1.32165 -1.72533,1.90789 -0.66949,0.58631 -1.3802,1.06674 -2.13215,1.44129 -0.75194,0.37453 -1.5346,0.64775 -2.34802,0.81976 -0.81335,0.17201 -1.63457,0.22577 -2.46366,0.16128 z m 151.81114,117.93852 1.76396,-2.30686 c 7.24985,2.00742 11.08839,3.0727 11.51562,3.1949 1.0261,0.31996 1.71732,0.54197 2.07458,0.6679 l 0.9664,0.31436 0.0737,-0.097 c -0.26492,-0.34981 -0.53171,-0.71267 -0.80036,-1.08766 l -0.85819,-1.23412 c -0.31063,-0.45335 -0.62872,-0.93468 -0.95334,-1.44307 l -5.61089,-8.69385 0.46734,-0.61193 9.76566,2.92718 4.56987,1.53915 0.0737,-0.097 -1.86377,-2.63148 c -0.32555,-0.46454 -0.62312,-0.91323 -0.89271,-1.34605 l -5.45045,-8.50262 1.76396,-2.30686 10.82907,17.76736 -0.46734,0.61099 -11.09865,-3.3171 c -0.30037,-0.0821 -0.63245,-0.18936 -0.99718,-0.31996 l -2.21264,-0.77424 -0.0494,0.0644 0.72013,0.99252 c 0.20429,0.28078 0.41417,0.57741 0.62872,0.88897 l 6.82262,10.55575 -0.46734,0.61099 z m -160.58083,-11.75535 0.25736,-0.56809 c 0.17164,-0.37872 0.53488,-0.90576 1.08981,-1.58019 0.55493,-0.67536 1.22684,-1.28915 2.01572,-1.84231 0.78888,-0.55316 1.61377,-0.98039 2.47476,-1.28169 0.86099,-0.3013 1.72739,-0.47667 2.59929,-0.52704 0.87181,-0.0504 1.73457,0.0149 2.5881,0.19776 0.85362,0.1819 1.67487,0.4748 2.46371,0.87871 1.64855,0.84513 3.0285,2.06059 4.13986,3.64545 1.63344,2.33018 2.33637,4.71259 2.10881,7.14911 l -2.37674,-0.0494 c 0.21603,-2.07583 -0.3531,-4.07952 -1.70741,-6.01107 -1.22507,-1.74748 -2.83911,-2.82612 -4.84212,-3.23594 -2.02076,-0.41977 -3.89376,-0.0252 -5.61891,1.18468 -1.88,1.31776 -2.98703,3.00118 -3.32111,5.05027 -0.33927,2.041 0.15018,4.00178 1.46835,5.88234 0.99755,1.42255 2.30583,2.402 3.92464,2.93837 0.4582,0.15174 0.89386,0.24782 1.30697,0.28824 l 1.69194,-1.18654 -3.80701,-5.42993 1.85789,-1.30221 5.24147,7.47559 -7.15505,5.01669 -1.43449,-2.04567 1.51508,-1.06248 c -1.34867,-0.30845 -2.66409,-1.0631 -3.94628,-2.26395 -0.46501,-0.44402 -0.93795,-1.00837 -1.41863,-1.69399 -0.48077,-0.68593 -0.88263,-1.44338 -1.20557,-2.27234 -0.32303,-0.82927 -0.53236,-1.66135 -0.62816,-2.49622 -0.0958,-0.83487 -0.0859,-1.66321 0.0297,-2.48689 0.11558,-0.82274 0.34486,-1.61377 0.68805,-2.37122 z m 28.2362,12.22923 -1.41934,12.95962 -5.13219,6.34129 1.94222,1.5718 5.15767,-6.37207 12.22829,-4.16036 -2.00518,-1.6231 -9.80196,3.3087 1.16167,-10.30109 z m 119.72736,28.42572 0.94028,0.14645 c 1.25371,0.19403 2.5326,0.14552 3.83854,-0.14645 1.30594,-0.29197 2.4589,-0.76584 3.45982,-1.42348 1.00091,-0.65764 1.81993,-1.3302 2.45611,-2.01768 1.27329,-1.37404 2.11936,-2.91505 2.53819,-4.62304 0.66883,-2.72289 0.20429,-5.29933 -1.39176,-7.73025 -1.00837,-1.53542 -2.32085,-2.67252 -3.93649,-3.41038 -1.56589,-0.69526 -3.22226,-0.95396 -4.96911,-0.7761 -1.79474,0.1875 -3.46728,0.7901 -5.01762,1.80873 -1.6175,1.06248 -2.87494,2.4048 -3.76951,4.02697 -0.42816,0.7761 -0.74532,1.58765 -0.95334,2.43558 -0.20895,0.84793 -0.30037,1.70799 -0.27705,2.5811 0.0242,0.87312 0.1735,1.74437 0.44868,2.61375 0.27518,0.87032 0.74066,1.805 1.39829,2.80685 0.65764,1.00091 1.53728,1.84418 2.63987,2.53166 1.10352,0.68655 1.96824,1.07927 2.5951,1.17628 z m -4.60812,-10.71993 0.16604,-0.69961 c 0.22294,-0.93282 0.62126,-1.8106 1.19494,-2.63427 0.57368,-0.82461 1.38803,-1.58206 2.44118,-2.27421 1.05408,-0.69215 2.27794,-1.07554 3.67157,-1.1511 1.40949,-0.0849 2.71263,0.16884 3.90943,0.76118 1.26956,0.62126 2.29473,1.52609 3.0755,2.71543 1.15203,1.7537 1.48971,3.63705 1.01304,5.65194 -0.47014,1.9897 -1.59791,3.56989 -3.38146,4.74151 -1.83672,1.20613 -3.81056,1.60351 -5.92339,1.19121 -0.98785,-0.19123 -1.91414,-0.56902 -2.77886,-1.13151 -0.86565,-0.56342 -1.59418,-1.29568 -2.18745,-2.19958 -0.59327,-0.90297 -0.9692,-1.84045 -1.12871,-2.81337 -0.15951,-0.97199 -0.18376,-1.69213 -0.0718,-2.1576 z m -93.5018,-2.20425 0.68767,0.28078 4.31222,11.75815 11.30229,-5.37396 0.73767,0.3013 -5.73234,18.30373 -2.26283,-0.92535 4.30588,-13.77957 -9.60857,4.62211 -0.24999,-0.10168 -3.4642,-9.83562 -6.39763,12.79265 -2.23783,-0.91509 z m 66.96504,8.32632 2.37962,-0.76025 5.13049,16.05564 9.9317,-3.17344 0.69122,2.16134 -12.31225,3.93369 z m -10.07993,1.89922 -12.89852,0.83394 1.23365,19.08449 2.49342,-0.16138 -0.41641,-6.44203 9.39421,-0.60726 -0.14636,-2.26395 -9.39421,0.60726 -0.52452,-8.11457 10.4051,-0.67256 z"
           data-paper-data="{&quot;isBaseLogoContainer&quot;:true}"
           id="element-id-92495" /></g></g></g></svg>
