<?xml version="1.0" encoding="UTF-8" standalone="no"?>
<!-- Created with Inkscape (http://www.inkscape.org/) -->

<svg
   width="60.167435mm"
   height="63.764595mm"
   viewBox="0 0 60.167435 63.764595"
   version="1.1"
   id="svg10223"
   xml:space="preserve"
   xmlns:inkscape="http://www.inkscape.org/namespaces/inkscape"
   xmlns:sodipodi="http://sodipodi.sourceforge.net/DTD/sodipodi-0.dtd"
   xmlns="http://www.w3.org/2000/svg"
   xmlns:svg="http://www.w3.org/2000/svg"><sodipodi:namedview
     id="namedview10225"
     pagecolor="#ffffff"
     bordercolor="#000000"
     borderopacity="0.25"
     inkscape:showpageshadow="2"
     inkscape:pageopacity="0.0"
     inkscape:pagecheckerboard="0"
     inkscape:deskcolor="#d1d1d1"
     inkscape:document-units="mm"
     showgrid="false" /><defs
     id="defs10220" /><g
     inkscape:label="Capa 1"
     inkscape:groupmode="layer"
     id="layer1"
     transform="translate(-22.371506,-68.225912)"><g
       data-paper-data="{&quot;isGlobalGroup&quot;:true,&quot;bounds&quot;:{&quot;x&quot;:161.797800855223,&quot;y&quot;:115,&quot;width&quot;:226.40439828955402,&quot;height&quot;:240}}"
       style="font-family:none;mix-blend-mode:normal;fill:#720c97;fill-opacity:1;stroke:#470a68;stroke-width:1;stroke-linecap:butt;stroke-linejoin:miter;stroke-miterlimit:10;stroke-dasharray:none;stroke-dashoffset:0;stroke-opacity:0"
       id="g10366"
       transform="matrix(0.26458333,0,0,0.26458333,-20.305193,37.931121)"
       inkscape:export-filename="g10366.svg"
       inkscape:export-xdpi="96"
       inkscape:export-ydpi="96"><g
         data-paper-data="{&quot;textHeightFactor&quot;:0.2688826539431738,&quot;isSecondaryText&quot;:true}"
         fill-rule="evenodd"
         style="fill:#720c97;fill-opacity:1;stroke:#470a68;stroke-width:1;stroke-opacity:0"
         id="g10346"><path
           d="m 185.09197,327.31981 c 0,0.514 0.41666,0.93059 0.93059,0.93059 h 174.41956 c 0.514,0 0.93059,-0.41659 0.93059,-0.93059 v -37.32139 c 0,-0.51397 -0.41659,-0.93059 -0.93059,-0.93059 H 186.02256 c -0.51393,0 -0.93059,0.41663 -0.93059,0.93059 z m 18.20967,-18.45671 h -1.2697 v 3.62031 c -0.42323,0.12842 -0.9296,0.20411 -1.49645,0.20411 -1.60223,0 -2.52429,-0.74819 -2.52429,-2.29763 v -3.31042 c 0,-1.54912 0.96741,-2.44869 2.69812,-2.44869 0.75579,0 1.69293,0.21931 2.23711,0.42342 l 0.2645,-1.14897 c -0.61217,-0.26429 -1.52666,-0.51369 -2.62253,-0.51369 -2.18419,0 -3.90736,1.21659 -3.90736,3.58215 v 3.51453 c 0,2.22938 1.68539,3.43884 3.6655,3.43884 1.111,0 2.23711,-0.2494 2.95509,-0.60488 z m 59.33078,0 h -1.26964 v 3.62031 c -0.42311,0.12842 -0.92966,0.20411 -1.49639,0.20411 -1.60217,0 -2.52438,-0.74819 -2.52438,-2.29763 v -3.31042 c 0,-1.54912 0.9675,-2.44869 2.69809,-2.44869 0.75595,0 1.69305,0.21931 2.23714,0.42342 l 0.2646,-1.14897 c -0.61202,-0.26429 -1.52679,-0.51369 -2.6224,-0.51369 -2.18441,0 -3.90755,1.21659 -3.90755,3.58215 v 3.51453 c 0,2.22938 1.6853,3.43884 3.6656,3.43884 1.11112,0 2.23714,-0.2494 2.95493,-0.60488 z m 15.51884,3.82442 c 0.89182,0 1.76843,-0.22675 2.1537,-0.35518 l 0.18147,1.14121 c -0.64242,0.27204 -1.53423,0.45351 -2.51663,0.45351 -1.79883,0 -3.55982,-1.28484 -3.55982,-3.35571 v -3.67304 c 0,-2.29018 1.76099,-3.50677 3.60511,-3.50677 1.11112,0 2.05567,0.31733 2.30507,0.43055 l -0.22675,1.2017 c -0.27949,-0.0906 -1.13346,-0.39302 -2.07087,-0.39302 -1.28484,0 -2.28243,0.89957 -2.28243,2.37332 v 3.46149 c 0,1.39806 0.99759,2.22194 2.41116,2.22194 z m -61.93594,1.08817 -3.21959,-10.23308 h -1.95747 l -3.21959,10.23308 h 1.42843 l 0.77087,-2.53183 h 3.99806 l 0.7709,2.53183 z m 14.17587,0 h -1.30748 v -7.9885 l -2.94005,6.67357 h -0.90689 l -2.93995,-6.67357 v 7.9885 h -1.30751 v -10.23308 h 1.62493 l 3.06847,7.09668 3.08367,-7.09668 h 1.62481 z m 7.02627,-10.23308 h -1.34532 v 10.23308 h 1.34532 z m 13.17809,10.23308 h -1.4207 l -4.6179,-7.88272 v 7.88272 h -1.34532 v -10.23308 h 1.42101 l 4.61759,7.88272 v -7.88272 h 1.34532 z m 34.77833,-10.23308 v 10.23308 h 1.34532 v -3.71088 h 1.86676 l 1.9195,3.71088 h 1.48894 l -2.08576,-3.89979 c 1.14866,-0.37037 2.06312,-1.30748 2.06312,-2.81131 v -0.53664 c 0,-1.98774 -1.61737,-2.98533 -3.26482,-2.98533 z m 18.0001,10.23308 h -5.95547 v -10.23308 h 5.79665 v 1.20915 h -4.44388 v 3.25738 h 4.29281 v 1.20946 h -4.29281 v 3.34795 h 4.6027 z m 15.45307,-10.23308 -2.20705,8.75189 -2.09352,-8.60083 h -1.47374 l -2.10096,8.60083 -2.1993,-8.75189 h -1.4207 l 2.67545,10.23308 h 1.85901 l 1.91981,-8.09428 1.92725,8.09428 h 1.85901 l 2.67545,-10.23308 z m 16.05517,10.23308 h -1.35277 v -9.02393 h -2.9326 v -1.20915 h 7.21766 v 1.20915 h -2.93229 z m 13.48798,-10.23308 -2.71329,8.88776 -2.71298,-8.88776 h -1.41357 l 3.15935,10.23308 h 1.9347 l 3.15904,-10.23308 z m -136.35699,1.07328 1.65515,5.45667 h -3.29516 z m 76.5802,0.0754 c 1.2169,0 2.04823,0.64242 2.04823,1.94245 v 0.32509 c 0,1.31492 -0.83133,1.96479 -2.04823,1.96479 h -1.87421 v -4.23233 z"
           data-paper-data="{&quot;isContainerAroundSecondaryText&quot;:true}"
           style="fill:#720c97;fill-opacity:1;stroke:#470a68;stroke-width:1;stroke-dasharray:1033, 1073;stroke-dashoffset:0;stroke-opacity:0"
           id="path10344" /></g><g
         data-paper-data="{&quot;isPrimaryText&quot;:true}"
         fill-rule="nonzero"
         style="fill:#720c97;fill-opacity:1;stroke:#470a68;stroke-width:1;stroke-opacity:0"
         id="g10358"><path
           d="m 227.49398,275.3788 c 0,0.4321 -0.0772,0.83333 -0.23148,1.20369 -0.15432,0.37037 -0.36651,0.69058 -0.63657,0.96064 -0.27006,0.27006 -0.59027,0.48225 -0.96064,0.63657 -0.37037,0.15432 -0.7716,0.23148 -1.20369,0.23148 h -21.71279 c -0.55555,0 -1.15354,-0.0656 -1.79397,-0.19676 -0.64043,-0.13117 -1.27314,-0.33565 -1.89813,-0.61342 -0.625,-0.27778 -1.22298,-0.63657 -1.79397,-1.07638 -0.57098,-0.43981 -1.07638,-0.97221 -1.51619,-1.59721 -0.43981,-0.625 -0.79089,-1.3503 -1.05323,-2.17591 -0.26234,-0.82561 -0.39352,-1.75539 -0.39352,-2.78933 V 253.666 c 0,-0.55555 0.0656,-1.15354 0.19676,-1.79397 0.13117,-0.64043 0.33565,-1.27314 0.61342,-1.89813 0.27778,-0.625 0.64043,-1.22298 1.08795,-1.79397 0.44753,-0.57098 0.98379,-1.07638 1.60878,-1.51619 0.625,-0.43981 1.34644,-0.79089 2.16433,-1.05323 0.81789,-0.26234 1.74381,-0.39352 2.77776,-0.39352 h 24.4674 v 6.01847 h -24.4674 c -0.78703,0 -1.38888,0.20833 -1.80554,0.625 -0.41666,0.41666 -0.625,1.03394 -0.625,1.85184 v 16.24987 c 0,0.7716 0.21219,1.36959 0.63657,1.79397 0.42438,0.42438 1.02237,0.63657 1.79397,0.63657 h 18.72671 v -7.54624 h -16.01839 v -6.06477 h 19.00448 c 0.4321,0 0.83333,0.081 1.20369,0.24305 0.37037,0.16204 0.69058,0.38194 0.96064,0.65972 0.27006,0.27778 0.48225,0.59799 0.63657,0.96064 0.15432,0.36265 0.23148,0.75231 0.23148,1.16897 z"
           data-paper-data="{&quot;glyphName&quot;:&quot;G&quot;,&quot;glyphIndex&quot;:0,&quot;firstGlyphOfWord&quot;:true,&quot;word&quot;:1}"
           style="fill:#720c97;fill-opacity:1;stroke:#470a68;stroke-width:1;stroke-dasharray:235, 275;stroke-dashoffset:0;stroke-opacity:0"
           id="path10348" /><path
           d="m 268.4273,278.41118 h -21.71279 c -0.55555,0 -1.15354,-0.0656 -1.79397,-0.19676 -0.64043,-0.13117 -1.27314,-0.33565 -1.89813,-0.61342 -0.625,-0.27778 -1.22298,-0.63657 -1.79397,-1.07638 -0.57098,-0.43981 -1.07638,-0.97221 -1.51619,-1.59721 -0.43981,-0.625 -0.79089,-1.3503 -1.05323,-2.17591 -0.26234,-0.82561 -0.39352,-1.75539 -0.39352,-2.78933 V 253.666 c 0,-0.55555 0.0656,-1.15354 0.19676,-1.79397 0.13117,-0.64043 0.33565,-1.27314 0.61342,-1.89813 0.27778,-0.625 0.64043,-1.22298 1.08795,-1.79397 0.44753,-0.57098 0.98379,-1.07638 1.60878,-1.51619 0.625,-0.43981 1.34644,-0.79089 2.16433,-1.05323 0.81789,-0.26234 1.74381,-0.39352 2.77776,-0.39352 h 21.71279 v 6.01847 H 246.7145 c -0.78703,0 -1.38888,0.20833 -1.80554,0.625 -0.41666,0.41666 -0.625,1.03394 -0.625,1.85184 v 16.24987 c 0,0.7716 0.21219,1.36959 0.63657,1.79397 0.42438,0.42438 1.02237,0.63657 1.79397,0.63657 h 21.71279 z"
           data-paper-data="{&quot;glyphName&quot;:&quot;C&quot;,&quot;glyphIndex&quot;:1,&quot;word&quot;:1}"
           style="fill:#720c97;fill-opacity:1;stroke:#470a68;stroke-width:1;stroke-dasharray:167, 207;stroke-dashoffset:0;stroke-opacity:0"
           id="path10350" /><path
           d="m 283.41175,275.3788 c 0,0.41666 -0.081,0.80632 -0.24305,1.16897 -0.16204,0.36265 -0.37808,0.67901 -0.64814,0.94907 -0.27006,0.27006 -0.58642,0.48225 -0.94907,0.63657 -0.36265,0.15432 -0.74459,0.23148 -1.14582,0.23148 -0.41666,0 -0.80632,-0.0772 -1.16897,-0.23148 -0.36265,-0.15432 -0.67901,-0.36651 -0.94907,-0.63657 -0.27006,-0.27006 -0.48225,-0.58642 -0.63657,-0.94907 -0.15432,-0.36265 -0.23148,-0.75231 -0.23148,-1.16897 0,-0.40123 0.0772,-0.78317 0.23148,-1.14582 0.15432,-0.36265 0.36651,-0.67901 0.63657,-0.94907 0.27006,-0.27006 0.58642,-0.48611 0.94907,-0.64814 0.36265,-0.16204 0.75231,-0.24305 1.16897,-0.24305 0.40123,0 0.78317,0.081 1.14582,0.24305 0.36265,0.16204 0.67901,0.37808 0.94907,0.64814 0.27006,0.27006 0.48611,0.58642 0.64814,0.94907 0.16204,0.36265 0.24305,0.74459 0.24305,1.14582 z"
           data-paper-data="{&quot;glyphName&quot;:&quot;.&quot;,&quot;glyphIndex&quot;:2,&quot;word&quot;:1}"
           style="fill:#720c97;fill-opacity:1;stroke:#470a68;stroke-width:1;stroke-dasharray:19, 59;stroke-dashoffset:0;stroke-opacity:0"
           id="path10352" /><path
           d="m 322.07657,251.23547 h -13.26379 v 27.17571 h -6.01847 V 251.23547 H 289.50738 V 245.217 h 32.56919 z"
           data-paper-data="{&quot;glyphName&quot;:&quot;T&quot;,&quot;glyphIndex&quot;:3,&quot;word&quot;:1}"
           style="fill:#720c97;fill-opacity:1;stroke:#470a68;stroke-width:1;stroke-dasharray:132, 172;stroke-dashoffset:0;stroke-opacity:0"
           id="path10354" /><path
           d="m 364.90803,245.217 -15.71747,32.01364 c -0.24691,0.49382 -0.61342,0.8912 -1.09953,1.19212 -0.48611,0.30092 -1.02237,0.45139 -1.60878,0.45139 -0.57098,0 -1.09953,-0.15046 -1.58564,-0.45139 -0.48611,-0.30092 -0.86033,-0.6983 -1.12268,-1.19212 L 328.07961,245.217 h 6.73606 l 11.66658,23.91185 11.71287,-23.91185 z"
           data-paper-data="{&quot;glyphName&quot;:&quot;V&quot;,&quot;glyphIndex&quot;:4,&quot;lastGlyphOfWord&quot;:true,&quot;word&quot;:1}"
           style="fill:#720c97;fill-opacity:1;stroke:#470a68;stroke-width:1;stroke-dasharray:145, 185;stroke-dashoffset:0;stroke-opacity:0"
           id="path10356" /></g><g
         data-paper-data="{&quot;fillRule&quot;:&quot;evenodd&quot;,&quot;fillRuleOriginal&quot;:&quot;evenodd&quot;,&quot;isIcon&quot;:true,&quot;iconStyle&quot;:&quot;standalone&quot;,&quot;selectedEffects&quot;:{&quot;container&quot;:&quot;&quot;,&quot;transformation&quot;:&quot;&quot;,&quot;pattern&quot;:&quot;&quot;},&quot;bounds&quot;:{&quot;x&quot;:220.5789445433555,&quot;y&quot;:115,&quot;width&quot;:108.84211091328902,&quot;height&quot;:108.84211091328893},&quot;iconType&quot;:&quot;icon&quot;,&quot;rawIconId&quot;:&quot;combine_dd92f8f1-4b7e-44ef-8d1b-9e198471598e&quot;,&quot;combineTerms&quot;:&quot;tv,game&quot;,&quot;suitableAsStandaloneIcon&quot;:true}"
         fill-rule="evenodd"
         style="fill:#720c97;fill-opacity:1;stroke:#470a68;stroke-width:1;stroke-opacity:0"
         id="g10362"><path
           d="m 250.25638,115 v 9.88047 h 9.89331 v 9.9165 h 9.90496 v -9.9165 h -9.90496 V 115 Z m 49.48855,0 h -9.89331 v 9.88047 h -9.90496 v 9.9165 h -9.8907 v 9.88047 h -39.59654 v 9.89331 h -9.88047 v 49.4744 h 9.88047 v 9.9165 h 9.9165 v 9.88047 h 9.88047 v -9.88047 h 49.48855 v 9.88047 h 9.88047 v -9.88047 h 9.9165 v -9.9165 h 9.87916 v -49.4744 h -9.87916 v -9.89331 h -39.59524 v -9.88047 h 9.90496 v -9.9165 h 9.89331 z m -69.28552,89.04515 h 89.08117 v -39.56944 h -9.9165 v -9.90496 H 240.3759 v 9.90496 h -9.9165 z m 71.79182,-37.27386 c -0.65686,-2.90097 -5.61179,-4.87743 -10.14191,-4.88897 h -0.0801 c -1.77543,0.005 -3.48121,0.31249 -4.83215,0.98676 -1.72896,0.86334 -3.58852,2.68405 -5.05561,4.5718 H 268.0526 c -1.46708,-1.88776 -3.32665,-3.70847 -5.05572,-4.5718 -1.35095,-0.67428 -3.05694,-0.98219 -4.83248,-0.98676 h -0.08 c -4.53044,0.0115 -9.48537,1.988 -10.14223,4.88897 -1.47361,6.50277 -5.89554,29.47825 0.69779,30.4698 6.13597,0.9232 12.35521,-4.57061 16.63151,-10.89237 h 19.65112 c 4.27564,6.32177 10.49554,11.81557 16.63086,10.89237 6.59333,-0.99155 2.1714,-23.96703 0.69779,-30.4698 z m -45.20202,11.54227 c -2.37994,0 -4.30917,-1.92923 -4.30917,-4.30928 0,-2.38005 1.92923,-4.30917 4.30917,-4.30917 2.38005,0 4.30928,1.92977 4.30928,4.30917 0,2.38005 -1.92977,4.30928 -4.30928,4.30928 z m 36.09499,0 c -2.38005,0 -4.30928,-1.92923 -4.30928,-4.30928 0,-2.38005 1.92988,-4.30917 4.30928,-4.30917 2.38005,0 4.30928,1.92977 4.30928,4.30917 5.4e-4,2.38005 -1.92868,4.30928 -4.30928,4.30928 z"
           data-paper-data="{&quot;isPathIcon&quot;:true}"
           style="fill:#720c97;fill-opacity:1;stroke:#470a68;stroke-width:1;stroke-dasharray:1093, 1133;stroke-dashoffset:0;stroke-opacity:0"
           id="path10360" /></g><path
         d="M 161.7978,349.55412 V 173.86333 c 0,-1.50342 0.53165,-2.78677 1.59494,-3.85006 1.06329,-1.06329 2.34694,-1.59494 3.85095,-1.59494 h 49.29638 v 2.00544 h -49.29638 c -2.29303,0 -3.43955,1.14652 -3.43955,3.43955 v 175.69079 c 0,2.29303 1.14652,3.43955 3.43955,3.43955 h 215.51263 c 2.29303,0 3.43955,-1.14652 3.43955,-3.43955 V 173.86332 c 0,-2.29303 -1.14652,-3.43955 -3.43955,-3.43955 h -49.29638 v -2.00544 h 49.29638 c 1.50401,0 2.78766,0.53165 3.85095,1.59494 1.06329,1.06329 1.59494,2.34664 1.59494,3.85006 v 175.69079 c 0,1.50342 -0.53165,2.78706 -1.59494,3.85095 -1.06329,1.06329 -2.34694,1.59494 -3.85095,1.59494 H 167.24369 c -1.50401,0 -2.78766,-0.53165 -3.85095,-1.59494 -1.06329,-1.06329 -1.59494,-2.34694 -1.59494,-3.85095 z"
         data-paper-data="{&quot;isLogoContainer&quot;:true}"
         fill-rule="nonzero"
         style="fill:#720c97;fill-opacity:1;stroke:#470a68;stroke-width:1;stroke-dasharray:1392, 1432;stroke-dashoffset:0;stroke-opacity:0"
         id="path10364" /></g></g></svg>
