<?xml version="1.0" encoding="UTF-8" standalone="no"?>
<!-- Created with Inkscape (http://www.inkscape.org/) -->

<svg
   width="40mm"
   height="40mm"
   viewBox="0 0 40 40"
   version="1.1"
   id="svg10223"
   xml:space="preserve"
   xmlns:inkscape="http://www.inkscape.org/namespaces/inkscape"
   xmlns:sodipodi="http://sodipodi.sourceforge.net/DTD/sodipodi-0.dtd"
   xmlns="http://www.w3.org/2000/svg"
   xmlns:svg="http://www.w3.org/2000/svg"><sodipodi:namedview
     id="namedview10225"
     pagecolor="#ffffff"
     bordercolor="#000000"
     borderopacity="0.25"
     inkscape:showpageshadow="2"
     inkscape:pageopacity="0.0"
     inkscape:pagecheckerboard="0"
     inkscape:deskcolor="#d1d1d1"
     inkscape:document-units="mm"
     showgrid="false" /><defs
     id="defs10220" /><g
     inkscape:label="Capa 1"
     inkscape:groupmode="layer"
     id="layer1"
     transform="translate(-37.222047,-67.913908)"><circle
       style="fill:#000000;fill-opacity:1;fill-rule:evenodd;stroke-width:0.250135"
       id="path10950"
       cx="57.222046"
       cy="87.91391"
       r="20" /><g
       data-paper-data="{&quot;isGlobalGroup&quot;:true,&quot;bounds&quot;:{&quot;x&quot;:161.797800855223,&quot;y&quot;:115,&quot;width&quot;:226.40439828955402,&quot;height&quot;:240}}"
       style="font-family:none;mix-blend-mode:normal;fill:#ffffff;fill-opacity:1;stroke:#470a68;stroke-width:1;stroke-linecap:butt;stroke-linejoin:miter;stroke-miterlimit:10;stroke-dasharray:none;stroke-dashoffset:0;stroke-opacity:0"
       id="g10366"
       transform="matrix(0.26458333,0,0,0.26458333,-15.734064,42.763456)"
       inkscape:export-filename="g10222ssss66.svg"
       inkscape:export-xdpi="96"
       inkscape:export-ydpi="96"><g
         data-paper-data="{&quot;fillRule&quot;:&quot;evenodd&quot;,&quot;fillRuleOriginal&quot;:&quot;evenodd&quot;,&quot;isIcon&quot;:true,&quot;iconStyle&quot;:&quot;standalone&quot;,&quot;selectedEffects&quot;:{&quot;container&quot;:&quot;&quot;,&quot;transformation&quot;:&quot;&quot;,&quot;pattern&quot;:&quot;&quot;},&quot;bounds&quot;:{&quot;x&quot;:220.5789445433555,&quot;y&quot;:115,&quot;width&quot;:108.84211091328902,&quot;height&quot;:108.84211091328893},&quot;iconType&quot;:&quot;icon&quot;,&quot;rawIconId&quot;:&quot;combine_dd92f8f1-4b7e-44ef-8d1b-9e198471598e&quot;,&quot;combineTerms&quot;:&quot;tv,game&quot;,&quot;suitableAsStandaloneIcon&quot;:true}"
         fill-rule="evenodd"
         style="fill:#ffffff;fill-opacity:1;stroke:#470a68;stroke-width:1;stroke-opacity:0"
         id="g10362"><path
           d="m 250.25638,115 v 9.88047 h 9.89331 v 9.9165 h 9.90496 v -9.9165 h -9.90496 V 115 Z m 49.48855,0 h -9.89331 v 9.88047 h -9.90496 v 9.9165 h -9.8907 v 9.88047 h -39.59654 v 9.89331 h -9.88047 v 49.4744 h 9.88047 v 9.9165 h 9.9165 v 9.88047 h 9.88047 v -9.88047 h 49.48855 v 9.88047 h 9.88047 v -9.88047 h 9.9165 v -9.9165 h 9.87916 v -49.4744 h -9.87916 v -9.89331 h -39.59524 v -9.88047 h 9.90496 v -9.9165 h 9.89331 z m -69.28552,89.04515 h 89.08117 v -39.56944 h -9.9165 v -9.90496 H 240.3759 v 9.90496 h -9.9165 z m 71.79182,-37.27386 c -0.65686,-2.90097 -5.61179,-4.87743 -10.14191,-4.88897 h -0.0801 c -1.77543,0.005 -3.48121,0.31249 -4.83215,0.98676 -1.72896,0.86334 -3.58852,2.68405 -5.05561,4.5718 H 268.0526 c -1.46708,-1.88776 -3.32665,-3.70847 -5.05572,-4.5718 -1.35095,-0.67428 -3.05694,-0.98219 -4.83248,-0.98676 h -0.08 c -4.53044,0.0115 -9.48537,1.988 -10.14223,4.88897 -1.47361,6.50277 -5.89554,29.47825 0.69779,30.4698 6.13597,0.9232 12.35521,-4.57061 16.63151,-10.89237 h 19.65112 c 4.27564,6.32177 10.49554,11.81557 16.63086,10.89237 6.59333,-0.99155 2.1714,-23.96703 0.69779,-30.4698 z m -45.20202,11.54227 c -2.37994,0 -4.30917,-1.92923 -4.30917,-4.30928 0,-2.38005 1.92923,-4.30917 4.30917,-4.30917 2.38005,0 4.30928,1.92977 4.30928,4.30917 0,2.38005 -1.92977,4.30928 -4.30928,4.30928 z m 36.09499,0 c -2.38005,0 -4.30928,-1.92923 -4.30928,-4.30928 0,-2.38005 1.92988,-4.30917 4.30928,-4.30917 2.38005,0 4.30928,1.92977 4.30928,4.30917 5.4e-4,2.38005 -1.92868,4.30928 -4.30928,4.30928 z"
           data-paper-data="{&quot;isPathIcon&quot;:true}"
           style="fill:#ffffff;fill-opacity:1;stroke:#470a68;stroke-width:1;stroke-dasharray:1093, 1133;stroke-dashoffset:0;stroke-opacity:0"
           id="path10360" /></g></g></g></svg>
