<?xml version="1.0" encoding="UTF-8" standalone="no"?>
<!-- Created with Inkscape (http://www.inkscape.org/) -->

<svg
   width="107.43152mm"
   height="63.500008mm"
   viewBox="0 0 107.43152 63.500008"
   version="1.1"
   id="svg5"
   xml:space="preserve"
   xmlns:inkscape="http://www.inkscape.org/namespaces/inkscape"
   xmlns:sodipodi="http://sodipodi.sourceforge.net/DTD/sodipodi-0.dtd"
   xmlns="http://www.w3.org/2000/svg"
   xmlns:svg="http://www.w3.org/2000/svg"><sodipodi:namedview
     id="namedview7"
     pagecolor="#ffffff"
     bordercolor="#000000"
     borderopacity="0.25"
     inkscape:showpageshadow="2"
     inkscape:pageopacity="0.0"
     inkscape:pagecheckerboard="0"
     inkscape:deskcolor="#d1d1d1"
     inkscape:document-units="mm"
     showgrid="false" /><defs
     id="defs2" /><g
     inkscape:label="Capa 1"
     inkscape:groupmode="layer"
     id="layer1"
     transform="translate(-43.80663,-69.69129)"><g
       id="g249"
       transform="matrix(0.26458333,0,0,0.26458333,24.761974,39.264205)"
       inkscape:export-filename="zeuste2ch.svg"
       inkscape:export-xdpi="96"
       inkscape:export-ydpi="96"
       style="fill:#f9f9f9"><g
         fill="url(#color-15838744154)"
         fill-rule="nonzero"
         stroke="none"
         stroke-width="1"
         stroke-linecap="butt"
         stroke-linejoin="miter"
         stroke-miterlimit="10"
         stroke-dasharray="none"
         stroke-dashoffset="0"
         font-family="none"
         font-weight="none"
         font-size="none"
         text-anchor="none"
         style="mix-blend-mode:normal;fill:#f9f9f9"
         id="g152"><g
           data-paper-data="{&quot;isGlobalGroup&quot;:true,&quot;bounds&quot;:{&quot;x&quot;:71.97981867684621,&quot;y&quot;:115.00000000000003,&quot;width&quot;:406.0403626463076,&quot;height&quot;:239.99999999999997}}"
           id="g150"
           style="fill:#f9f9f9"><g
             data-paper-data="{&quot;isPrimaryText&quot;:true}"
             id="element-id-1390"
             style="fill:#f9f9f9"
             inkscape:export-filename=".\element-id-12390.png"
             inkscape:export-xdpi="96"
             inkscape:export-ydpi="96"><path
               d="M 111.21972,341.9481 H 87.81051 l 22.56715,-31.32456 c 0.84206,-1.09468 1.09468,-2.18935 1.09468,-3.28403 v -6.56805 c 0,-1.5157 -0.50523,-2.44197 -2.44197,-2.44197 H 75.17964 c -1.93673,0 -2.44197,0.92626 -2.44197,2.44197 v 6.90488 c 0,1.5157 0.50523,2.44197 2.44197,2.44197 h 20.63042 l -22.73557,31.40876 c 0,0 -1.09468,1.26309 -1.09468,3.19982 v 6.56805 c 0,2.02094 0.33682,2.44197 2.52617,2.44197 h 36.71373 c 1.93673,0 2.44197,-0.92626 2.44197,-2.44197 v -6.90488 c 0,-1.5157 -0.50523,-2.44197 -2.44197,-2.44197 z"
               data-paper-data="{&quot;glyphName&quot;:&quot;Z&quot;,&quot;glyphIndex&quot;:0,&quot;firstGlyphOfWord&quot;:true,&quot;word&quot;:1}"
               id="element-id-62224"
               style="fill:#f9f9f9" /><path
               d="m 160.73273,342.03231 h -37.21896 c -1.5157,0 -2.44197,0.50523 -2.44197,2.44197 v 6.90488 c 0,1.93673 0.92626,2.44197 2.44197,2.44197 h 37.21896 c 1.5157,0 2.44197,-0.50523 2.44197,-2.44197 v -6.90488 c 0,-1.93673 -0.92626,-2.44197 -2.44197,-2.44197 z m -4.21029,-21.89351 h -28.79838 c -1.5157,0 -2.44197,0.50523 -2.44197,2.44197 v 6.90488 c 0,1.93673 0.92626,2.44197 2.44197,2.44197 h 28.79838 c 1.5157,0 2.44197,-0.50523 2.44197,-2.44197 v -6.90488 c 0,-1.93673 -0.92626,-2.44197 -2.44197,-2.44197 z m 4.21029,-21.7251 h -37.21896 c -1.5157,0 -2.44197,0.50523 -2.44197,2.44197 v 6.90488 c 0,1.93673 0.92626,2.44197 2.44197,2.44197 h 37.21896 c 1.5157,0 2.44197,-0.50523 2.44197,-2.44197 v -6.90488 c 0,-1.93673 -0.92626,-2.44197 -2.44197,-2.44197 z"
               data-paper-data="{&quot;glyphName&quot;:&quot;ξ&quot;,&quot;glyphIndex&quot;:1,&quot;word&quot;:1}"
               id="element-id-20786"
               style="fill:#f9f9f9" /><path
               d="m 215.21388,298.3295 h -8.33637 c -1.5157,0 -2.44197,0.50523 -2.44197,2.44197 v 34.18755 c 0,5.30497 -3.53664,8.33637 -9.09423,8.33637 -5.55758,0 -9.01002,-3.03141 -9.01002,-8.33637 v -34.18755 c 0,-1.93673 -0.92626,-2.44197 -2.44197,-2.44197 h -8.33637 c -1.5157,0 -2.44197,0.50523 -2.44197,2.44197 v 36.04008 c 0,13.22031 12.20984,18.18845 22.23033,18.18845 10.02049,0 22.31454,-4.96814 22.31454,-18.18845 v -36.04008 c 0,-1.93673 -0.92626,-2.44197 -2.44197,-2.44197 z"
               data-paper-data="{&quot;glyphName&quot;:&quot;U&quot;,&quot;glyphIndex&quot;:2,&quot;word&quot;:1}"
               id="element-id-79143"
               style="fill:#f9f9f9" /><path
               d="m 255.54846,321.5703 c -3.36823,-1.34729 -15.74648,-3.19982 -15.74648,-8.33637 0,-3.78926 4.63132,-4.88394 7.41011,-4.88394 2.52617,0 5.55758,0.75785 7.15749,2.27356 1.01047,1.01047 1.4315,1.68412 1.76832,2.52617 0.42103,1.09468 0.67365,2.27356 2.27356,2.27356 h 8.25217 c 1.93673,0 2.44197,-0.33682 2.44197,-2.35776 0,-11.11517 -11.70461,-15.9991 -22.39874,-15.9991 -10.52572,0.42103 -20.46201,5.8102 -20.46201,16.75695 0,10.69414 7.83114,14.06237 16.33593,16.75695 7.15749,2.27356 14.65181,2.35776 14.65181,7.07329 0,4.71552 -3.70506,5.72599 -8.25217,5.72599 -3.11561,0 -6.56805,-0.75785 -8.25217,-2.77879 -1.09468,-1.26309 -1.5157,-2.35776 -1.59991,-3.45244 -0.16841,-2.10514 -1.09468,-2.35776 -3.03141,-2.35776 h -8.16796 c -1.93673,0 -2.44197,0.42103 -2.44197,2.35776 0,11.78881 12.12564,17.85163 22.65136,17.85163 12.96769,0 22.39874,-5.72599 22.39874,-17.68322 0,-11.45199 -8.92581,-13.89396 -14.98863,-15.74648 z"
               data-paper-data="{&quot;glyphName&quot;:&quot;S&quot;,&quot;glyphIndex&quot;:3,&quot;word&quot;:1}"
               id="element-id-22023"
               style="fill:#f9f9f9" /><path
               d="m 317.86075,298.3295 h -39.07149 c -1.93673,0 -2.44197,0.92626 -2.44197,2.44197 v 6.98908 c 0,1.5157 0.50523,2.44197 2.44197,2.44197 h 12.96769 v 41.09243 c 0,1.93673 0.92626,2.44197 2.44197,2.44197 h 8.33637 c 1.5157,0 2.44197,-0.50523 2.44197,-2.44197 v -41.09243 h 12.88349 c 1.93673,0 2.44197,-0.92626 2.44197,-2.44197 v -6.98908 c 0,-1.5157 -0.50523,-2.44197 -2.44197,-2.44197 z"
               data-paper-data="{&quot;glyphName&quot;:&quot;T&quot;,&quot;glyphIndex&quot;:4,&quot;word&quot;:1}"
               id="element-id-26579"
               style="fill:#f9f9f9" /><path
               d="m 366.5317,342.03231 h -37.21896 c -1.5157,0 -2.44197,0.50523 -2.44197,2.44197 v 6.90488 c 0,1.93673 0.92626,2.44197 2.44197,2.44197 h 37.21896 c 1.5157,0 2.44197,-0.50523 2.44197,-2.44197 v -6.90488 c 0,-1.93673 -0.92626,-2.44197 -2.44197,-2.44197 z m -4.21029,-21.89351 h -28.79838 c -1.5157,0 -2.44197,0.50523 -2.44197,2.44197 v 6.90488 c 0,1.93673 0.92626,2.44197 2.44197,2.44197 h 28.79838 c 1.5157,0 2.44197,-0.50523 2.44197,-2.44197 v -6.90488 c 0,-1.93673 -0.92626,-2.44197 -2.44197,-2.44197 z m 4.21029,-21.7251 h -37.21896 c -1.5157,0 -2.44197,0.50523 -2.44197,2.44197 v 6.90488 c 0,1.93673 0.92626,2.44197 2.44197,2.44197 h 37.21896 c 1.5157,0 2.44197,-0.50523 2.44197,-2.44197 v -6.90488 c 0,-1.93673 -0.92626,-2.44197 -2.44197,-2.44197 z"
               data-paper-data="{&quot;glyphName&quot;:&quot;ξ&quot;,&quot;glyphIndex&quot;:5,&quot;word&quot;:1}"
               id="element-id-5150"
               style="fill:#f9f9f9" /><path
               d="m 422.27594,337.31678 c 0,-2.02094 -0.67365,-2.863 -2.52617,-2.863 h -8.25217 c -1.85253,0 -2.02094,1.34729 -2.27356,3.03141 -0.67365,4.04188 -4.2945,5.72599 -8.84161,5.72599 -5.55758,0 -9.34684,-3.03141 -9.34684,-8.42058 v -17.51481 c 0,-5.30497 3.78926,-8.42058 9.34684,-8.42058 4.54711,0 6.90488,1.26309 8.6732,4.04188 0.67365,1.01047 0.75785,2.61038 2.52617,2.61038 h 8.08376 c 1.93673,0 2.61038,-0.42103 2.61038,-2.44197 -1.09468,-10.69414 -11.45199,-15.9991 -21.89351,-15.9991 -10.02049,0 -22.56715,5.8102 -22.56715,19.03051 v 19.87257 c 0,13.22031 12.54666,19.03051 22.56715,19.03051 10.44152,0 21.89351,-6.82067 21.89351,-17.68322 z"
               data-paper-data="{&quot;glyphName&quot;:&quot;C&quot;,&quot;glyphIndex&quot;:6,&quot;word&quot;:1}"
               id="element-id-71318"
               style="fill:#f9f9f9" /><path
               d="m 475.57821,298.3295 h -8.33637 c -1.5157,0 -2.44197,0.50523 -2.44197,2.44197 v 19.03051 h -18.77789 v -19.03051 c 0,-1.93673 -0.84206,-2.44197 -2.44197,-2.44197 h -8.33637 c -1.5157,0 -2.44197,0.50523 -2.44197,2.44197 v 50.52348 c 0,1.93673 0.92626,2.44197 2.44197,2.44197 h 8.33637 c 1.59991,0 2.44197,-0.50523 2.44197,-2.44197 v -19.03051 h 18.77789 v 19.03051 c 0,1.93673 0.92626,2.44197 2.44197,2.44197 h 8.33637 c 1.5157,0 2.44197,-0.50523 2.44197,-2.44197 v -50.52348 c 0,-1.93673 -0.92626,-2.44197 -2.44197,-2.44197 z"
               data-paper-data="{&quot;glyphName&quot;:&quot;H&quot;,&quot;glyphIndex&quot;:7,&quot;lastGlyphOfWord&quot;:true,&quot;word&quot;:1}"
               id="element-id-75333"
               style="fill:#f9f9f9" /></g><g
             data-paper-data="{&quot;fillRule&quot;:&quot;nonzero&quot;,&quot;fillRuleOriginal&quot;:&quot;evenodd&quot;,&quot;isIcon&quot;:true,&quot;iconStyle&quot;:&quot;standalone&quot;,&quot;selectedEffects&quot;:{&quot;container&quot;:&quot;circle_simple_filled&quot;,&quot;transformation&quot;:&quot;&quot;,&quot;pattern&quot;:&quot;&quot;},&quot;bounds&quot;:{&quot;x&quot;:199.61896875964857,&quot;y&quot;:115.00000000000003,&quot;width&quot;:150.76206248070287,&quot;height&quot;:150.76206248070284},&quot;widthRatioIconToContainer&quot;:0.5051709506379966,&quot;heightRatioIconToContainer&quot;:0.8629392065838072,&quot;relativeBoundsIconToContainer&quot;:{&quot;top&quot;:0.002277547868550109,&quot;left&quot;:0.005349431399801113},&quot;iconType&quot;:&quot;icon&quot;,&quot;rawIconId&quot;:&quot;1975026&quot;,&quot;combineTerms&quot;:&quot;zeus&quot;,&quot;isDetailed&quot;:false,&quot;blockLetter&quot;:&quot;O&quot;,&quot;suitableAsStandaloneIcon&quot;:true}"
             id="element-id-83474"
             style="fill:#f9f9f9"
             inkscape:export-filename="element-id-83474.svg"
             inkscape:export-xdpi="96"
             inkscape:export-ydpi="96"><path
               d="M 199.61897,190.38103 C 199.61897,148.74924 233.36821,115 275,115 c 41.63179,0 75.38103,33.74924 75.38103,75.38103 0,41.63179 -33.74924,75.38103 -75.38103,75.38103 -41.63179,0 -75.38103,-33.74924 -75.38103,-75.38103 z m 74.44928,-33.87488 c 0.73219,0.19398 1.43408,0.29025 2.10044,0.29025 2.17069,0 3.9615,-1.01958 5.17155,-2.97275 1.885,-0.30924 3.37228,-1.09803 4.38718,-2.3004 0.28075,0.15299 0.53808,0.30066 0.75756,0.42893 0.34788,0.20348 0.72647,0.30066 1.10258,0.30066 0.68822,0 1.36148,-0.32564 1.78248,-0.91498 l -8.74106,18.73847 c -0.45275,0.96963 -0.13804,2.12464 0.74455,2.73102 0.37599,0.25968 0.80843,0.38626 1.24075,0.38626 0.57556,0 1.14864,-0.22767 1.57328,-0.66766 l 12.36417,-12.77736 3.62259,1.09751 c 1.15124,0.34919 2.37924,-0.30443 2.72973,-1.46075 0.35296,-1.15892 -0.30196,-2.38184 -1.46088,-2.73233 l -4.90159,-1.48507 c -0.77526,-0.23912 -1.63729,-0.0154 -2.20777,0.57308 l -4.2135,4.35544 3.58915,-7.6991 0.70865,0.59859 c 0.48098,0.41072 1.12574,0.58974 1.74475,0.49385 0.62422,-0.0947 1.17947,-0.45547 1.51708,-0.98888 l 7.03508,-11.04888 c 0.26306,0.21037 0.57881,0.3631 0.93138,0.43466 0.14844,0.0294 0.29428,0.0435 0.43752,0.0435 1.02075,0 1.93404,-0.71762 2.1439,-1.7575 l 1.3231,-6.54738 c 0.093,-0.40147 0.0695,-0.81772 -0.0602,-1.20037 -0.13804,-0.40716 -0.39628,-0.77624 -0.76173,-1.04893 -0.25187,-0.18876 -0.54849,-0.32596 -0.87725,-0.39271 -0.0331,-0.007 -0.0661,-0.0123 -0.0991,-0.0173 -0.067,-0.0102 -0.13374,-0.0173 -0.20009,-0.0215 -0.85098,-0.0537 -1.62714,0.38009 -2.03292,1.08846 l -10.18815,15.99873 -0.97977,-0.83016 c -0.51935,-0.4413 -1.21265,-0.61016 -1.88539,-0.46809 -0.66519,0.14701 -1.22553,0.59481 -1.51461,1.21382 l -1.2384,2.65505 c 0.23561,-0.92253 -0.15521,-1.92689 -1.01802,-2.43115 -0.28153,-0.16484 -0.61589,-0.3566 -0.98641,-0.55643 1.53906,-2.22716 2.58024,-5.78808 -0.82327,-10.35444 -0.48852,-4.38459 -1.95395,-7.57738 -4.3583,-9.49527 -2.16068,-1.72427 -4.99904,-2.38412 -8.44951,-1.96662 -0.66662,-0.0817 -1.31088,-0.12268 -1.93222,-0.12323 h -0.0252 c -2.56672,0.002 -4.74027,0.69654 -6.4789,2.07065 -2.41918,1.91022 -3.91245,5.10629 -4.44429,9.50595 -3.42211,4.58398 -2.35192,8.14295 -0.77642,10.36803 -3.16842,1.69089 -6.08458,3.98387 -8.6924,6.83694 -0.17941,0.18122 -0.33019,0.39706 -0.44142,0.64347 -3.66475,8.10852 -6.08614,14.54124 -7.40234,19.66426 -0.0487,0.1893 -0.0717,0.38379 -0.0678,0.57816 0.19697,12.94103 2.2883,22.10477 6.57986,28.84075 0.33123,0.52195 0.86724,0.87751 1.4761,0.98237 0.67287,0.11514 1.89957,0.32498 3.25923,0.32498 2.00195,0 4.29026,-0.45547 5.51956,-2.34086 1.91479,-2.93945 -0.18045,-7.2016 -2.2373,-10.44548 1.24595,-4.93113 -0.34788,-9.10364 -1.42614,-11.92665 -0.0563,-0.14584 -0.11137,-0.28921 -0.16509,-0.43115 0.36987,-0.18682 0.72621,-0.38887 1.06824,-0.60522 0.1837,0.94074 0.97496,1.68296 1.9775,1.76153 0.0588,0.005 0.11761,0.008 0.17511,0.008 1.09009,0 2.02082,-0.80934 2.16783,-1.8954 4.77565,19.3502 14.86649,33.89339 30.13354,43.37393 l 0.15182,0.98264 c 0.83653,5.41067 1.67814,10.87012 2.5096,16.41387 -2.61693,1.35264 -4.66104,1.49028 -6.27218,1.07214 -0.14675,-0.0619 -0.29793,-0.10668 -0.45079,-0.13478 -1.24582,-0.4223 -2.21337,-1.17167 -2.97809,-1.89163 -0.87738,-0.82118 -2.26397,-0.79048 -3.09543,0.0947 -1.47649,1.56392 -3.2565,2.45158 -5.51006,2.73012 -0.079,0.005 -0.15716,0.0135 -0.23418,0.0265 -0.66207,0.0686 -1.36434,0.0863 -2.11085,0.0546 -0.12711,-0.0135 -0.25838,-0.0164 -0.39303,-0.008 l -0.004,1.3e-4 -0.0125,7.8e-4 c -0.79712,0.0403 -1.54336,0.0271 -2.24303,-0.0414 -0.11826,-0.0239 -0.23964,-0.038 -0.36297,-0.0411 -2.2308,-0.28687 -3.97321,-1.16594 -5.37489,-2.69903 -0.39264,-0.42985 -0.9414,-0.68562 -1.52345,-0.71125 -0.61264,0 -1.15124,0.18422 -1.57849,0.58076 -2.84981,2.62226 -5.96202,2.94712 -9.72395,0.9747 2.424,-16.6647 3.00592,-19.74739 3.22983,-20.92673 0.16627,-0.88259 0.17004,-0.88259 0.4975,-3.88344 l 0.67287,-6.09381 c 0.13439,-1.2025 -0.73167,-2.28713 -1.93404,-2.42022 -1.21772,-0.15859 -2.28583,0.73167 -2.42009,1.93404 l -0.67417,6.10409 c -0.29923,2.74 -0.29546,2.74 -0.44767,3.54583 -0.25578,1.35589 -0.85566,4.53328 -3.47285,22.57938 -0.12411,0.85696 0.26865,1.70897 1.00163,2.16939 1.72927,1.08776 3.3473,1.79419 4.8532,2.2014 -1.9719,2.50388 -1.82515,4.59859 -1.14253,6.09771 1.25363,2.75015 4.86594,4.07273 8.56009,4.07273 1.40831,0 2.82808,-0.1919 4.13284,-0.57048 4.41242,-1.28108 7.12341,-4.42153 7.49692,-8.47201 0.19228,-0.004 0.3864,-0.0108 0.58206,-0.0204 0.17485,0.009 0.34815,0.0151 0.52014,0.0191 0.39004,4.06389 3.12301,7.20941 7.55391,8.48359 1.29448,0.37091 2.69903,0.5602 4.09329,0.5602 3.69922,0 7.32168,-1.32778 8.57531,-4.08041 0.68132,-1.49665 0.82964,-3.59098 -1.13576,-6.09511 1.5055,-0.40721 3.12717,-1.11013 4.86569,-2.18865 0.74455,-0.46055 1.1411,-1.32011 1.01308,-2.18475 -0.90301,-6.06311 -1.82151,-12.02136 -2.7348,-17.92081 -1.29174,-8.36767 -2.54473,-16.4797 -3.7026,-24.58263 0.002,-0.22078 -0.0297,-0.43947 -0.0924,-0.64867 -0.91004,-6.39604 -1.75971,-12.7905 -2.52144,-19.30453 -0.13557,-1.20107 -1.24322,-2.05425 -2.42777,-1.9213 -1.20237,0.14077 -2.06193,1.228 -1.92377,2.43037 0.59988,5.12744 1.25311,10.1767 1.94666,15.20787 -9.16088,-6.23549 -17.37062,-17.80307 -24.44889,-34.46895 -0.11006,-0.45469 -0.36441,-0.86854 -0.73466,-1.1744 -1.92637,-1.58863 -3.81449,-2.82938 -5.64484,-3.7108 1.61166,-1.42887 3.32779,-2.63424 5.13525,-3.60607 1.00254,1.19951 2.46927,1.98738 4.32655,2.29754 1.21265,1.9507 3.02128,2.96884 5.22137,2.96768 0.66831,0 1.37358,-0.0935 2.10929,-0.28388 z m 3.86185,-5.60022 c -0.58714,1.36734 -1.20757,1.90594 -3.14539,1.24075 -0.0651,-0.0221 -0.13049,-0.041 -0.19593,-0.0568 -0.34645,-0.084 -0.71684,-0.0846 -1.08047,0.014 -0.0523,0.014 -0.10395,0.03 -0.15495,0.0479 -1.99168,0.65713 -2.62018,0.11839 -3.20562,-1.24582 -0.33006,-0.77135 -1.07318,-1.2855 -1.91232,-1.32518 -1.84662,-0.0855 -2.52118,-0.66064 -2.79035,-1.41521 -0.0198,-0.0873 -0.0451,-0.17407 -0.0762,-0.26006 -0.0528,-0.22208 -0.0804,-0.45574 -0.0996,-0.69369 -0.0423,-0.51805 -0.26735,-1.0054 -0.63449,-1.37254 -1.29916,-1.29916 -2.27113,-3.06695 0.35907,-6.33345 0.27139,-0.32603 0.45131,-0.73402 0.49541,-1.18791 0.33891,-3.49973 1.30463,-5.89939 2.86776,-7.13377 1.27405,-1.00542 3.04691,-1.33415 5.41978,-1.00669 0.0996,0.0131 0.19892,0.0193 0.29727,0.0188 0.0995,5.4e-4 0.20009,-0.006 0.30131,-0.0188 2.38952,-0.33002 4.156,0.004 5.41978,1.0118 1.54622,1.2344 2.48475,3.62155 2.79009,7.09638 0.0345,0.4237 0.19228,0.84184 0.47942,1.19753 2.65284,3.28109 1.70637,5.06539 0.42972,6.37782 -0.35556,0.36584 -0.57048,0.84291 -0.61133,1.35081 -0.0112,0.13686 -0.0256,0.2736 -0.0468,0.40838 -0.0418,0.0787 -0.0792,0.16093 -0.11189,0.24653 -0.067,0.17394 -0.11019,0.351 -0.13127,0.52794 -0.33813,0.62929 -1.075,1.10805 -2.75184,1.18611 -0.83653,0.0397 -1.57978,0.55383 -1.91101,1.32518 z m -36.6896,15.61832 c 0.29038,0.9414 1.15631,1.54518 2.09133,1.54518 0.21493,0 0.43245,-0.032 0.64724,-0.0985 1.15644,-0.35686 1.80369,-1.58356 1.44683,-2.73871 l -2.62994,-8.52028 2.25253,-0.23925 c 0.58583,-0.0614 1.12054,-0.35686 1.48638,-0.81741 0.36454,-0.46042 0.5295,-1.04885 0.45664,-1.63208 l -1.0015,-8.04581 2.06193,4.16484 c 0.53848,1.08346 1.85468,1.52475 2.93554,0.99135 1.08476,-0.53718 1.52736,-1.85091 0.99135,-2.93567 l -7.79628,-15.74233 c -0.47329,-0.95807 -1.56183,-1.43007 -2.59416,-1.12563 -1.02322,0.307 -1.67567,1.30855 -1.54257,2.36896 l 2.32291,18.6524 -2.68237,0.28401 c -0.65232,0.0691 -1.23828,0.42594 -1.59891,0.9721 -0.36077,0.54745 -0.45664,1.2267 -0.26358,1.85221 z m 63.64106,-9.4925 c 0.29415,0.13296 0.59859,0.19567 0.90054,0.19567 0.83653,0 1.63208,-0.47838 1.99792,-1.2881 0.49892,-1.10258 0.0103,-2.39966 -1.09231,-2.89846 -0.85449,-0.3864 -1.36616,-0.82508 -1.51968,-1.30476 -0.20725,-0.64216 0.0794,-1.69362 0.80583,-2.96 0.2226,-0.38756 0.40942,-0.64724 0.55006,-0.81858 0.28869,0.36532 0.76875,1.13121 1.37644,2.6773 2.75366,7.29489 1.94016,15.51919 -2.41515,24.46606 -4.08549,-0.20334 -7.96138,-1.64627 -11.54038,-4.29924 -0.96949,-0.7188 -2.34333,-0.51545 -3.06473,0.45535 -0.72152,0.97223 -0.51675,2.34476 0.45535,3.06486 4.64582,3.44215 9.7393,5.18443 15.1527,5.18443 0.12281,0 0.24563,0 0.36584,-0.003 0.80843,-0.0114 1.54257,-0.46562 1.91362,-1.18194 5.47988,-10.5636 6.56503,-20.39958 3.23256,-29.23339 -0.006,-0.017 -0.0128,-0.0342 -0.0194,-0.0513 -1.0028,-2.54928 -2.49945,-5.499 -5.1882,-5.69728 -1.73707,-0.12659 -3.30281,0.96442 -4.61511,3.25415 -1.39179,2.41879 -1.78833,4.60237 -1.17934,6.48775 0.54993,1.7039 1.85728,3.03415 3.88344,3.95005 z m -45.63075,4.48723 -0.8675,10.97693 c -0.9077,2.8437 -3.47298,4.04593 -4.94622,4.51338 -1.09751,0.34788 -1.73838,1.48767 -1.46595,2.60692 0.20985,0.85696 0.55643,1.76517 0.92357,2.72582 l 0.001,0.004 c 1.04222,2.72908 2.33878,6.12386 1.0538,10.02721 -0.20972,0.63709 -0.11501,1.33676 0.2559,1.8958 3.38074,5.09479 2.78216,6.47617 2.77565,6.48906 -0.006,0.008 -0.5909,0.58583 -3.40116,0.23535 -3.41665,-5.85717 -5.17922,-14.19205 -5.37879,-25.42163 1.17115,-4.4547 3.23191,-9.99794 6.2835,-16.89042 1.49977,0.60405 3.09426,1.55338 4.76577,2.83784 z m 41.04881,6.0285 c 0.34541,0.20348 0.7266,0.29935 1.10011,0.29935 0.7547,0 1.48885,-0.38887 1.89567,-1.08724 0.60886,-1.04508 0.25578,-2.38692 -0.79048,-2.99578 -0.57048,-0.33383 -0.71385,-0.40929 -1.11547,-0.62422 l -1.24075,-0.67027 c -1.06173,-0.57946 -2.39199,-0.18552 -2.97275,0.87491 -0.57816,1.06173 -0.18669,2.39329 0.87491,2.97275 l 1.27926,0.68939 c 0.34788,0.18552 0.47069,0.252 0.96949,0.54108 z m -11.40405,32.55702 c 0.81026,5.64198 1.66526,11.28917 2.54654,17.02625 -13.59503,-9.65656 -22.30721,-24.16814 -26.00929,-43.29249 6.91616,12.70204 14.77607,21.50931 23.46275,26.26623 z m 20.74434,15.32768 c 0.39654,0.3069 0.86984,0.45782 1.34314,0.45782 0.5321,0 1.06421,-0.19437 1.48117,-0.57556 0.788,-0.724 0.93892,-1.90841 0.35816,-2.80388 l -10.4045,-16.07874 2.57621,-2.24237 c 0.47329,-0.41189 0.74703,-1.0041 0.7521,-1.62962 0.008,-0.62551 -0.2533,-1.22423 -0.71632,-1.64496 l -8.91044,-8.09316 c -0.89547,-0.81221 -2.28206,-0.74963 -3.09557,0.14962 -0.8135,0.89547 -0.74703,2.28076 0.14844,3.09426 l 7.08894,6.43662 -2.15157,1.87277 c -0.82365,0.71632 -0.99252,1.92637 -0.40162,2.84226 l 4.4387,6.85866 -3.70703,-2.87544 c -0.95674,-0.74443 -2.33566,-0.56541 -3.07501,0.38887 -0.73935,0.95674 -0.56541,2.33306 0.38887,3.07501 z m -25.75924,28.48377 c 0.90301,0.63553 1.92949,1.1904 3.08021,1.57497 3.68569,2.4478 4.04801,3.9909 3.86796,4.38848 -0.46302,1.01308 -3.86301,2.15664 -7.46752,1.12301 -1.96397,-0.5645 -4.16758,-1.84038 -4.41411,-4.71659 1.83907,-0.45183 3.48677,-1.24322 4.93346,-2.36987 z m -26.59083,5.96853 c -0.2507,-0.55162 0.6116,-2.23093 3.95356,-4.42882 1.11429,-0.38236 2.11501,-0.92188 3.00111,-1.53712 1.41989,1.12366 3.05497,1.91297 4.89573,2.36467 -0.22741,2.87101 -2.41489,4.1465 -4.36611,4.71152 -3.62259,1.05666 -7.01999,-0.0921 -7.4843,-1.11026 z"
               data-paper-data="{&quot;isPathIcon&quot;:true}"
               id="element-id-40803"
               style="fill:#f9f9f9" /></g></g></g></g></g></svg>
