<?xml version="1.0" encoding="UTF-8" standalone="no"?>
<!-- Created with Inkscape (http://www.inkscape.org/) -->

<svg
   width="70mm"
   height="70.000008mm"
   viewBox="0 0 70 70.000008"
   version="1.1"
   id="svg3661"
   xml:space="preserve"
   xmlns:inkscape="http://www.inkscape.org/namespaces/inkscape"
   xmlns:sodipodi="http://sodipodi.sourceforge.net/DTD/sodipodi-0.dtd"
   xmlns="http://www.w3.org/2000/svg"
   xmlns:svg="http://www.w3.org/2000/svg"><sodipodi:namedview
     id="namedview3663"
     pagecolor="#ffffff"
     bordercolor="#000000"
     borderopacity="0.25"
     inkscape:showpageshadow="2"
     inkscape:pageopacity="0.0"
     inkscape:pagecheckerboard="0"
     inkscape:deskcolor="#d1d1d1"
     inkscape:document-units="mm"
     showgrid="false" /><defs
     id="defs3658" /><g
     inkscape:label="Capa 1"
     inkscape:groupmode="layer"
     id="layer1"
     transform="translate(-11.625513,-16.066038)"><g
       inkscape:label="Capa 1"
       id="layer1-0"
       transform="translate(-10.914827,0.9176049)"><circle
         style="fill:#000000;fill-rule:evenodd;stroke-width:0.272285"
         id="path4341"
         cx="57.54034"
         cy="50.148434"
         r="35"
         inkscape:export-filename="asdasdasd.png"
         inkscape:export-xdpi="96"
         inkscape:export-ydpi="96" /><path
         style="fill:#ffffff;fill-rule:evenodd;stroke-width:0.0409301"
         d="m 40.993498,73.074563 c -1.634387,-0.178671 -3.078259,-1.271053 -3.646527,-2.758833 -0.213665,-0.55939 -0.262275,-0.838224 -0.261053,-1.497385 9.27e-4,-0.51967 0.01597,-0.653644 0.111939,-0.999277 0.208475,-0.7508 0.718611,-1.57961 1.267034,-2.058523 0.556959,-0.486369 1.244613,-0.845926 1.972646,-1.031441 0.360175,-0.09178 0.489959,-0.104321 1.079366,-0.104321 0.591789,0 0.718819,0.01245 1.088689,0.106143 1.541153,0.39066 2.737942,1.505854 3.179913,2.963111 0.297245,0.980076 0.210342,2.005391 -0.248688,2.934046 -0.683544,1.382866 -2.016798,2.29048 -3.601189,2.45151 -0.426364,0.04332 -0.503548,0.04292 -0.942134,-0.005 z m -0.271365,-0.705448 0.689709,-0.27006 -0.0011,-0.680148 -0.0011,-0.680146 -0.490613,-0.338141 c -0.270014,-0.185979 -0.685587,-0.472846 -0.92367,-0.637487 l -0.432882,-0.299347 -0.63487,0.195691 c -0.349181,0.107625 -0.651275,0.208527 -0.671323,0.224218 -0.02004,0.01569 -0.06086,0.331522 -0.09066,0.701852 l -0.05421,0.673325 0.103706,0.130573 c 0.157959,0.198899 0.496038,0.511643 0.755161,0.698576 0.210245,0.15167 0.950174,0.54678 1.029774,0.54988 0.01782,6.94e-4 0.342772,-0.120258 0.722111,-0.268793 z m 2.720916,0.0801 c 0.431275,-0.205194 0.752782,-0.437705 1.143913,-0.827265 0.298874,-0.297675 0.345295,-0.362284 0.326952,-0.455029 -0.01176,-0.05945 -0.0324,-0.288131 -0.04589,-0.50818 -0.01347,-0.220046 -0.03505,-0.484628 -0.04793,-0.587959 l -0.02342,-0.187872 -0.649159,-0.206726 c -0.45034,-0.143416 -0.671765,-0.196161 -0.722949,-0.172212 -0.04057,0.01898 -0.462432,0.304581 -0.937447,0.634651 l -0.863665,0.600132 -9.26e-4,0.681701 -9.27e-4,0.6817 0.680431,0.266018 c 0.417679,0.163295 0.712768,0.257229 0.764174,0.243253 0.04606,-0.01258 0.215646,-0.08551 0.376855,-0.162217 z m -4.564809,-2.983536 0.627399,-0.207241 0.348652,-1.030554 0.348653,-1.030555 -0.40844,-0.539787 c -0.224642,-0.296881 -0.428331,-0.539367 -0.452644,-0.538857 -0.02431,4.75e-4 -0.298581,0.06247 -0.609484,0.137703 -0.665871,0.161114 -0.680477,0.172763 -1.005121,0.801573 -0.229069,0.443688 -0.353472,0.83963 -0.414031,1.317758 -0.04586,0.362126 -0.0999,0.258313 0.477017,0.916526 0.184238,0.210203 0.363244,0.381846 0.397789,0.381431 0.03454,-4.76e-4 0.34514,-0.09402 0.69021,-0.207997 z m 6.438209,-0.259727 c 0.387147,-0.443878 0.407879,-0.4771 0.408259,-0.654148 9.26e-4,-0.440945 -0.190179,-1.088179 -0.475575,-1.610521 -0.277922,-0.508661 -0.327454,-0.543126 -1.005982,-0.700021 l -0.581694,-0.134505 -0.07657,0.09552 c -0.04212,0.05254 -0.229988,0.298473 -0.4175,0.546526 l -0.340931,0.451006 0.350169,1.035184 0.350173,1.035184 0.628089,0.200337 c 0.34545,0.11018 0.656354,0.200953 0.690899,0.201703 0.03454,8.23e-4 0.246345,-0.20907 0.470667,-0.466264 z m -2.272138,-2.631165 c 0.210595,-0.276752 0.393081,-0.528537 0.405529,-0.559528 0.01243,-0.03099 -0.115894,-0.271715 -0.285192,-0.534947 L 42.856831,65.00171 42.479976,64.91244 c -0.619374,-0.146698 -1.512083,-0.125069 -2.158967,0.0523 -0.131021,0.03592 -0.185552,0.09786 -0.450131,0.511269 -0.165579,0.258713 -0.30105,0.488583 -0.30105,0.510818 0,0.03434 0.32754,0.485009 0.698521,0.961096 l 0.101328,0.130035 h 1.145869 1.145871 z"
         id="path4311" /><path
         style="fill:#ffffff;fill-opacity:1;fill-rule:evenodd;stroke-width:0.203616"
         d="m 63.566894,72.754347 c 0.523259,-0.373694 1.409668,-0.883221 1.969767,-1.132281 1.807833,-0.803886 2.596553,-2.669954 1.369064,-3.239124 -0.417453,-0.193567 -0.689638,-0.168161 -1.534211,0.143193 -1.837278,0.677329 -1.954027,0.496194 -1.216068,-1.886681 0.679549,-2.194309 0.743111,-4.046082 0.202764,-5.906949 -0.251586,-0.866444 -0.507436,-1.822457 -0.568533,-2.124474 -0.114772,-0.567227 0.275125,-2.222519 0.622656,-2.643506 0.108397,-0.131356 0.20101,-0.840272 0.205695,-1.575354 0.0069,-1.03581 -0.116148,-1.592524 -0.545645,-2.47441 -0.304799,-0.625844 -0.554174,-1.301751 -0.554174,-1.502012 0,-0.200259 -0.142112,-0.474424 -0.315808,-0.609253 -0.430689,-0.334313 -0.398646,-1.109348 0.05266,-1.272971 0.350873,-0.127217 0.350873,-0.145698 9.1e-5,-0.387329 -0.432785,-0.298106 -0.457338,-0.66051 -0.187741,-2.770379 0.248019,-1.940949 0.603724,-3.214237 1.814445,-6.495061 1.186133,-3.214194 1.404517,-3.498342 2.856084,-3.716357 0.922406,-0.138526 1.424419,-0.08632 2.819962,0.293371 1.505007,0.409459 2.135316,0.462135 5.551011,0.463918 4.887545,0.0026 5.726396,-0.05775 5.726396,-0.411658 0,-0.151551 0.07101,-0.275617 0.157911,-0.275702 0.266806,-2.61e-4 1.736955,-1.300698 1.736955,-1.53645 0,-0.647471 -2.225285,-0.866865 -2.945167,-0.290365 -0.232915,0.186528 -0.423484,0.463783 -0.423484,0.616125 0,0.387354 -3.850736,0.124215 -5.572612,-0.380796 -0.698483,-0.204859 -1.65227,-0.373614 -2.119526,-0.375014 -1.451171,-0.0044 -3.656568,-0.822584 -5.215846,-1.93518 -1.095153,-0.781425 -1.549401,-0.99564 -1.92453,-0.907578 -0.270076,0.06339 -0.554334,0.01946 -0.631697,-0.0976 -0.0774,-0.117088 -0.366342,-0.212875 -0.642164,-0.212875 -0.275831,0 -0.553967,-0.07938 -0.618086,-0.176426 -0.164489,-0.248934 0.453794,-1.30047 0.764656,-1.30047 0.393059,0 1.321838,-1.36519 0.974396,-1.432234 -0.204201,-0.0394 -0.259521,-0.372388 -0.20673,-1.244381 0.08333,-1.377529 -0.180585,-1.781929 -1.545864,-2.368308 -1.682331,-0.722546 -3.419526,-0.20295 -3.777144,1.129752 -0.07625,0.284164 -0.282913,0.651586 -0.45922,0.816491 -0.190695,0.178354 -0.302507,0.587568 -0.275982,1.010036 0.02451,0.390617 0.03134,1.074676 0.01515,1.520133 l -0.0294,0.80992 -1.842235,0.719117 c -1.013221,0.395514 -2.079084,0.719261 -2.368583,0.719442 -0.544872,2.82e-4 -0.902617,0.183764 -3.704204,1.899267 -3.317379,2.031338 -4.179871,2.501563 -6.899374,3.761435 -1.521172,0.704722 -3.041261,1.496281 -3.377965,1.759024 -0.336701,0.26274 -1.378877,0.835556 -2.315942,1.272918 -0.937077,0.437367 -1.893256,0.952098 -2.124853,1.143848 -0.231592,0.191751 -0.800047,0.45937 -1.263244,0.594709 -1.026321,0.299878 -1.510002,0.676579 -1.882157,1.465859 -0.510162,1.081997 -0.560693,1.352968 -0.283014,1.517757 0.397951,0.236166 0.586114,0.201312 0.586114,-0.108581 0,-0.201221 0.317575,-0.278561 1.183568,-0.288235 1.133116,-0.01271 1.23409,-0.05783 2.368582,-1.05942 1.718945,-1.517578 3.04995,-2.235191 5.927189,-3.195659 1.405028,-0.469017 2.765485,-1.038059 3.023229,-1.264532 0.257741,-0.226471 1.079302,-0.641904 1.825685,-0.923184 0.746372,-0.28128 1.447056,-0.592264 1.557067,-0.691072 0.109988,-0.09879 0.394233,-0.182467 0.631618,-0.18591 0.237383,-0.0036 0.615523,-0.136371 0.840299,-0.29538 0.224777,-0.159009 0.814559,-0.289113 1.31062,-0.289113 0.901672,0 0.901889,1.78e-4 0.782634,0.639985 -0.06566,0.351992 -0.260308,1.060755 -0.432628,1.575026 -0.336327,1.003675 -0.229745,1.995137 0.271774,2.528312 0.254884,0.270968 0.235298,0.362411 -0.146951,0.68596 -0.242581,0.205324 -0.704207,0.73802 -1.025852,1.183774 -0.539206,0.747258 -0.675903,1.134616 -0.959793,2.71977 -0.137735,0.769101 -0.378164,1.000549 -1.311331,1.262337 -1.280014,0.359086 -2.211949,1.209428 -2.267758,2.069199 -0.03158,0.48739 -0.222737,0.882939 -0.573438,1.186926 -0.289296,0.250765 -0.64801,0.803504 -0.797154,1.228313 -0.149131,0.424809 -0.498693,1.110653 -0.776785,1.524095 -0.447671,0.665545 -0.575784,0.737295 -1.117727,0.625968 -0.424204,-0.08715 -1.147763,0.05886 -2.356992,0.475601 -0.959691,0.330737 -2.167801,0.700016 -2.684689,0.820616 -0.603564,0.140823 -1.225014,0.486026 -1.736966,0.964864 -0.768121,0.718425 -0.940679,1.1976 -0.669371,1.858868 0.163418,0.398292 1.547639,0.403607 2.714509,0.01035 1.18904,-0.400647 1.220137,-0.38489 1.079677,0.547209 -0.110682,0.734469 -0.05141,0.913271 0.484081,1.460769 0.817844,0.836175 1.295187,1.049948 2.344533,1.049948 0.701619,0 1.039805,-0.132327 1.645536,-0.643864 0.419322,-0.354125 0.953558,-0.775039 1.187192,-0.935366 0.233645,-0.160327 0.930122,-0.891322 1.547732,-1.624444 1.092421,-1.296714 1.744934,-1.813121 2.297967,-1.818632 0.343485,-0.0036 2.452526,-1.382026 3.352887,-2.191664 0.968958,-0.871324 1.8827,-0.958785 2.637851,-0.252497 0.757713,0.708691 1.629642,2.459812 1.632289,3.278186 0.0023,0.507538 0.104869,0.660363 0.51016,0.755509 0.279584,0.06563 0.560672,0.310871 0.624995,0.545283 0.0643,0.2343 0.446922,0.892494 0.850296,1.462656 0.858745,1.213804 1.154753,2.512595 1.020383,4.477081 -0.06726,0.983745 0.0057,1.632163 0.256669,2.26457 0.858481,2.167578 1.033753,4.781348 0.433891,6.470525 -0.350564,0.987141 -0.350484,1.054223 0.0023,1.418118 0.551721,0.5702 1.384534,0.469422 2.458408,-0.297487 z"
         id="path6283" /></g></g></svg>
