<?xml version="1.0" encoding="UTF-8" standalone="no"?>
<!-- Created with Inkscape (http://www.inkscape.org/) -->

<svg
   width="69.999992mm"
   height="70mm"
   viewBox="0 0 69.999992 70"
   version="1.1"
   id="svg3661"
   xml:space="preserve"
   xmlns:inkscape="http://www.inkscape.org/namespaces/inkscape"
   xmlns:sodipodi="http://sodipodi.sourceforge.net/DTD/sodipodi-0.dtd"
   xmlns="http://www.w3.org/2000/svg"
   xmlns:svg="http://www.w3.org/2000/svg"><sodipodi:namedview
     id="namedview3663"
     pagecolor="#ffffff"
     bordercolor="#000000"
     borderopacity="0.25"
     inkscape:showpageshadow="2"
     inkscape:pageopacity="0.0"
     inkscape:pagecheckerboard="0"
     inkscape:deskcolor="#d1d1d1"
     inkscape:document-units="mm"
     showgrid="false" /><defs
     id="defs3658" /><g
     inkscape:label="Capa 1"
     inkscape:groupmode="layer"
     id="layer1"
     transform="translate(-22.540341,-15.148433)"><circle
       style="fill:#000000;fill-rule:evenodd;stroke-width:0.272285"
       id="path4341"
       cx="57.54034"
       cy="50.148434"
       r="35"
       inkscape:export-filename="asdasdasd.png"
       inkscape:export-xdpi="96"
       inkscape:export-ydpi="96" /><path
       style="fill:#ffffff;fill-rule:evenodd;stroke-width:0.030929"
       d="m 47.176804,58.919567 c -1.223103,-0.13633 -2.303633,-0.969844 -2.7289,-2.105055 -0.159897,-0.426828 -0.196275,-0.639585 -0.19536,-1.142541 7.12e-4,-0.39652 0.01195,-0.498745 0.08377,-0.762472 0.156013,-0.572878 0.537777,-1.205279 0.948192,-1.570701 0.416804,-0.371112 0.931414,-0.645462 1.476241,-0.787014 0.26954,-0.07003 0.366664,-0.0796 0.80775,-0.0796 0.442869,0 0.537933,0.0095 0.814727,0.08099 1.153331,0.298083 2.048955,1.149002 2.379707,2.260924 0.222445,0.747821 0.15741,1.530161 -0.186107,2.238747 -0.511535,1.05516 -1.509283,1.74769 -2.694971,1.87056 -0.319072,0.03306 -0.376834,0.03275 -0.705052,-0.0038 z m -0.203077,-0.538274 0.516147,-0.206061 -8.64e-4,-0.518969 -8.63e-4,-0.518968 -0.367153,-0.25801 c -0.202004,-0.141906 -0.513,-0.360793 -0.691171,-0.486418 l -0.32395,-0.228408 -0.475109,0.149316 c -0.261311,0.08212 -0.487385,0.159112 -0.502388,0.171084 -0.015,0.01197 -0.04554,0.252959 -0.06785,0.53553 l -0.04057,0.513763 0.07761,0.09963 c 0.118209,0.151765 0.371212,0.390396 0.565129,0.53303 0.157338,0.115728 0.711068,0.417206 0.770637,0.419572 0.01334,5.29e-4 0.256516,-0.09176 0.540396,-0.205096 z m 2.036213,0.06112 c 0.322747,-0.156568 0.563349,-0.333979 0.856054,-0.631223 0.223664,-0.227133 0.258404,-0.276431 0.244676,-0.347198 -0.0088,-0.04536 -0.02425,-0.219851 -0.03434,-0.387753 -0.01008,-0.167901 -0.02623,-0.369783 -0.03587,-0.448627 l -0.01753,-0.143351 -0.485802,-0.157737 c -0.337009,-0.109425 -0.502714,-0.149671 -0.541018,-0.131397 -0.03036,0.01449 -0.346064,0.232402 -0.701544,0.484253 l -0.646329,0.457915 -7.12e-4,0.520154 -7.13e-4,0.520154 0.509204,0.202978 c 0.312573,0.124598 0.533405,0.196271 0.571875,0.185608 0.03447,-0.0096 0.161379,-0.06525 0.282021,-0.123776 z m -3.416102,-2.276508 0.469518,-0.158131 0.260916,-0.786337 0.260916,-0.786338 -0.305658,-0.41187 c -0.168112,-0.226528 -0.320544,-0.41155 -0.338739,-0.411161 -0.01819,3.63e-4 -0.223445,0.04767 -0.456111,0.105071 -0.498308,0.122934 -0.509239,0.131822 -0.752188,0.611619 -0.171425,0.338545 -0.264523,0.640658 -0.309843,1.00548 -0.03432,0.276311 -0.07476,0.1971 0.356979,0.699331 0.137876,0.160391 0.271836,0.291359 0.297688,0.291042 0.02585,-3.63e-4 0.258287,-0.07174 0.516522,-0.158706 z m 4.818072,-0.198179 c 0.289723,-0.338689 0.305239,-0.364038 0.305523,-0.49913 7.12e-4,-0.336452 -0.142322,-0.830307 -0.3559,-1.228866 -0.207984,-0.388121 -0.245051,-0.414419 -0.752832,-0.534133 l -0.435314,-0.10263 -0.0573,0.07288 c -0.03152,0.04009 -0.172113,0.227742 -0.312439,0.417012 l -0.255137,0.344129 0.262051,0.789869 0.262054,0.78987 0.470034,0.152863 c 0.258519,0.08407 0.491186,0.153332 0.517038,0.153904 0.02585,6.28e-4 0.184354,-0.159526 0.352227,-0.355771 z m -1.700368,-2.007644 c 0.1576,-0.211169 0.294165,-0.403287 0.30348,-0.426933 0.0093,-0.02365 -0.08673,-0.207325 -0.213425,-0.408177 l -0.230357,-0.365185 -0.282021,-0.06811 c -0.463512,-0.111933 -1.131577,-0.09543 -1.615676,0.03991 -0.09805,0.02741 -0.138859,0.07467 -0.336858,0.39011 -0.123912,0.197404 -0.225293,0.3728 -0.225293,0.389766 0,0.02621 0.245117,0.370074 0.522742,0.733339 l 0.07583,0.09922 h 0.857518 0.857519 z"
       id="path4311" /><path
       style="fill:#ffffff;fill-rule:evenodd;stroke-width:0.349042"
       d="m 141.7693,262.07251 c -0.43756,-0.43757 -0.21174,-5.5229 0.50117,-11.2857 0.39185,-3.16755 0.79892,-7.13355 0.9046,-8.81331 l 0.19214,-3.05412 h -1.06922 c -0.58808,0 -1.16189,-0.14994 -1.27515,-0.33319 -0.28102,-0.4547 1.94827,-3.49508 3.28943,-4.48622 1.57139,-1.16129 3.26184,-1.67613 8.11084,-2.47023 6.69173,-1.09588 11.58299,-1.13508 12.85749,-0.10304 0.70995,0.57488 0.74564,0.74912 0.37538,1.83247 -0.22505,0.65845 -0.78233,1.65345 -1.2384,2.2111 -0.82017,1.00286 -0.84711,1.00891 -2.4699,0.55456 -1.40687,-0.3939 -2.43705,-0.36737 -7.22884,0.18613 -3.75352,0.43358 -5.80623,0.82448 -6.25239,1.19066 -0.48464,0.39775 -0.72416,1.19722 -0.88584,2.95673 l -0.2216,2.41158 2.06265,-0.22476 c 1.13446,-0.12361 3.63334,-0.68054 5.55307,-1.23762 5.77258,-1.67511 11.01562,-2.12827 11.73261,-1.01406 0.11782,0.1831 0.58162,-0.26156 1.03066,-0.98813 1.17564,-1.90222 2.76236,-3.62736 3.33631,-3.62736 0.98447,0 1.27804,1.49944 0.68474,3.4973 -1.43039,4.81665 0.26607,14.77714 3.01524,17.70349 0.55031,0.58578 1.13387,0.78887 2.26681,0.78887 1.9608,0 3.0017,-0.99535 3.75665,-3.59227 0.66091,-2.27347 0.45286,-7.20246 -0.39987,-9.47358 -1.05314,-2.80487 -1.01179,-3.19047 0.56635,-5.2807 0.80411,-1.06503 1.8615,-2.11844 2.34977,-2.34091 0.77423,-0.35276 0.9713,-0.30132 1.54099,0.40222 0.35928,0.44368 0.8369,1.41972 1.06138,2.16896 0.22447,0.74924 0.50108,1.36166 0.61467,1.36094 0.11359,-7.3e-4 0.49641,-0.70619 0.8507,-1.56772 1.41548,-3.44199 4.25326,-4.34002 11.62358,-3.67835 5.64164,0.50648 7.30829,0.87415 8.8832,1.95967 1.94644,1.3416 2.25384,2.17603 1.56529,4.24905 -0.31617,0.9519 -0.95876,2.09139 -1.42798,2.5322 l -0.85312,0.80146 -2.53864,-0.72933 c -3.55557,-1.02149 -5.98249,-1.28868 -6.45079,-0.71019 -0.47618,0.58824 -0.746,2.63718 -1.29321,9.82032 -0.40441,5.30869 -0.51952,5.91176 -1.37515,7.20471 -0.51359,0.77609 -1.09253,1.41107 -1.28653,1.41107 -1.18734,0 -1.57091,-4.97093 -0.86243,-11.17679 0.31825,-2.7877 0.52774,-5.69347 0.46555,-6.45728 l -0.11309,-1.38873 -1.74521,0.0223 c -0.95987,0.0122 -2.49129,0.13967 -3.40317,0.28317 l -1.65795,0.26091 v 1.46906 c 0,1.86698 -1.1545,6.05469 -2.36527,8.57951 -1.16966,2.4391 -5.23455,6.5962 -7.51765,7.6882 -3.02079,1.44482 -5.06549,0.51945 -6.68928,-3.02736 -0.47153,-1.02998 -1.16677,-2.30725 -1.54497,-2.83838 -1.11249,-1.56233 -2.94197,-8.95785 -2.70693,-10.94245 0.10875,-0.91819 0.13557,-1.66943 0.0596,-1.66943 -0.076,0 -0.66594,0.31142 -1.31106,0.69204 -0.64511,0.38063 -2.42111,0.86177 -3.94667,1.06922 -5.02591,0.6834 -13.61282,3.20627 -14.08,4.13675 -0.15443,0.3076 -0.47554,2.20849 -0.71356,4.22421 -0.59741,5.05923 -0.91983,6.11533 -2.35031,7.69871 -1.25782,1.39225 -1.55575,1.56463 -1.97669,1.14369 z"
       id="path4313"
       transform="scale(0.26458333)" /><path
       style="fill:#ffffff;fill-opacity:1;fill-rule:evenodd;stroke-width:0.349042"
       d="m 213.56776,261.65566 c -1.48211,-0.69428 -3.20011,-2.80048 -4.16187,-5.1023 -1.81348,-4.34027 1.89811,-16.279 6.65991,-21.42232 3.5098,-3.791 8.19381,-5.22003 8.19381,-2.49981 0,1.22018 -0.49347,1.62386 -2.83471,2.3189 -1.53183,0.45475 -2.32723,1.01585 -4.32164,3.04863 -4.55845,4.64616 -6.11445,9.79138 -4.28563,14.17134 1.03556,2.48014 2.48486,3.5033 4.96236,3.5033 1.92712,0 4.58039,-1.09998 5.22418,-2.16582 0.69601,-1.1523 -1.81983,-3.12239 -4.57093,-3.57938 -2.18274,-0.36259 -2.34685,-0.7674 -1.36568,-3.36876 0.46259,-1.22645 1.04588,-2.6776 1.2962,-3.22477 l 0.45512,-0.99487 5.44105,0.12226 c 4.48008,0.10067 5.60783,0.23157 6.38531,0.74113 1.72385,1.12982 0.89744,4.03865 -1.64505,5.79031 -1.09195,0.75231 -1.50989,1.39951 -2.28502,3.53853 -1.80924,4.99265 -3.18385,6.80649 -6.3816,8.42071 -2.70519,1.36558 -4.8709,1.59058 -6.76581,0.70292 z"
       id="path4315"
       transform="scale(0.26458333)" /><path
       style="fill:#ffffff;fill-opacity:1;fill-rule:evenodd;stroke-width:0.349042"
       d="m 237.67132,261.58724 c -3.60879,-1.3884 -6.08183,-4.52489 -6.08183,-7.71341 0,-4.07842 2.9135,-11.36658 5.84915,-14.63173 0.86908,-0.96663 2.3403,-2.1427 3.26938,-2.6135 0.92907,-0.4708 1.94572,-1.24745 2.25921,-1.7259 1.08101,-1.64983 1.98063,-1.20588 6.29102,3.10451 4.33415,4.33415 5.11385,5.6344 5.09107,8.49002 -0.0227,2.84874 -0.91624,5.26258 -3.24113,8.75599 -2.59199,3.89477 -4.25706,5.38848 -7.06289,6.33602 -2.60722,0.88047 -4.08142,0.88001 -6.37398,-0.002 z m 9.87518,-7.25597 c 2.54474,-1.30439 2.85363,-3.15842 1.10817,-6.6514 -1.25345,-2.50837 -5.04793,-6.66827 -6.07687,-6.66208 -1.38787,0.008 -4.80265,2.24732 -5.51188,3.61397 -0.99249,1.91248 -0.92361,5.28548 0.15188,7.437 1.2078,2.41621 3.13366,3.36699 6.41365,3.16637 1.56994,-0.096 2.96938,-0.41911 3.91505,-0.90386 z"
       id="path4317"
       transform="scale(0.26458333)" /><path
       style="fill:#ffffff;fill-opacity:1;fill-rule:evenodd;stroke-width:0.349042"
       d="m 261.0499,261.68833 c -0.97838,-0.34965 -2.41893,-1.14266 -3.20121,-1.76224 -1.66463,-1.31841 -3.22345,-4.21299 -3.21997,-5.97917 0.005,-2.34222 1.39754,-7.07058 2.99282,-10.15934 1.91848,-3.71453 3.86998,-6.01586 6.03678,-7.11895 0.88756,-0.45184 1.99453,-1.22975 2.45993,-1.72869 0.46541,-0.49893 1.07604,-0.90715 1.35696,-0.90715 1.18671,0 8.10738,6.79035 9.42714,9.24962 0.74566,1.38948 0.7023,4.72541 -0.0924,7.10597 -0.76391,2.28843 -4.25376,7.58551 -6.01815,9.13466 -2.79251,2.45185 -6.5828,3.2943 -9.74193,2.16529 z m 9.28328,-7.22238 c 0.6719,-0.34207 1.49652,-0.86294 1.83247,-1.15751 0.93956,-0.8238 0.78804,-3.24842 -0.34904,-5.5857 -1.09594,-2.2527 -4.67582,-6.27196 -5.84845,-6.56627 -1.04478,-0.26223 -4.00801,1.25657 -5.18828,2.65924 -1.18783,1.41166 -1.39399,2.31889 -1.18636,5.2208 0.31961,4.46698 2.58478,6.44941 7.07471,6.19165 1.3908,-0.0798 2.96955,-0.40819 3.66495,-0.76221 z"
       id="path4319"
       transform="scale(0.26458333)" /><path
       style="fill:#ffffff;fill-opacity:1;fill-rule:evenodd;stroke-width:0.349042"
       d="m 280.55458,262.06044 c -0.42539,-0.0823 -1.19221,-0.64739 -1.70404,-1.25567 -0.88793,-1.05525 -0.92093,-1.23428 -0.71957,-3.90401 0.11607,-1.53892 0.7722,-5.23261 1.45806,-8.2082 0.68586,-2.97558 1.55958,-6.97573 1.94161,-8.8892 0.68609,-3.43646 1.8165,-5.85182 3.41625,-7.29958 0.56384,-0.51027 0.69713,-0.5189 1.07024,-0.0693 0.49396,0.59519 0.007,4.14347 -1.67938,12.24759 -0.55901,2.68572 -1.11849,5.8578 -1.24329,7.04907 -0.19846,1.89438 -0.13743,2.25542 0.48675,2.8796 0.85625,0.85625 1.89684,0.88936 6.12381,0.19485 3.92699,-0.64521 5.10351,-0.65498 5.93193,-0.0492 0.62925,0.46012 0.60997,0.54957 -0.48705,2.25913 -1.39397,2.1723 -3.07843,3.69673 -4.6296,4.18974 -1.17661,0.37396 -7.4145,1.14024 -8.56771,1.05247 -0.34352,-0.0261 -0.97263,-0.1149 -1.39801,-0.19723 z"
       id="path4321"
       transform="scale(0.26458333)" /><path
       style="fill:#ffffff;fill-rule:evenodd;stroke-width:0.0617025"
       d="m 278.65591,275.49857 c -0.0494,-0.12875 -0.0501,-7.82268 -7.1e-4,-7.95137 0.0328,-0.0856 0.2361,-0.0975 1.65055,-0.0969 1.70695,7.7e-4 1.96869,0.0328 2.50777,0.30658 1.49212,0.75786 1.95545,2.69389 0.95779,4.00211 -0.63029,0.82649 -1.37554,1.11894 -2.85394,1.11993 l -0.69295,4.7e-4 -0.0166,1.34203 -0.0166,1.34203 -0.74855,0.0173 c -0.64179,0.0148 -0.75399,0.003 -0.78671,-0.0822 z m 3.46348,-4.3543 c 0.63999,-0.30982 0.81206,-1.16548 0.3458,-1.7196 -0.27947,-0.33213 -0.42302,-0.37081 -1.37627,-0.37081 h -0.8669 v 1.11065 1.11064 h 0.8135 c 0.70288,0 0.85027,-0.0178 1.08387,-0.13088 z"
       id="path4323"
       transform="scale(0.26458333)" /><path
       style="fill:#ffffff;fill-rule:evenodd;stroke-width:0.0617025"
       d="m 263.99425,271.52386 v -4.07426 l 1.6197,7.3e-4 c 1.15537,5.2e-4 1.70813,0.0244 1.9282,0.0833 0.80556,0.21551 1.46624,0.75504 1.82595,1.49112 0.20205,0.41347 0.21023,0.45784 0.21023,1.1398 0,0.67869 -0.009,0.72785 -0.20534,1.12953 -0.11924,0.24389 -0.34019,0.55432 -0.52699,0.74043 -0.63154,0.62923 -1.27522,0.84206 -2.55212,0.84388 l -0.75466,10e-4 -0.0166,1.34203 -0.0166,1.34203 -0.75586,0.0173 -0.75586,0.0173 z m 3.43994,-0.37959 c 0.64843,-0.3139 0.8164,-1.16033 0.34212,-1.72398 -0.27548,-0.32738 -0.42175,-0.36643 -1.37259,-0.36643 h -0.8669 v 1.11065 1.11064 h 0.8135 c 0.70288,0 0.85027,-0.0178 1.08387,-0.13088 z"
       id="path4325"
       transform="scale(0.26458333)" /><path
       style="fill:#ffffff;fill-rule:evenodd;stroke-width:0.0617025"
       d="m 248.50692,275.50706 c 0,-0.0499 0.95558,-1.87625 2.12351,-4.05864 l 2.12351,-3.96797 0.93121,-0.017 0.93121,-0.017 -0.0159,4.05855 -0.0159,4.05855 -0.73552,0.0175 c -0.54696,0.013 -0.74841,-0.003 -0.78577,-0.0617 -0.0276,-0.0435 -0.0507,-0.29501 -0.0512,-0.5588 l -9.5e-4,-0.47961 -1.09522,0.0168 -1.09522,0.0168 -0.27766,0.52448 -0.27766,0.52447 -0.87926,0.0171 c -0.74004,0.0144 -0.87926,0.003 -0.87926,-0.0735 z m 4.50428,-3.81027 c 0,-0.68439 -0.011,-1.23277 -0.0244,-1.21863 -0.0552,0.0581 -1.27133,2.36561 -1.27133,2.41229 0,0.0279 0.29155,0.0507 0.64788,0.0507 h 0.64787 z"
       id="path4327"
       transform="scale(0.26458333)" /><path
       style="fill:#ffffff;fill-rule:evenodd;stroke-width:0.0617025"
       d="m 180.26685,275.48804 c 0.002,-0.0603 0.95513,-1.8867 2.11893,-4.05863 l 2.11599,-3.94896 h 0.91993 0.91993 v 4.04151 4.04152 h -0.77129 -0.77128 l -0.0178,-0.5399 -0.0178,-0.5399 -1.09282,0.001 -1.09282,10e-4 -0.28346,0.53867 -0.28346,0.53868 -0.87346,0.0171 c -0.8032,0.0157 -0.87323,0.008 -0.87054,-0.0926 z m 4.50136,-3.78097 c 0,-0.67873 -0.0108,-1.23405 -0.024,-1.23405 -0.0352,0 -1.2718,2.34483 -1.2718,2.41149 0,0.0311 0.29154,0.0566 0.64787,0.0566 h 0.64788 z"
       id="path4329"
       transform="scale(0.26458333)" /><path
       style="fill:#ffffff;fill-rule:evenodd;stroke-width:0.0617025"
       d="m 197.89208,275.555 c -0.0236,-0.0236 -0.0429,-0.76038 -0.0429,-1.63724 v -1.5943 l -1.17235,-2.34406 c -0.64479,-1.28924 -1.17235,-2.38586 -1.17235,-2.43693 0,-0.0783 0.13578,-0.0929 0.86357,-0.0929 h 0.86356 l 0.67927,1.35745 c 0.37359,0.7466 0.69068,1.35746 0.70463,1.35746 0.014,0 0.32194,-0.57615 0.68441,-1.28033 0.36248,-0.70418 0.68754,-1.31504 0.72236,-1.35746 0.0766,-0.0933 1.68628,-0.11045 1.74308,-0.0185 0.0199,0.0322 -0.48517,1.09428 -1.12243,2.36012 l -1.15864,2.30153 -0.0309,1.69682 -0.0308,1.69682 -0.74377,0.0172 c -0.40907,0.009 -0.76309,-0.002 -0.78671,-0.0257 z"
       id="path4331"
       transform="scale(0.26458333)" /><path
       style="fill:#ffffff;fill-rule:evenodd;stroke-width:0.0617025"
       d="m 210.5885,275.51793 c -0.0164,-0.0428 -0.0226,-1.86877 -0.0138,-4.05767 l 0.016,-3.97981 h 2.4064 2.4064 l 0.0175,0.73552 c 0.013,0.54695 -0.003,0.7484 -0.0617,0.78576 -0.0435,0.0276 -0.78027,0.0507 -1.63717,0.0512 l -1.55799,9.4e-4 v 0.83153 0.83152 l 1.06437,0.0169 1.06437,0.0169 v 0.77128 0.77128 l -1.06437,0.0169 -1.06437,0.0169 v 0.8305 0.8305 l 1.61969,0.0165 1.6197,0.0165 v 0.77129 0.77128 l -2.39264,0.0161 c -1.88106,0.0127 -2.39899,-4.9e-4 -2.42238,-0.0617 z"
       id="path4333"
       transform="scale(0.26458333)" /><path
       style="fill:#ffffff;fill-rule:evenodd;stroke-width:0.0617025"
       d="m 167.08794,275.5172 c -0.0162,-0.0424 -0.0223,-1.86804 -0.0135,-4.05694 l 0.016,-3.97981 h 0.77128 0.77128 l 0.016,3.25378 0.016,3.25379 1.61915,0.0164 1.61914,0.0165 0.0173,0.78671 0.0173,0.78671 h -2.41018 c -1.87128,0 -2.41676,-0.0172 -2.43965,-0.0771 z"
       id="path4335"
       transform="scale(0.26458333)" /><path
       style="fill:#ffffff;fill-rule:evenodd;stroke-width:0.0617025"
       d="m 152.66233,275.55319 c -0.0226,-0.0226 -0.0411,-1.85519 -0.0411,-4.07236 v -4.03123 h 1.62215 c 1.26161,0 1.70389,0.0212 1.98991,0.0952 1.32763,0.34356 2.24913,1.73387 2.00987,3.03237 -0.16274,0.8832 -0.6804,1.58553 -1.44726,1.96355 -0.53458,0.26352 -0.95387,0.33791 -1.90711,0.33838 l -0.725,3.6e-4 v 1.35745 1.35746 h -0.73015 c -0.40158,0 -0.74865,-0.0185 -0.77128,-0.0411 z m 3.39052,-4.39608 c 0.79113,-0.35927 0.86245,-1.51495 0.12032,-1.94986 -0.24544,-0.14384 -0.31613,-0.15339 -1.13557,-0.15339 h -0.87384 v 1.11065 1.11064 l 0.81756,-10e-4 c 0.66473,-0.001 0.86503,-0.0229 1.07153,-0.11669 z"
       id="path4337"
       transform="scale(0.26458333)" /><path
       style="fill:#ffffff;fill-rule:evenodd;stroke-width:0.0617025"
       d="m 224.48407,275.55319 c -0.0226,-0.0226 -0.0411,-1.85519 -0.0411,-4.07236 v -4.03123 h 1.62215 c 1.26696,0 1.70268,0.021 1.9899,0.0958 1.01063,0.26316 1.82385,1.14123 2.01575,2.17647 0.0909,0.49022 -0.002,1.1008 -0.24361,1.60496 -0.20122,0.41953 -0.80712,1.04276 -1.17367,1.20721 -0.14386,0.0645 -0.26156,0.14114 -0.26156,0.17022 0,0.0291 0.30736,0.6671 0.68302,1.41783 0.40465,0.80865 0.66039,1.38759 0.6275,1.42049 -0.0305,0.0305 -0.42814,0.0477 -0.88355,0.0382 l -0.82804,-0.0173 -0.67873,-1.34195 -0.67873,-1.34195 -0.32393,-8e-5 -0.32394,-8e-5 v 1.35745 1.35746 h -0.73015 c -0.40158,0 -0.74866,-0.0185 -0.77128,-0.0411 z m 3.37088,-4.3614 c 0.23736,-0.0992 0.5811,-0.47312 0.63601,-0.6919 0.0779,-0.31056 -0.008,-0.80951 -0.17742,-1.03183 -0.27227,-0.35696 -0.47375,-0.4142 -1.45811,-0.4142 h -0.86993 v 1.11065 1.11064 h 0.83496 c 0.5617,0 0.90027,-0.0273 1.03449,-0.0834 z"
       id="path4339"
       transform="scale(0.26458333)" /><path
       style="fill:#ffffff;fill-opacity:1;fill-rule:evenodd;stroke-width:0.153863"
       d="m 64.069738,58.675235 c 0.391584,-0.285138 1.054933,-0.673919 1.474086,-0.863958 1.352903,-0.613384 1.943146,-2.037238 1.024547,-2.471528 -0.312403,-0.147696 -0.516094,-0.128311 -1.148136,0.109259 -1.374937,0.516819 -1.462307,0.378608 -0.910051,-1.439582 0.508545,-1.67431 0.556111,-3.087257 0.15174,-4.507142 -0.188276,-0.661118 -0.379743,-1.390578 -0.425466,-1.621025 -0.08589,-0.432808 0.205892,-1.695834 0.465969,-2.017058 0.08112,-0.100227 0.150427,-0.641147 0.153933,-1.202032 0.0052,-0.790348 -0.08692,-1.215134 -0.408337,-1.888034 -0.228098,-0.477534 -0.414719,-0.993267 -0.414719,-1.146071 0,-0.152803 -0.10635,-0.361997 -0.236337,-0.464874 -0.322308,-0.255089 -0.298329,-0.846459 0.03941,-0.971307 0.262578,-0.09707 0.262578,-0.111172 6.8e-5,-0.295542 -0.323877,-0.227461 -0.342252,-0.503984 -0.140497,-2.113865 0.185606,-1.48099 0.4518,-2.452539 1.357851,-4.955886 0.887649,-2.452506 1.051078,-2.669318 2.137367,-2.835668 0.690288,-0.105699 1.065972,-0.06586 2.110335,0.223848 1.126281,0.312427 1.597976,0.352621 4.154131,0.353981 3.657623,0.002 4.285382,-0.04407 4.285382,-0.314105 0,-0.115637 0.05314,-0.210302 0.118174,-0.210367 0.199666,-1.99e-4 1.299861,-0.992464 1.299861,-1.172348 0,-0.494036 -1.665306,-0.661439 -2.204033,-0.221555 -0.174304,0.142325 -0.316917,0.353877 -0.316917,0.470117 0,0.295561 -2.881721,0.09478 -4.170297,-0.290556 -0.522714,-0.156312 -1.236486,-0.285076 -1.58616,-0.286144 -1.085992,-0.0034 -2.736414,-0.627651 -3.903309,-1.476588 C 66.158769,26.470958 65.81883,26.307507 65.5381,26.3747 c -0.202113,0.04837 -0.414839,0.01485 -0.472734,-0.07447 -0.05792,-0.08934 -0.274155,-0.162429 -0.480567,-0.162429 -0.20642,0 -0.414565,-0.06057 -0.462549,-0.134616 -0.123096,-0.189943 0.3396,-0.99229 0.572235,-0.99229 0.294148,0 0.989205,-1.041672 0.729195,-1.092829 -0.152815,-0.03007 -0.194214,-0.28414 -0.154708,-0.949492 0.06236,-1.051088 -0.135141,-1.359654 -1.156856,-1.807075 -1.258982,-0.55132 -2.559022,-0.154856 -2.826648,0.862027 -0.05706,0.216824 -0.21172,0.497176 -0.34366,0.623002 -0.142707,0.136089 -0.226383,0.448329 -0.206532,0.770682 0.01834,0.29805 0.02345,0.820003 0.01134,1.159898 l -0.022,0.617988 -1.378648,0.548703 c -0.75825,0.301786 -1.555894,0.548813 -1.772543,0.548952 -0.407758,2.15e-4 -0.675479,0.140216 -2.772063,1.449185 -2.48258,1.54996 -3.128031,1.908752 -5.163187,2.870065 -1.138378,0.537719 -2.275945,1.141698 -2.527919,1.342177 -0.251973,0.200477 -1.031891,0.637549 -1.73315,0.971267 -0.701266,0.333721 -1.416829,0.726473 -1.590145,0.872783 -0.173314,0.146311 -0.59872,0.35051 -0.945357,0.453777 -0.768053,0.228814 -1.130018,0.516246 -1.408523,1.118485 -0.381782,0.82559 -0.419598,1.032347 -0.211795,1.158085 0.297809,0.1802 0.438622,0.153606 0.438622,-0.08285 0,-0.153536 0.237659,-0.212548 0.88573,-0.21993 0.847974,-0.0097 0.923538,-0.04412 1.772542,-0.808363 1.286383,-1.157948 2.282448,-1.705504 4.435647,-2.438363 1.051461,-0.357872 2.069567,-0.792064 2.262451,-0.964868 0.192882,-0.172803 0.807702,-0.489788 1.366262,-0.704412 0.558552,-0.214623 1.082913,-0.451911 1.16524,-0.527304 0.08231,-0.07538 0.295027,-0.139227 0.472675,-0.141854 0.177647,-0.0027 0.460631,-0.104054 0.628843,-0.225382 0.168213,-0.121328 0.60958,-0.220601 0.98081,-0.220601 0.674772,0 0.674934,1.37e-4 0.585689,0.488324 -0.04914,0.268579 -0.194803,0.809382 -0.32376,1.201783 -0.251692,0.765828 -0.171931,1.522337 0.203384,1.929162 0.190744,0.206756 0.176087,0.276528 -0.109972,0.523404 -0.181537,0.156667 -0.526997,0.563127 -0.767702,0.903248 -0.403518,0.570175 -0.505816,0.865739 -0.718267,2.075249 -0.103075,0.586842 -0.283001,0.763442 -0.981342,0.963193 -0.957906,0.273991 -1.655325,0.922822 -1.69709,1.578848 -0.02363,0.37189 -0.166686,0.673703 -0.429136,0.905653 -0.216496,0.19134 -0.484942,0.613093 -0.596555,0.937232 -0.111603,0.32414 -0.3732,0.847454 -0.581311,1.16292 -0.335018,0.507827 -0.430892,0.562574 -0.836458,0.477629 -0.317455,-0.0665 -0.858935,0.04491 -1.763869,0.362895 -0.71819,0.25236 -1.622286,0.534128 -2.009102,0.62615 -0.451681,0.107451 -0.916747,0.370849 -1.299869,0.736214 -0.574828,0.548175 -0.703963,0.913797 -0.500928,1.41836 0.122295,0.303906 1.158185,0.307962 2.031419,0.0079 0.889825,-0.305704 0.913096,-0.293681 0.807983,0.417533 -0.08283,0.560417 -0.03847,0.696847 0.362264,1.114601 0.612039,0.638022 0.969261,0.801136 1.754545,0.801136 0.525061,0 0.778144,-0.100969 1.231447,-0.491284 0.313802,-0.270206 0.713601,-0.591373 0.888442,-0.713706 0.17485,-0.122334 0.696062,-0.6801 1.158254,-1.23949 0.81752,-0.989424 1.305832,-1.383454 1.719697,-1.387659 0.257049,-0.0027 1.835363,-1.054519 2.509153,-1.672292 0.725126,-0.664841 1.40893,-0.731576 1.974051,-0.192661 0.56704,0.540748 1.219553,1.876895 1.221533,2.501334 0.0017,0.387263 0.07848,0.503873 0.381782,0.576471 0.209228,0.05008 0.419582,0.237202 0.467719,0.416064 0.04812,0.178776 0.334456,0.680994 0.636324,1.116041 0.642646,0.926161 0.864166,1.91717 0.763609,3.416119 -0.05033,0.750622 0.0043,1.24538 0.19208,1.727921 0.642449,1.653913 0.773615,3.648282 0.324705,4.937165 -0.262347,0.753212 -0.262287,0.804397 0.0017,1.082057 0.412884,0.435077 1.036124,0.358181 1.839764,-0.226989 z"
       id="path6283" /></g></svg>
