<?xml version="1.0" encoding="UTF-8" standalone="no"?>
<!-- Created with Inkscape (http://www.inkscape.org/) -->

<svg
   width="22.363007mm"
   height="22.982214mm"
   viewBox="0 0 22.363007 22.982214"
   version="1.1"
   id="svg3661"
   xml:space="preserve"
   xmlns:inkscape="http://www.inkscape.org/namespaces/inkscape"
   xmlns:sodipodi="http://sodipodi.sourceforge.net/DTD/sodipodi-0.dtd"
   xmlns="http://www.w3.org/2000/svg"
   xmlns:svg="http://www.w3.org/2000/svg"><sodipodi:namedview
     id="namedview3663"
     pagecolor="#ffffff"
     bordercolor="#000000"
     borderopacity="0.25"
     inkscape:showpageshadow="2"
     inkscape:pageopacity="0.0"
     inkscape:pagecheckerboard="0"
     inkscape:deskcolor="#d1d1d1"
     inkscape:document-units="mm"
     showgrid="false" /><defs
     id="defs3658" /><g
     inkscape:label="Capa 1"
     inkscape:groupmode="layer"
     id="layer1"
     transform="translate(-86.666254,-30.607808)"><path
       style="fill:#000000;fill-opacity:1;fill-rule:evenodd;stroke-width:0.0907546"
       d="m 100.16367,52.969281 c 0.23007,-0.168845 0.61981,-0.399063 0.86608,-0.511595 0.79488,-0.363217 1.14167,-1.206357 0.60196,-1.463523 -0.18355,-0.08746 -0.30323,-0.07598 -0.67457,0.0647 -0.80783,0.306036 -0.85916,0.224194 -0.53469,-0.852453 0.29879,-0.991449 0.32673,-1.82813 0.0892,-2.668919 -0.11062,-0.391483 -0.22311,-0.823436 -0.24998,-0.959895 -0.0505,-0.256289 0.12098,-1.004194 0.27378,-1.194408 0.0477,-0.05935 0.0884,-0.379657 0.0904,-0.711787 0.003,-0.468007 -0.051,-0.719546 -0.23991,-1.118006 -0.13402,-0.282773 -0.24366,-0.588166 -0.24366,-0.678649 0,-0.09048 -0.0625,-0.214358 -0.13886,-0.275277 -0.189369,-0.151052 -0.175279,-0.501233 0.0232,-0.575162 0.15427,-0.05748 0.15427,-0.06583 4e-5,-0.175007 -0.190289,-0.134691 -0.201089,-0.298435 -0.0825,-1.251732 0.10905,-0.876973 0.26545,-1.452279 0.79779,-2.934644 0.52152,-1.452259 0.61754,-1.580645 1.25578,-1.67915 0.40557,-0.06259 0.62629,-0.039 1.2399,0.132553 0.66173,0.185004 0.93886,0.208805 2.4407,0.209611 2.14898,0.0012 2.51781,-0.0261 2.51781,-0.185999 0,-0.06847 0.0312,-0.124531 0.0694,-0.124569 0.11732,-1.18e-4 0.76372,-0.587691 0.76372,-0.69421 0,-0.292545 -0.97843,-0.391673 -1.29495,-0.131194 -0.10241,0.08428 -0.1862,0.209549 -0.1862,0.278381 0,0.175017 -1.69312,0.05612 -2.4502,-0.172054 -0.30711,-0.09256 -0.72648,-0.168808 -0.93192,-0.169441 -0.63806,-0.002 -1.60775,-0.371665 -2.29334,-0.874366 -0.48152,-0.35307 -0.68125,-0.449858 -0.84619,-0.410069 -0.11875,0.02864 -0.24373,0.0088 -0.27775,-0.0441 -0.034,-0.0529 -0.16107,-0.09618 -0.28234,-0.09618 -0.12128,0 -0.24358,-0.03587 -0.27177,-0.07971 -0.0723,-0.112475 0.19953,-0.587588 0.33621,-0.587588 0.17282,0 0.58119,-0.616829 0.42843,-0.647122 -0.0898,-0.01781 -0.11411,-0.168254 -0.0909,-0.562245 0.0367,-0.622405 -0.0794,-0.805124 -0.6797,-1.070066 -0.73969,-0.326466 -1.50351,-0.0917 -1.66076,0.510452 -0.0335,0.128393 -0.12439,0.294405 -0.20191,0.368913 -0.0838,0.08059 -0.133,0.26548 -0.12134,0.456363 0.0108,0.176491 0.0138,0.485567 0.007,0.686837 l -0.0129,0.365944 -0.81001,0.324916 c -0.44549,0.178703 -0.91414,0.324981 -1.04143,0.325063 -0.23957,1.28e-4 -0.39687,0.08303 -1.62868,0.85814 -1.45861,0.917814 -1.83783,1.130274 -3.03356,1.699518 -0.66884,0.318412 -1.3372,0.676061 -1.48525,0.794775 -0.14804,0.118713 -0.60627,0.377527 -1.01828,0.575139 -0.412016,0.197614 -0.832436,0.430183 -0.934265,0.516821 -0.101832,0.08664 -0.35177,0.207556 -0.555433,0.268706 -0.451257,0.135493 -0.663927,0.305696 -0.827556,0.662314 -0.224309,0.488876 -0.24653,0.611308 -0.12444,0.685764 0.174974,0.106706 0.257705,0.09096 0.257705,-0.04906 0,-0.09092 0.139634,-0.125861 0.520399,-0.130232 0.498218,-0.0057 0.542612,-0.02613 1.041434,-0.478675 0.755796,-0.685683 1.341016,-1.00992 2.606096,-1.443885 0.61777,-0.211915 1.21595,-0.469023 1.32927,-0.571349 0.11333,-0.102326 0.47456,-0.29003 0.80273,-0.41712 0.32817,-0.12709 0.63625,-0.267601 0.68462,-0.312245 0.0484,-0.04464 0.17334,-0.08244 0.27772,-0.084 0.10437,-0.0016 0.27063,-0.06162 0.36946,-0.133461 0.0988,-0.07185 0.35815,-0.13063 0.57626,-0.13063 0.39646,0 0.39655,8.2e-5 0.34412,0.289163 -0.0289,0.15904 -0.11446,0.479278 -0.19022,0.71164 -0.14788,0.453487 -0.10102,0.901457 0.1195,1.142359 0.11206,0.122432 0.10345,0.163747 -0.0646,0.309936 -0.10666,0.09277 -0.30963,0.333457 -0.45105,0.534861 -0.23708,0.337631 -0.29719,0.51265 -0.42201,1.228865 -0.0606,0.347501 -0.16627,0.452075 -0.57658,0.570358 -0.5628,0.162245 -0.97256,0.546452 -0.9971,0.93492 -0.0139,0.220216 -0.0979,0.398936 -0.25213,0.536286 -0.1272,0.113302 -0.28492,0.363045 -0.3505,0.554985 -0.0656,0.19194 -0.21927,0.501822 -0.34154,0.688626 -0.19683,0.300712 -0.25316,0.33313 -0.49145,0.28283 -0.18651,-0.03938 -0.50465,0.02659 -1.03633,0.214889 -0.42196,0.149436 -0.95315,0.316286 -1.18042,0.370777 -0.26538,0.06363 -0.538616,0.2196 -0.763716,0.435952 -0.337732,0.324603 -0.413606,0.541108 -0.294313,0.839886 0.07185,0.179959 0.680473,0.182361 1.193529,0.0047 0.5228,-0.181023 0.53647,-0.173904 0.47472,0.247244 -0.0487,0.331852 -0.0226,0.41264 0.21284,0.660014 0.35959,0.377807 0.56947,0.474396 1.03086,0.474396 0.30849,0 0.45718,-0.05979 0.72351,-0.290916 0.18438,-0.160003 0.41928,-0.350183 0.522,-0.422623 0.10273,-0.07244 0.40896,-0.402724 0.68051,-0.733968 0.48033,-0.585891 0.76723,-0.819217 1.01039,-0.821707 0.15103,-0.0016 1.07834,-0.624437 1.47422,-0.990253 0.42604,-0.393688 0.82779,-0.433205 1.15982,-0.114085 0.33316,0.320206 0.71653,1.111409 0.71769,1.481173 0.001,0.229319 0.0461,0.29837 0.22432,0.341359 0.12292,0.02966 0.24652,0.14046 0.2748,0.246374 0.0283,0.105863 0.1965,0.403253 0.37386,0.660867 0.37758,0.548429 0.50773,1.135259 0.44865,2.022866 -0.0296,0.444483 0.002,0.737456 0.11286,1.023194 0.37746,0.97937 0.45452,2.160342 0.19077,2.923558 -0.15414,0.446017 -0.1541,0.476327 10e-4,0.640744 0.24259,0.257632 0.60877,0.212098 1.08094,-0.134412 z"
       id="path6283-0"
       inkscape:export-filename=".\path62ssss83-0.png"
       inkscape:export-xdpi="96"
       inkscape:export-ydpi="96" /><path
       style="fill:#000000;fill-rule:evenodd;stroke-width:0.0198219"
       d="m 90.632594,53.571561 c -0.763802,-0.08967 -1.438572,-0.637886 -1.704145,-1.384536 -0.09985,-0.280733 -0.122566,-0.420668 -0.121998,-0.751472 4.43e-4,-0.260799 0.0074,-0.328034 0.05233,-0.501493 0.09743,-0.376793 0.335833,-0.792736 0.592126,-1.033081 0.26029,-0.244088 0.581654,-0.424533 0.921883,-0.517635 0.168323,-0.04606 0.228978,-0.05235 0.504424,-0.05235 0.276564,0 0.335933,0.0062 0.508783,0.05327 0.720232,0.196055 1.279535,0.755721 1.486082,1.487054 0.138909,0.491857 0.0983,1.006417 -0.116222,1.472468 -0.31944,0.694 -0.942516,1.14949 -1.682956,1.230304 -0.199253,0.02174 -0.235323,0.02154 -0.44029,-0.0025 z m -0.12682,-0.354034 0.322326,-0.13553 -5.37e-4,-0.341336 -5.44e-4,-0.341336 -0.229278,-0.169698 c -0.126145,-0.09333 -0.320358,-0.2373 -0.431622,-0.319927 l -0.2023,-0.150228 -0.296697,0.09821 c -0.163183,0.05401 -0.304359,0.104651 -0.313733,0.112525 -0.0094,0.0079 -0.02841,0.166377 -0.0424,0.352229 l -0.02535,0.337912 0.04846,0.06553 c 0.07382,0.09982 0.231813,0.256771 0.352913,0.350584 0.09825,0.07612 0.444049,0.274405 0.481249,0.275961 0.0083,3.48e-4 0.160185,-0.06035 0.337463,-0.134896 z m 1.271579,0.0402 c 0.201545,-0.102978 0.351801,-0.219664 0.534587,-0.415167 0.139671,-0.14939 0.161366,-0.181815 0.152798,-0.228359 -0.0056,-0.02984 -0.01511,-0.144601 -0.02142,-0.255033 -0.0063,-0.110432 -0.01636,-0.243214 -0.02242,-0.295071 l -0.01093,-0.09428 -0.303379,-0.103747 c -0.21045,-0.07197 -0.313933,-0.09844 -0.33785,-0.08642 -0.01898,0.0095 -0.216114,0.152855 -0.438104,0.318503 l -0.403621,0.301179 -4.43e-4,0.342116 -4.43e-4,0.342116 0.317985,0.133502 c 0.1952,0.08195 0.333104,0.129092 0.357128,0.122078 0.02154,-0.0063 0.100778,-0.04292 0.176116,-0.08141 z m -2.133293,-1.497304 0.293206,-0.104006 0.162939,-0.517189 0.162934,-0.51719 -0.190873,-0.270895 c -0.104987,-0.148992 -0.200177,-0.270685 -0.211536,-0.270429 -0.01137,2.39e-4 -0.13954,0.03135 -0.284832,0.06911 -0.311185,0.08086 -0.31801,0.0867 -0.469728,0.402274 -0.107055,0.222668 -0.165187,0.421374 -0.193489,0.661324 -0.02142,0.181735 -0.04671,0.129637 0.222921,0.459964 0.0861,0.105492 0.169759,0.191633 0.185901,0.191424 0.01617,-2.39e-4 0.161297,-0.04718 0.322557,-0.104384 z m 3.008796,-0.130346 c 0.180925,-0.222763 0.190617,-0.239435 0.190791,-0.328288 4.44e-4,-0.221291 -0.08888,-0.546109 -0.222252,-0.808249 -0.12988,-0.255275 -0.153029,-0.272572 -0.470128,-0.35131 l -0.271848,-0.0675 -0.03578,0.04793 c -0.01967,0.02637 -0.107479,0.14979 -0.195113,0.274277 l -0.159323,0.22634 0.163645,0.519513 0.163645,0.519513 0.29353,0.100541 c 0.161441,0.05529 0.306733,0.100849 0.322875,0.101225 0.01617,4.14e-4 0.11513,-0.104923 0.219961,-0.233997 z M 91.591009,50.30961 c 0.09842,-0.13889 0.183697,-0.26525 0.189517,-0.280802 0.0056,-0.01556 -0.05414,-0.136362 -0.133283,-0.268467 l -0.143849,-0.240189 -0.176116,-0.0448 c -0.289459,-0.07362 -0.706649,-0.06277 -1.00896,0.02625 -0.06126,0.01803 -0.08672,0.04911 -0.210363,0.256583 -0.07738,0.129837 -0.140689,0.245198 -0.140689,0.256357 0,0.01724 0.153073,0.243405 0.326441,0.482332 l 0.04734,0.06526 h 0.535505 0.535504 z"
       id="path4311-3" /></g></svg>
