<?xml version="1.0" encoding="UTF-8" standalone="no"?>
<!-- Created with Inkscape (http://www.inkscape.org/) -->

<svg
   width="74.0653mm"
   height="29.921642mm"
   viewBox="0 0 74.0653 29.921642"
   version="1.1"
   id="svg3661"
   xml:space="preserve"
   xmlns:inkscape="http://www.inkscape.org/namespaces/inkscape"
   xmlns:sodipodi="http://sodipodi.sourceforge.net/DTD/sodipodi-0.dtd"
   xmlns="http://www.w3.org/2000/svg"
   xmlns:svg="http://www.w3.org/2000/svg"><sodipodi:namedview
     id="namedview3663"
     pagecolor="#ffffff"
     bordercolor="#000000"
     borderopacity="0.25"
     inkscape:showpageshadow="2"
     inkscape:pageopacity="0.0"
     inkscape:pagecheckerboard="0"
     inkscape:deskcolor="#d1d1d1"
     inkscape:document-units="mm"
     showgrid="false" /><defs
     id="defs3658" /><g
     inkscape:label="Capa 1"
     inkscape:groupmode="layer"
     id="layer1"
     transform="translate(-80.714548,-26.597015)"><rect
       style="fill:#ffffff;fill-opacity:1;fill-rule:evenodd;stroke-width:0.264583"
       id="rect9782"
       width="74.065292"
       height="29.92164"
       x="80.714546"
       y="26.597013"
       ry="6.0262885"
       inkscape:export-filename=".\rect97222282.svg"
       inkscape:export-xdpi="96"
       inkscape:export-ydpi="96" /><path
       style="fill:#000000;fill-opacity:1;fill-rule:evenodd;stroke-width:0.0907546"
       d="m 100.16367,52.969281 c 0.23007,-0.168845 0.61981,-0.399063 0.86608,-0.511595 0.79488,-0.363217 1.14167,-1.206357 0.60196,-1.463523 -0.18355,-0.08746 -0.30323,-0.07598 -0.67457,0.0647 -0.80783,0.306036 -0.85916,0.224194 -0.53469,-0.852453 0.29879,-0.991449 0.32673,-1.82813 0.0892,-2.668919 -0.11062,-0.391483 -0.22311,-0.823436 -0.24998,-0.959895 -0.0505,-0.256289 0.12098,-1.004194 0.27378,-1.194408 0.0477,-0.05935 0.0884,-0.379657 0.0904,-0.711787 0.003,-0.468007 -0.051,-0.719546 -0.23991,-1.118006 -0.13402,-0.282773 -0.24366,-0.588166 -0.24366,-0.678649 0,-0.09048 -0.0625,-0.214358 -0.13886,-0.275277 -0.189369,-0.151052 -0.175279,-0.501233 0.0232,-0.575162 0.15427,-0.05748 0.15427,-0.06583 4e-5,-0.175007 -0.190289,-0.134691 -0.201089,-0.298435 -0.0825,-1.251732 0.10905,-0.876973 0.26545,-1.452279 0.79779,-2.934644 0.52152,-1.452259 0.61754,-1.580645 1.25578,-1.67915 0.40557,-0.06259 0.62629,-0.039 1.2399,0.132553 0.66173,0.185004 0.93886,0.208805 2.4407,0.209611 2.14898,0.0012 2.51781,-0.0261 2.51781,-0.185999 0,-0.06847 0.0312,-0.124531 0.0694,-0.124569 0.11732,-1.18e-4 0.76372,-0.587691 0.76372,-0.69421 0,-0.292545 -0.97843,-0.391673 -1.29495,-0.131194 -0.10241,0.08428 -0.1862,0.209549 -0.1862,0.278381 0,0.175017 -1.69312,0.05612 -2.4502,-0.172054 -0.30711,-0.09256 -0.72648,-0.168808 -0.93192,-0.169441 -0.63806,-0.002 -1.60775,-0.371665 -2.29334,-0.874366 -0.48152,-0.35307 -0.68125,-0.449858 -0.84619,-0.410069 -0.11875,0.02864 -0.24373,0.0088 -0.27775,-0.0441 -0.034,-0.0529 -0.16107,-0.09618 -0.28234,-0.09618 -0.12128,0 -0.24358,-0.03587 -0.27177,-0.07971 -0.0723,-0.112475 0.19953,-0.587588 0.33621,-0.587588 0.17282,0 0.58119,-0.616829 0.42843,-0.647122 -0.0898,-0.01781 -0.11411,-0.168254 -0.0909,-0.562245 0.0367,-0.622405 -0.0794,-0.805124 -0.6797,-1.070066 -0.73969,-0.326466 -1.50351,-0.0917 -1.66076,0.510452 -0.0335,0.128393 -0.12439,0.294405 -0.20191,0.368913 -0.0838,0.08059 -0.133,0.26548 -0.12134,0.456363 0.0108,0.176491 0.0138,0.485567 0.007,0.686837 l -0.0129,0.365944 -0.81001,0.324916 c -0.44549,0.178703 -0.91414,0.324981 -1.04143,0.325063 -0.23957,1.28e-4 -0.39687,0.08303 -1.62868,0.85814 -1.45861,0.917814 -1.83783,1.130274 -3.03356,1.699518 -0.66884,0.318412 -1.3372,0.676061 -1.48525,0.794775 -0.14804,0.118713 -0.60627,0.377527 -1.01828,0.575139 -0.412016,0.197614 -0.832436,0.430183 -0.934265,0.516821 -0.101832,0.08664 -0.35177,0.207556 -0.555433,0.268706 -0.451257,0.135493 -0.663927,0.305696 -0.827556,0.662314 -0.224309,0.488876 -0.24653,0.611308 -0.12444,0.685764 0.174974,0.106706 0.257705,0.09096 0.257705,-0.04906 0,-0.09092 0.139634,-0.125861 0.520399,-0.130232 0.498218,-0.0057 0.542612,-0.02613 1.041434,-0.478675 0.755796,-0.685683 1.341016,-1.00992 2.606096,-1.443885 0.61777,-0.211915 1.21595,-0.469023 1.32927,-0.571349 0.11333,-0.102326 0.47456,-0.29003 0.80273,-0.41712 0.32817,-0.12709 0.63625,-0.267601 0.68462,-0.312245 0.0484,-0.04464 0.17334,-0.08244 0.27772,-0.084 0.10437,-0.0016 0.27063,-0.06162 0.36946,-0.133461 0.0988,-0.07185 0.35815,-0.13063 0.57626,-0.13063 0.39646,0 0.39655,8.2e-5 0.34412,0.289163 -0.0289,0.15904 -0.11446,0.479278 -0.19022,0.71164 -0.14788,0.453487 -0.10102,0.901457 0.1195,1.142359 0.11206,0.122432 0.10345,0.163747 -0.0646,0.309936 -0.10666,0.09277 -0.30963,0.333457 -0.45105,0.534861 -0.23708,0.337631 -0.29719,0.51265 -0.42201,1.228865 -0.0606,0.347501 -0.16627,0.452075 -0.57658,0.570358 -0.5628,0.162245 -0.97256,0.546452 -0.9971,0.93492 -0.0139,0.220216 -0.0979,0.398936 -0.25213,0.536286 -0.1272,0.113302 -0.28492,0.363045 -0.3505,0.554985 -0.0656,0.19194 -0.21927,0.501822 -0.34154,0.688626 -0.19683,0.300712 -0.25316,0.33313 -0.49145,0.28283 -0.18651,-0.03938 -0.50465,0.02659 -1.03633,0.214889 -0.42196,0.149436 -0.95315,0.316286 -1.18042,0.370777 -0.26538,0.06363 -0.538616,0.2196 -0.763716,0.435952 -0.337732,0.324603 -0.413606,0.541108 -0.294313,0.839886 0.07185,0.179959 0.680473,0.182361 1.193529,0.0047 0.5228,-0.181023 0.53647,-0.173904 0.47472,0.247244 -0.0487,0.331852 -0.0226,0.41264 0.21284,0.660014 0.35959,0.377807 0.56947,0.474396 1.03086,0.474396 0.30849,0 0.45718,-0.05979 0.72351,-0.290916 0.18438,-0.160003 0.41928,-0.350183 0.522,-0.422623 0.10273,-0.07244 0.40896,-0.402724 0.68051,-0.733968 0.48033,-0.585891 0.76723,-0.819217 1.01039,-0.821707 0.15103,-0.0016 1.07834,-0.624437 1.47422,-0.990253 0.42604,-0.393688 0.82779,-0.433205 1.15982,-0.114085 0.33316,0.320206 0.71653,1.111409 0.71769,1.481173 0.001,0.229319 0.0461,0.29837 0.22432,0.341359 0.12292,0.02966 0.24652,0.14046 0.2748,0.246374 0.0283,0.105863 0.1965,0.403253 0.37386,0.660867 0.37758,0.548429 0.50773,1.135259 0.44865,2.022866 -0.0296,0.444483 0.002,0.737456 0.11286,1.023194 0.37746,0.97937 0.45452,2.160342 0.19077,2.923558 -0.15414,0.446017 -0.1541,0.476327 10e-4,0.640744 0.24259,0.257632 0.60877,0.212098 1.08094,-0.134412 z"
       id="path6283-0" /><path
       style="fill:#000000;fill-rule:evenodd;stroke-width:0.0198219"
       d="m 90.632594,53.571561 c -0.763802,-0.08967 -1.438572,-0.637886 -1.704145,-1.384536 -0.09985,-0.280733 -0.122566,-0.420668 -0.121998,-0.751472 4.43e-4,-0.260799 0.0074,-0.328034 0.05233,-0.501493 0.09743,-0.376793 0.335833,-0.792736 0.592126,-1.033081 0.26029,-0.244088 0.581654,-0.424533 0.921883,-0.517635 0.168323,-0.04606 0.228978,-0.05235 0.504424,-0.05235 0.276564,0 0.335933,0.0062 0.508783,0.05327 0.720232,0.196055 1.279535,0.755721 1.486082,1.487054 0.138909,0.491857 0.0983,1.006417 -0.116222,1.472468 -0.31944,0.694 -0.942516,1.14949 -1.682956,1.230304 -0.199253,0.02174 -0.235323,0.02154 -0.44029,-0.0025 z m -0.12682,-0.354034 0.322326,-0.13553 -5.37e-4,-0.341336 -5.44e-4,-0.341336 -0.229278,-0.169698 c -0.126145,-0.09333 -0.320358,-0.2373 -0.431622,-0.319927 l -0.2023,-0.150228 -0.296697,0.09821 c -0.163183,0.05401 -0.304359,0.104651 -0.313733,0.112525 -0.0094,0.0079 -0.02841,0.166377 -0.0424,0.352229 l -0.02535,0.337912 0.04846,0.06553 c 0.07382,0.09982 0.231813,0.256771 0.352913,0.350584 0.09825,0.07612 0.444049,0.274405 0.481249,0.275961 0.0083,3.48e-4 0.160185,-0.06035 0.337463,-0.134896 z m 1.271579,0.0402 c 0.201545,-0.102978 0.351801,-0.219664 0.534587,-0.415167 0.139671,-0.14939 0.161366,-0.181815 0.152798,-0.228359 -0.0056,-0.02984 -0.01511,-0.144601 -0.02142,-0.255033 -0.0063,-0.110432 -0.01636,-0.243214 -0.02242,-0.295071 l -0.01093,-0.09428 -0.303379,-0.103747 c -0.21045,-0.07197 -0.313933,-0.09844 -0.33785,-0.08642 -0.01898,0.0095 -0.216114,0.152855 -0.438104,0.318503 l -0.403621,0.301179 -4.43e-4,0.342116 -4.43e-4,0.342116 0.317985,0.133502 c 0.1952,0.08195 0.333104,0.129092 0.357128,0.122078 0.02154,-0.0063 0.100778,-0.04292 0.176116,-0.08141 z m -2.133293,-1.497304 0.293206,-0.104006 0.162939,-0.517189 0.162934,-0.51719 -0.190873,-0.270895 c -0.104987,-0.148992 -0.200177,-0.270685 -0.211536,-0.270429 -0.01137,2.39e-4 -0.13954,0.03135 -0.284832,0.06911 -0.311185,0.08086 -0.31801,0.0867 -0.469728,0.402274 -0.107055,0.222668 -0.165187,0.421374 -0.193489,0.661324 -0.02142,0.181735 -0.04671,0.129637 0.222921,0.459964 0.0861,0.105492 0.169759,0.191633 0.185901,0.191424 0.01617,-2.39e-4 0.161297,-0.04718 0.322557,-0.104384 z m 3.008796,-0.130346 c 0.180925,-0.222763 0.190617,-0.239435 0.190791,-0.328288 4.44e-4,-0.221291 -0.08888,-0.546109 -0.222252,-0.808249 -0.12988,-0.255275 -0.153029,-0.272572 -0.470128,-0.35131 l -0.271848,-0.0675 -0.03578,0.04793 c -0.01967,0.02637 -0.107479,0.14979 -0.195113,0.274277 l -0.159323,0.22634 0.163645,0.519513 0.163645,0.519513 0.29353,0.100541 c 0.161441,0.05529 0.306733,0.100849 0.322875,0.101225 0.01617,4.14e-4 0.11513,-0.104923 0.219961,-0.233997 z M 91.591009,50.30961 c 0.09842,-0.13889 0.183697,-0.26525 0.189517,-0.280802 0.0056,-0.01556 -0.05414,-0.136362 -0.133283,-0.268467 l -0.143849,-0.240189 -0.176116,-0.0448 c -0.289459,-0.07362 -0.706649,-0.06277 -1.00896,0.02625 -0.06126,0.01803 -0.08672,0.04911 -0.210363,0.256583 -0.07738,0.129837 -0.140689,0.245198 -0.140689,0.256357 0,0.01724 0.153073,0.243405 0.326441,0.482332 l 0.04734,0.06526 h 0.535505 0.535504 z"
       id="path4311-3" /><path
       style="fill:#000000;fill-rule:evenodd;stroke-width:0.0923507"
       d="m 109.03013,45.88166 c -0.11577,-0.115774 -0.056,-1.461267 0.1326,-2.986008 0.10368,-0.838081 0.21138,-1.887419 0.23934,-2.331855 l 0.0508,-0.808069 h -0.28289 c -0.1556,0 -0.30742,-0.03967 -0.33739,-0.08816 -0.0744,-0.120306 0.51548,-0.92474 0.87033,-1.186979 0.41576,-0.307258 0.86303,-0.443476 2.14599,-0.653582 1.77052,-0.289951 3.06467,-0.300323 3.40188,-0.02726 0.18784,0.152103 0.19728,0.198204 0.0993,0.484841 -0.0595,0.174215 -0.20699,0.437475 -0.32766,0.58502 -0.217,0.26534 -0.22413,0.266941 -0.65349,0.146727 -0.37224,-0.104219 -0.64481,-0.0972 -1.91263,0.04925 -0.99312,0.114718 -1.53624,0.218144 -1.65428,0.315029 -0.12823,0.105238 -0.1916,0.316764 -0.23438,0.782301 l -0.0586,0.638064 0.54574,-0.05947 c 0.30016,-0.0327 0.96132,-0.180059 1.46925,-0.327453 1.52733,-0.443206 2.91455,-0.563105 3.10426,-0.268304 0.0312,0.04845 0.15388,-0.0692 0.27269,-0.261442 0.31106,-0.503296 0.73088,-0.959739 0.88273,-0.959739 0.26048,0 0.33815,0.396727 0.18117,0.925327 -0.37845,1.274405 0.0704,3.909785 0.79779,4.684048 0.1456,0.154988 0.3,0.208722 0.59976,0.208722 0.51879,0 0.7942,-0.263353 0.99394,-0.950455 0.17487,-0.601522 0.11982,-1.90565 -0.1058,-2.506551 -0.27864,-0.742122 -0.2677,-0.844145 0.14985,-1.397185 0.21275,-0.281789 0.49252,-0.560504 0.62171,-0.619366 0.20485,-0.09333 0.25699,-0.07972 0.40772,0.106421 0.0951,0.11739 0.22143,0.375634 0.28082,0.573871 0.0594,0.198236 0.13258,0.360272 0.16264,0.360082 0.0301,-1.94e-4 0.13134,-0.186847 0.22508,-0.414793 0.37451,-0.910693 1.12534,-1.148297 3.0754,-0.97323 1.49269,0.134006 1.93365,0.231285 2.35035,0.518496 0.51499,0.354965 0.59633,0.575741 0.41415,1.124228 -0.0837,0.251857 -0.25367,0.553347 -0.37782,0.669978 l -0.22572,0.212053 -0.67168,-0.192969 c -0.94075,-0.270269 -1.58287,-0.340963 -1.70678,-0.187904 -0.12598,0.155638 -0.19737,0.697753 -0.34216,2.598293 -0.107,1.40459 -0.13745,1.564153 -0.36384,1.906246 -0.13589,0.20534 -0.28906,0.373345 -0.34039,0.373345 -0.31415,0 -0.41564,-1.315225 -0.22819,-2.957192 0.0842,-0.737579 0.13963,-1.506397 0.12318,-1.708489 l -0.0299,-0.367434 -0.46175,0.0059 c -0.25397,0.0032 -0.65916,0.03695 -0.90043,0.07492 l -0.43866,0.06903 v 0.388689 c 0,0.493972 -0.30546,1.60197 -0.62581,2.269995 -0.30948,0.645346 -1.38498,1.745245 -1.98905,2.03417 -0.79925,0.382275 -1.34024,0.137438 -1.76987,-0.800989 -0.12476,-0.272516 -0.30871,-0.61046 -0.40877,-0.750988 -0.29435,-0.413367 -0.7784,-2.370098 -0.71621,-2.89519 0.0288,-0.242938 0.0359,-0.441703 0.0158,-0.441703 -0.0201,0 -0.1762,0.0824 -0.34689,0.183102 -0.17068,0.100708 -0.64058,0.22801 -1.04422,0.282898 -1.32977,0.180816 -3.60173,0.848325 -3.72533,1.094515 -0.0409,0.08139 -0.12582,0.584329 -0.1888,1.117655 -0.15806,1.338588 -0.24337,1.618015 -0.62185,2.036951 -0.3328,0.368366 -0.41163,0.413975 -0.523,0.302601 z"
       id="path4313-5" /><path
       style="fill:#000000;fill-opacity:1;fill-rule:evenodd;stroke-width:0.0923507"
       d="m 128.02681,45.771368 c -0.39215,-0.183695 -0.8467,-0.74096 -1.10117,-1.349983 -0.47981,-1.148363 0.50221,-4.307152 1.76211,-5.667989 0.92863,-1.003035 2.16794,-1.381133 2.16794,-0.661408 0,0.322839 -0.13056,0.429646 -0.75002,0.613542 -0.40529,0.120319 -0.61574,0.268777 -1.14343,0.806617 -1.20609,1.229296 -1.61778,2.590636 -1.13391,3.7495 0.274,0.656204 0.65746,0.926915 1.31296,0.926915 0.50988,0 1.2119,-0.291036 1.38223,-0.57304 0.18415,-0.304879 -0.48149,-0.826132 -1.20939,-0.947044 -0.57752,-0.09593 -0.62094,-0.203041 -0.36134,-0.891318 0.1224,-0.324498 0.27673,-0.708448 0.34296,-0.85322 l 0.12041,-0.263226 1.43962,0.03235 c 1.18535,0.02663 1.48373,0.06127 1.68944,0.19609 0.4561,0.298932 0.23745,1.06856 -0.43525,1.53202 -0.28891,0.199048 -0.39949,0.370287 -0.60458,0.936236 -0.47869,1.320972 -0.84239,1.800884 -1.68846,2.227979 -0.71575,0.36131 -1.28876,0.420841 -1.79012,0.185981 z"
       id="path4315-0" /><path
       style="fill:#000000;fill-opacity:1;fill-rule:evenodd;stroke-width:0.0923507"
       d="m 134.40421,45.753265 c -0.95483,-0.367347 -1.60916,-1.19721 -1.60916,-2.040839 0,-1.079082 0.77087,-3.007408 1.54759,-3.871312 0.22995,-0.255754 0.61921,-0.566923 0.86503,-0.691489 0.24581,-0.124565 0.5148,-0.330054 0.59774,-0.456644 0.28602,-0.436518 0.52405,-0.319056 1.6645,0.821402 1.14675,1.146743 1.35304,1.490768 1.34702,2.246317 -0.006,0.753729 -0.24243,1.392391 -0.85755,2.316689 -0.6858,1.030492 -1.12635,1.425702 -1.86873,1.676406 -0.68982,0.232957 -1.07987,0.232836 -1.68644,-5.3e-4 z m 2.6128,-1.919808 c 0.6733,-0.34512 0.75503,-0.835666 0.29321,-1.75985 -0.33165,-0.663673 -1.3356,-1.764313 -1.60784,-1.762675 -0.36721,0.0021 -1.2707,0.594603 -1.45835,0.956196 -0.2626,0.50601 -0.24438,1.39845 0.0402,1.967706 0.31956,0.639289 0.82911,0.89085 1.69694,0.837769 0.41538,-0.0254 0.78565,-0.110889 1.03586,-0.239146 z"
       id="path4317-8" /><path
       style="fill:#000000;fill-opacity:1;fill-rule:evenodd;stroke-width:0.0923507"
       d="m 140.58979,45.780012 c -0.25887,-0.09251 -0.64001,-0.302329 -0.84699,-0.466259 -0.44043,-0.348829 -0.85287,-1.114687 -0.85195,-1.581989 0.001,-0.619712 0.36977,-1.870757 0.79185,-2.687992 0.5076,-0.982803 1.02393,-1.591696 1.59723,-1.883555 0.23484,-0.11955 0.52772,-0.325372 0.65086,-0.457383 0.12314,-0.132008 0.2847,-0.240017 0.35903,-0.240017 0.31398,0 2.14508,1.796614 2.49426,2.447296 0.19729,0.367633 0.18582,1.250264 -0.0245,1.880121 -0.20212,0.60548 -1.12547,2.006999 -1.5923,2.416879 -0.73885,0.648718 -1.7417,0.871616 -2.57755,0.572899 z m 2.4562,-1.910921 c 0.17777,-0.09051 0.39595,-0.22832 0.48484,-0.306258 0.24859,-0.217964 0.2085,-0.859478 -0.0923,-1.477883 -0.28997,-0.596027 -1.23714,-1.659456 -1.5474,-1.737326 -0.27643,-0.06938 -1.06045,0.332468 -1.37273,0.703591 -0.31428,0.373502 -0.36883,0.613539 -0.31389,1.381337 0.0846,1.181888 0.68388,1.706406 1.87185,1.638207 0.36798,-0.02111 0.78569,-0.108 0.96968,-0.201668 z"
       id="path4319-0" /><path
       style="fill:#000000;fill-opacity:1;fill-rule:evenodd;stroke-width:0.0923507"
       d="m 145.7504,45.878466 c -0.11255,-0.02177 -0.31544,-0.171288 -0.45086,-0.332229 -0.23493,-0.279202 -0.24366,-0.32657 -0.19039,-1.032936 0.0307,-0.407173 0.20432,-1.384461 0.38578,-2.171753 0.18147,-0.787289 0.41264,-1.845662 0.51372,-2.351934 0.18153,-0.90923 0.48062,-1.548294 0.90388,-1.931347 0.14919,-0.135009 0.18445,-0.137293 0.28317,-0.01834 0.13069,0.157477 0.002,1.096293 -0.44434,3.240508 -0.1479,0.710597 -0.29593,1.549877 -0.32895,1.865067 -0.0525,0.501221 -0.0364,0.596746 0.12879,0.761894 0.22655,0.226549 0.50187,0.23531 1.62026,0.05155 1.03901,-0.170712 1.3503,-0.173297 1.56948,-0.01302 0.16649,0.12174 0.16139,0.145407 -0.12886,0.597729 -0.36882,0.574754 -0.8145,0.978093 -1.22492,1.108535 -0.31131,0.09894 -1.96175,0.301688 -2.26687,0.278466 -0.0909,-0.0069 -0.25734,-0.0304 -0.36989,-0.05218 z"
       id="path4321-2" /><path
       style="fill:#000000;fill-rule:evenodd;stroke-width:0.0163255"
       d="m 145.24804,49.433971 c -0.0131,-0.03406 -0.0133,-2.06975 -1.8e-4,-2.103799 0.009,-0.02265 0.0625,-0.0258 0.4367,-0.02564 0.45164,2.04e-4 0.52089,0.0087 0.66352,0.08112 0.39479,0.200517 0.51738,0.712759 0.25341,1.058892 -0.16676,0.218675 -0.36394,0.296053 -0.7551,0.296315 l -0.18334,1.24e-4 -0.004,0.355079 -0.004,0.355079 -0.19806,0.0046 c -0.1698,0.0039 -0.19949,7.94e-4 -0.20815,-0.02175 z m 0.91638,-1.152075 c 0.16933,-0.08197 0.21486,-0.308366 0.0915,-0.454977 -0.0739,-0.08788 -0.11192,-0.09811 -0.36413,-0.09811 h -0.22937 v 0.293859 0.293857 h 0.21524 c 0.18597,0 0.22496,-0.0047 0.28677,-0.03463 z"
       id="path4323-2" /><path
       style="fill:#000000;fill-rule:evenodd;stroke-width:0.0163255"
       d="m 141.36881,48.382329 v -1.077981 l 0.42855,1.93e-4 c 0.30569,1.38e-4 0.45194,0.0065 0.51017,0.02204 0.21314,0.05702 0.38794,0.199771 0.48312,0.394526 0.0535,0.109397 0.0556,0.121136 0.0556,0.301572 0,0.17957 -0.002,0.192577 -0.0543,0.298854 -0.0315,0.06453 -0.09,0.146664 -0.13944,0.195906 -0.16709,0.166484 -0.3374,0.222795 -0.67525,0.223277 l -0.19967,2.64e-4 -0.004,0.355079 -0.004,0.355079 -0.19998,0.0046 -0.19999,0.0046 z m 0.91015,-0.100433 c 0.17157,-0.08305 0.21601,-0.307004 0.0905,-0.456136 -0.0729,-0.08662 -0.11158,-0.09695 -0.36316,-0.09695 h -0.22937 v 0.293859 0.293857 h 0.21524 c 0.18597,0 0.22497,-0.0047 0.28677,-0.03463 z"
       id="path4325-4" /><path
       style="fill:#000000;fill-rule:evenodd;stroke-width:0.0163255"
       d="m 137.27112,49.436218 c 0,-0.0132 0.25284,-0.496425 0.56185,-1.073849 l 0.56185,-1.049858 0.24638,-0.0045 0.24638,-0.0045 -0.004,1.073824 -0.004,1.073825 -0.19461,0.0046 c -0.14471,0.0034 -0.19801,-7.93e-4 -0.2079,-0.01632 -0.007,-0.01151 -0.0134,-0.07806 -0.0135,-0.14785 l -2.5e-4,-0.126896 -0.28978,0.0044 -0.28977,0.0044 -0.0735,0.138768 -0.0735,0.138766 -0.23264,0.0045 c -0.1958,0.0038 -0.23264,7.93e-4 -0.23264,-0.01945 z m 1.19176,-1.008134 c 0,-0.181078 -0.003,-0.326171 -0.006,-0.322429 -0.0146,0.01537 -0.33637,0.625901 -0.33637,0.638251 0,0.0074 0.0771,0.01341 0.17142,0.01341 h 0.17141 z"
       id="path4327-5" /><path
       style="fill:#000000;fill-rule:evenodd;stroke-width:0.0163255"
       d="m 119.21594,49.431185 c 5.3e-4,-0.01595 0.25271,-0.499189 0.56063,-1.073845 l 0.55986,-1.044829 h 0.2434 0.2434 v 1.069316 1.069319 h -0.20408 -0.20406 l -0.005,-0.142849 -0.005,-0.142849 -0.28915,2.65e-4 -0.28914,2.65e-4 -0.075,0.142523 -0.075,0.142526 -0.2311,0.0045 c -0.21251,0.0042 -0.23104,0.0021 -0.23033,-0.0245 z m 1.19098,-1.000381 c 0,-0.179581 -0.003,-0.326509 -0.006,-0.326509 -0.009,0 -0.33649,0.620403 -0.33649,0.63804 0,0.0082 0.0771,0.01497 0.17141,0.01497 h 0.17142 z"
       id="path4329-1" /><path
       style="fill:#000000;fill-rule:evenodd;stroke-width:0.0163255"
       d="m 123.87928,49.448902 c -0.006,-0.0062 -0.0114,-0.201184 -0.0114,-0.433187 V 48.59389 l -0.31018,-0.620199 c -0.1706,-0.341111 -0.31019,-0.631259 -0.31019,-0.644771 0,-0.02072 0.0359,-0.02458 0.22849,-0.02458 h 0.22848 l 0.17973,0.359159 c 0.0989,0.197538 0.18274,0.359161 0.18643,0.359161 0.004,0 0.0852,-0.15244 0.18108,-0.338754 0.0959,-0.186314 0.18191,-0.347937 0.19113,-0.359161 0.0203,-0.02469 0.44616,-0.02922 0.46119,-0.0049 0.005,0.0085 -0.12837,0.289528 -0.29698,0.624449 l -0.30656,0.608946 -0.008,0.44895 -0.008,0.448951 -0.19679,0.0046 c -0.10823,0.0024 -0.2019,-5.29e-4 -0.20815,-0.0068 z"
       id="path4331-6" /><path
       style="fill:#000000;fill-rule:evenodd;stroke-width:0.0163255"
       d="m 127.23854,49.439094 c -0.004,-0.01132 -0.006,-0.494446 -0.004,-1.073592 l 0.004,-1.052991 h 0.6367 0.63669 l 0.005,0.194606 c 0.003,0.144714 -7.9e-4,0.198014 -0.0163,0.207899 -0.0115,0.0073 -0.20645,0.01341 -0.43317,0.01355 l -0.41222,2.48e-4 v 0.220009 0.220007 l 0.28162,0.0045 0.28161,0.0045 v 0.204068 0.204068 l -0.28161,0.0045 -0.28162,0.0045 v 0.219737 0.219736 l 0.42855,0.0044 0.42854,0.0044 v 0.204071 0.204068 l -0.63305,0.0043 c -0.4977,0.0034 -0.63473,-1.29e-4 -0.64092,-0.01632 z"
       id="path4333-0" /><path
       style="fill:#000000;fill-rule:evenodd;stroke-width:0.0163255"
       d="m 115.72902,49.438901 c -0.004,-0.01122 -0.006,-0.494253 -0.004,-1.073399 l 0.004,-1.052991 h 0.20407 0.20406 l 0.004,0.860896 0.004,0.860898 0.4284,0.0043 0.4284,0.0044 0.005,0.20815 0.005,0.208151 h -0.63769 c -0.49511,0 -0.63944,-0.0046 -0.64549,-0.0204 z"
       id="path4335-0" /><path
       style="fill:#000000;fill-rule:evenodd;stroke-width:0.0163255"
       d="m 111.91224,49.448423 c -0.006,-0.006 -0.0109,-0.490852 -0.0109,-1.077479 v -1.066596 h 0.4292 c 0.3338,0 0.45082,0.0056 0.52649,0.02519 0.35127,0.0909 0.59509,0.458753 0.53178,0.802314 -0.0431,0.23368 -0.18002,0.419505 -0.38292,0.519523 -0.14144,0.06972 -0.25238,0.08941 -0.50459,0.08953 l -0.19182,9.6e-5 v 0.359158 0.359162 h -0.19319 c -0.10625,0 -0.19808,-0.0049 -0.20406,-0.01087 z m 0.89708,-1.163129 c 0.20932,-0.09506 0.22819,-0.400831 0.0318,-0.515901 -0.0649,-0.03806 -0.0836,-0.04058 -0.30045,-0.04058 h -0.23121 v 0.293859 0.293857 l 0.21631,-2.65e-4 c 0.17588,-2.64e-4 0.22888,-0.0061 0.28351,-0.03087 z"
       id="path4337-9" /><path
       style="fill:#000000;fill-rule:evenodd;stroke-width:0.0163255"
       d="m 130.91508,49.448423 c -0.006,-0.006 -0.0109,-0.490852 -0.0109,-1.077479 v -1.066596 h 0.42919 c 0.33522,0 0.4505,0.0056 0.5265,0.02535 0.26739,0.06963 0.48256,0.301951 0.53333,0.575858 0.024,0.129704 -5.3e-4,0.291253 -0.0645,0.424646 -0.0532,0.111 -0.21355,0.275897 -0.31053,0.319407 -0.0381,0.01707 -0.0692,0.03734 -0.0692,0.04504 0,0.0077 0.0813,0.176503 0.18071,0.375134 0.10707,0.213955 0.17473,0.367133 0.16603,0.375838 -0.008,0.0081 -0.11328,0.01262 -0.23377,0.01011 l -0.21909,-0.0046 -0.17958,-0.355058 -0.17958,-0.355058 -0.0857,-2.1e-5 -0.0857,-2.1e-5 v 0.359159 0.359161 h -0.19319 c -0.10625,0 -0.19808,-0.0049 -0.20407,-0.01087 z m 0.89188,-1.153954 c 0.0628,-0.02625 0.15375,-0.125179 0.16828,-0.183065 0.0206,-0.08217 -0.002,-0.214183 -0.0469,-0.273005 -0.072,-0.09445 -0.12535,-0.10959 -0.3858,-0.10959 h -0.23016 v 0.293859 0.293857 h 0.22091 c 0.14862,0 0.2382,-0.0072 0.27371,-0.02207 z"
       id="path4339-7" /></g></svg>
