<?xml version="1.0" encoding="UTF-8" standalone="no"?>
<!-- Created with Inkscape (http://www.inkscape.org/) -->

<svg
   width="37.759079mm"
   height="39.574738mm"
   viewBox="0 0 37.759079 39.574738"
   version="1.1"
   id="svg1562"
   xml:space="preserve"
   xmlns="http://www.w3.org/2000/svg"
   xmlns:svg="http://www.w3.org/2000/svg"><defs
     id="defs1559" /><g
     id="layer1"
     transform="translate(-81.59807,-34.742537)"><g
       id="g1714"
       transform="matrix(0.26458333,0,0,0.26458333,27.717194,4.3154547)"><g
         data-paper-data="{&quot;fillRule&quot;:&quot;evenodd&quot;,&quot;fillRuleOriginal&quot;:&quot;evenodd&quot;,&quot;isIcon&quot;:true,&quot;iconStyle&quot;:&quot;standalone&quot;,&quot;selectedEffects&quot;:{&quot;container&quot;:&quot;&quot;,&quot;transformation&quot;:&quot;&quot;,&quot;pattern&quot;:&quot;&quot;},&quot;bounds&quot;:{&quot;x&quot;:203.6442557204568,&quot;y&quot;:115,&quot;width&quot;:142.71148855908646,&quot;height&quot;:149.5737984377484},&quot;iconType&quot;:&quot;icon&quot;,&quot;rawIconId&quot;:&quot;69548&quot;,&quot;combineTerms&quot;:&quot;reciclaje&quot;,&quot;isDetailed&quot;:false,&quot;suitableAsStandaloneIcon&quot;:true}"
         fill-rule="evenodd"
         id="element-id-95148"
         style="mix-blend-mode:normal"><g
           data-paper-data="{&quot;isPathIcon&quot;:true}"
           id="element-id-72133"><path
             d="m 252.01519,128.15498 -20.36697,35.28695 -3.45,-9.91099 c -0.604,-1.731 -2.5,-2.672 -4.23099,-2.036 -1.73,0.597 -2.645,2.493 -2.035,4.21699 l 5.84099,16.75598 c 0.478,1.326 1.737,2.221 3.13,2.221 0.146,0 0.285,-0.006 0.431,-0.013 l 18.06198,-2.381 c 1.817,-0.251 3.096,-1.922 2.864,-3.73299 -0.252,-1.83 -1.943,-3.103 -3.73299,-2.857 l -11.40698,1.509 20.63697,-35.74295 c 3.508,-6.08099 10.06499,-9.83999 17.08098,-9.83999 7.01499,0 13.57198,3.76599 17.07998,9.84599 l 16.04598,27.82196 c 0.909,1.605 2.944,2.142 4.52199,1.214 1.612,-0.915 2.155,-2.944 1.234,-4.52899 L 297.64715,128.16198 C 292.95916,120.05299 284.22017,115 274.83118,115 c -9.38199,0 -18.11498,5.02599 -22.81597,13.15498 z"
             fill="#329c32"
             id="element-id-87836" /><path
             d="m 309.11811,185.00591 c -0.504,0 -1.008,-0.119 -1.492,-0.358 -1.644,-0.828 -2.307,-2.838 -1.479,-4.45499 l 7.32099,-14.42898 c 0.597,-1.173 1.823,-1.896 3.136,-1.797 l 18.04198,0.975 c 1.823,0.113 3.223,1.664 3.136,3.488 -0.086,1.823 -1.644,3.441 -3.481,3.129 l -11.87598,-0.649 c 0.009,0.015 0.018,0.031 0.027,0.046 l 20.46197,35.50095 c 4.66199,8.07599 4.58199,19.07597 -0.205,27.36396 -4.97999,8.60699 -14.01698,14.17698 -23.04797,14.17698 h -27.74296 c -1.823,0 -3.315,-1.486 -3.315,-3.316 0,-1.83 1.492,-3.315 3.315,-3.315 h 27.74296 c 6.59099,0 13.54598,-4.36299 17.28598,-10.86799 3.6,-6.21899 3.68,-14.75298 0.219,-20.73397 l -20.46897,-35.49395 c -0.016,-0.027 -0.032,-0.055 -0.047,-0.083 l -4.54799,8.98199 c -0.61,1.173 -1.777,1.836 -2.984,1.836 z"
             fill="#329c32"
             id="element-id-12905" /><path
             d="m 270.90317,241.39283 -7.89499,-11.15898 c -1.047,-1.512 -0.689,-3.567 0.79,-4.62099 1.491,-1.055 3.56,-0.71 4.62099,0.789 l 11.57698,16.37098 c 0.803,1.147 0.803,2.665 0.013,3.81199 l -11.57698,16.57698 c -0.643,0.922 -1.677,1.412 -2.718,1.412 -0.663,0 -1.32,-0.192 -1.897,-0.597 -1.505,-1.047 -1.869,-3.116 -0.822,-4.61399 l 7.93799,-11.36498 h -40.91194 c -8.76599,0 -17.72998,-5.69599 -22.81597,-14.51498 -4.74799,-8.18899 -4.74799,-18.81097 0,-27.01296 l 14.59398,-26.70796 c 0.882,-1.605 2.904,-2.195 4.50899,-1.313 1.604,0.875 2.188,2.904 1.306,4.50899 l -14.63398,26.76696 c -3.56,6.18699 -3.56,14.36898 -0.04,20.47597 3.93899,6.78999 10.63599,11.19198 17.08098,11.19198 z"
             fill="#329c32"
             id="element-id-83764"
             style="fill:#ffffff" /></g></g></g></g></svg>
