<?xml version="1.0" encoding="UTF-8" standalone="no"?>
<!-- Created with Inkscape (http://www.inkscape.org/) -->

<svg
   width="83.978165mm"
   height="63.473389mm"
   viewBox="0 0 83.978165 63.473389"
   version="1.1"
   id="svg1562"
   xml:space="preserve"
   xmlns:inkscape="http://www.inkscape.org/namespaces/inkscape"
   xmlns:sodipodi="http://sodipodi.sourceforge.net/DTD/sodipodi-0.dtd"
   xmlns="http://www.w3.org/2000/svg"
   xmlns:svg="http://www.w3.org/2000/svg"><sodipodi:namedview
     id="namedview1564"
     pagecolor="#ffffff"
     bordercolor="#000000"
     borderopacity="0.25"
     inkscape:showpageshadow="2"
     inkscape:pageopacity="0.0"
     inkscape:pagecheckerboard="0"
     inkscape:deskcolor="#d1d1d1"
     inkscape:document-units="mm"
     showgrid="false"
     showguides="true"><sodipodi:guide
       position="29.385827,182.97577"
       orientation="1,0"
       id="guide2948"
       inkscape:locked="false" /><sodipodi:guide
       position="79.66824,167.17272"
       orientation="1,0"
       id="guide2950"
       inkscape:locked="false" /><sodipodi:guide
       position="61.51433,198.64821"
       orientation="0,-1"
       id="guide2952"
       inkscape:locked="false" /><sodipodi:guide
       position="68.69753,149.41062"
       orientation="0,-1"
       id="guide2954"
       inkscape:locked="false" /><sodipodi:guide
       position="50.80483,174.48653"
       orientation="0,-1"
       id="guide2956"
       inkscape:locked="false" /><sodipodi:guide
       position="54.461733,167.95634"
       orientation="1,0"
       id="guide2958"
       inkscape:locked="false" /></sodipodi:namedview><defs
     id="defs1559" /><rect
     style="fill:#000000;fill-rule:evenodd;stroke-width:0.264583"
     id="rect3476"
     width="83.978165"
     height="63.473385"
     x="-9.3158008e-07"
     y="-1.0287725e-05"
     ry="6.0262885"
     inkscape:export-filename="logonegro.png"
     inkscape:export-xdpi="96"
     inkscape:export-ydpi="96" /><g
     id="g1714"
     transform="matrix(0.1858865,0,0,0.17860258,-9.2603088,-10.626737)"
     inkscape:export-filename="g17124.png"
     inkscape:export-xdpi="96"
     inkscape:export-ydpi="96"><g
       data-paper-data="{&quot;isPrimaryText&quot;:true}"
       fill-rule="nonzero"
       id="element-id-13076"
       style="mix-blend-mode:normal;fill:#ffffff"
       inkscape:export-filename="ECOUBICA-LOGO.png"
       inkscape:export-xdpi="96"
       inkscape:export-ydpi="96"><path
         d="m 110.60785,299.7309 h 21.06987 v 6.52537 h -8.49084 -11.71422 c -3.61647,0 -6.44675,0.31448 -8.56946,1.02205 -2.04409,0.70757 -3.69509,1.651 -4.95299,2.83028 -0.78619,0.86481 -1.49376,1.80823 -2.20133,2.83028 -0.70757,1.10066 -1.41514,2.27995 -1.96547,3.61647 -0.55033,1.33652 -1.02205,2.51581 -1.41514,3.45923 -0.39309,1.02205 -0.78619,2.27995 -1.33652,3.93095 -0.55033,1.651 -1.02205,2.83028 -1.2579,3.45923 -1.17928,3.22338 -1.96547,6.28951 -2.20133,9.04117 -0.07862,0.94343 -0.15724,1.80823 -0.15724,2.59442 0,1.02205 0.07862,1.96547 0.23586,2.83028 -0.23586,-0.39309 -0.39309,-0.78619 -0.47171,-1.17928 -1.49376,-3.85233 -2.20133,-8.17637 -2.20133,-13.12936 0,-4.1668 0.47171,-7.86189 1.49376,-11.08527 0.94343,-3.22338 2.20133,-5.89642 3.69509,-8.01913 1.49376,-2.12271 3.22338,-3.85233 5.03161,-5.03161 1.80823,-1.17928 4.00956,-2.12271 6.60399,-2.75166 2.59442,-0.62895 5.50332,-0.94343 8.80532,-0.94343 z m -15.8024,18.23959 h 27.28076 v 0.31448 c 0,2.75166 -1.2579,4.63852 -3.77371,5.73918 -2.67304,1.17928 -7.0757,1.72962 -13.20798,1.72962 -0.0786,0 -0.47171,0 -1.2579,-0.0786 h -1.49376 c -0.23586,0.0786 -0.78619,0.0786 -1.49376,0.15724 -0.70757,0.0786 -1.2579,0.15724 -1.57238,0.23586 -0.31448,0.15724 -0.70757,0.31448 -1.2579,0.55033 -0.55033,0.23586 -1.02205,0.55033 -1.2579,0.86481 -0.23586,0.39309 -0.47171,0.78619 -0.70757,1.33652 -0.23586,0.55033 -0.39309,1.10066 -0.47171,1.80823 -0.07862,0.55033 -0.15724,1.49376 -0.31448,2.83028 -0.23586,1.33652 -0.31448,2.43719 -0.39309,3.22338 -0.07862,0.23586 -0.07862,0.55033 -0.07862,0.86481 0,0.62895 0.07862,1.33652 0.15724,2.04409 0.15724,1.17928 0.55033,2.20133 1.10066,2.98752 0.55033,0.86481 1.41514,1.651 2.67304,2.51581 1.17928,0.86481 2.75166,1.57238 4.5599,2.12271 2.51581,0.70757 5.66056,1.10066 9.43427,1.10066 h 11.55698 7.39018 v 6.52537 h -19.02578 c -4.32404,0 -7.54742,-0.23586 -9.82736,-0.78619 -3.14476,-0.70757 -5.8178,-2.04409 -8.09775,-3.93095 -1.10066,-0.94343 -1.96547,-1.72962 -2.59442,-2.35857 -0.70757,-0.62895 -1.33652,-1.49376 -2.04409,-2.59442 -0.70757,-1.02205 -1.17928,-2.12271 -1.33652,-3.22338 -0.07862,-0.86481 -0.15724,-1.651 -0.23586,-2.51581 v -0.70757 c 0,-0.62895 0,-1.2579 0.07862,-1.96547 0.15724,-0.94343 0.31448,-1.80823 0.39309,-2.51581 0.07862,-0.70757 0.31448,-1.57238 0.62895,-2.67304 0.31448,-1.10066 0.55033,-1.96547 0.78619,-2.59442 0.15724,-0.55033 0.47171,-1.49376 1.02205,-2.75166 0.47171,-1.2579 0.78619,-2.12271 1.02205,-2.59442 0.15724,-0.47171 0.55033,-1.41514 1.17928,-2.9089 0.55033,-1.41514 0.94343,-2.35857 1.10066,-2.75166 z"
         data-paper-data="{&quot;glyphName&quot;:&quot;E&quot;,&quot;glyphIndex&quot;:0,&quot;firstGlyphOfWord&quot;:true,&quot;word&quot;:1}"
         fill="#ffffff"
         id="element-id-40697"
         style="fill:#ffffff" /><path
         d="m 161.23843,299.88814 c 3.14476,0 6.21089,0.62895 9.11979,1.96547 2.9089,1.33652 5.4247,3.14476 7.70465,5.58194 -2.83028,-2.59442 -6.05366,-4.40266 -9.59151,-5.26747 -1.651,-0.39309 -3.30199,-0.62895 -4.95299,-0.62895 h -0.55033 c -3.45923,0.0786 -6.76123,0.86481 -9.9846,2.51581 -3.22338,1.651 -5.73918,3.85233 -7.70465,6.60399 -2.20133,2.9089 -3.61647,6.21089 -4.32404,9.90598 -0.31448,1.57238 -0.47171,3.14476 -0.47171,4.63852 0,2.04409 0.23586,4.00956 0.78619,5.97504 0.70757,2.98752 2.04409,5.73918 3.93095,8.25499 1.80823,2.59442 4.08818,4.63852 6.83985,6.28951 3.38061,1.96547 6.60399,2.9089 9.74875,2.9089 3.38061,0 6.60399,-1.10066 9.74875,-3.38061 2.27995,-1.96547 4.00956,-4.71713 5.03161,-8.25499 h 7.62603 c -1.88685,5.4247 -4.71713,9.67013 -8.41222,12.8935 -3.69509,3.22338 -8.41222,4.79575 -14.1514,4.79575 -3.22338,0 -6.36813,-0.70757 -9.43427,-2.12271 -3.06614,-1.33652 -5.66056,-3.22338 -7.94051,-5.66056 -2.27995,-2.35857 -4.1668,-5.26747 -5.50332,-8.7267 -1.33652,-3.38061 -2.04409,-6.99708 -2.04409,-10.84941 0.0786,-4.95299 1.17928,-9.59151 3.38061,-13.75831 2.12271,-4.1668 5.11023,-7.54742 8.88394,-9.9846 3.77371,-2.43719 7.86189,-3.69509 12.26455,-3.69509 z m 2.12271,2.75166 h 0.31448 0.31448 c 2.43719,0 4.95299,0.55033 7.70465,1.72962 2.83028,1.17928 5.34609,2.98752 7.62603,5.34609 2.20133,2.43719 3.53785,5.03161 3.93095,7.86189 h -6.76123 c -1.80823,-5.8178 -6.28951,-8.88394 -13.36522,-9.27703 h -0.47171 c -4.32404,0 -8.09775,1.2579 -11.47836,3.85233 -3.53785,2.67304 -5.58194,6.21089 -6.05366,10.61355 -0.0786,0.86481 -0.15724,1.72962 -0.15724,2.59442 0,2.9089 0.55033,5.8178 1.651,8.56946 1.41514,3.53785 3.53785,6.44675 6.36813,8.56946 2.83028,2.20133 5.89642,3.30199 9.27703,3.30199 1.49376,0 2.83028,-0.15724 4.00956,-0.47171 1.17928,-0.23586 2.27995,-0.70757 3.30199,-1.33652 1.02205,-0.62895 1.88685,-1.33652 2.67304,-2.04409 0.70757,-0.70757 1.49376,-1.49376 2.27995,-2.51581 -1.17928,2.35857 -2.83028,4.24542 -4.95299,5.66056 -2.20133,1.41514 -4.71713,2.20133 -7.54742,2.35857 h -0.78619 c -1.17928,0 -2.35857,-0.15724 -3.69509,-0.55033 -3.30199,-0.94343 -6.21089,-2.67304 -8.80532,-5.11023 -2.59442,-2.43719 -4.48128,-5.26747 -5.66056,-8.49084 -0.94343,-2.59442 -1.41514,-5.18885 -1.41514,-7.94051 0,-1.02205 0.0786,-2.04409 0.15724,-3.06614 0.47171,-3.85233 1.72962,-7.23294 3.85233,-10.29908 1.49376,-2.20133 3.38061,-4.08818 5.66056,-5.66056 2.27995,-1.49376 4.63852,-2.59442 7.23294,-3.14476 1.57238,-0.39309 3.14476,-0.55033 4.79575,-0.55033 z"
         data-paper-data="{&quot;glyphName&quot;:&quot;C&quot;,&quot;glyphIndex&quot;:1,&quot;word&quot;:1}"
         fill="#ffffff"
         id="element-id-13680"
         style="fill:#ffffff" /><path
         d="m 207.62359,301.06743 c 2.35857,-0.86481 4.79575,-1.33652 7.31156,-1.33652 1.72962,0 3.53785,0.23586 5.34609,0.70757 4.1668,0.94343 7.62603,2.9089 10.53493,5.97504 2.98752,3.14476 5.11023,6.68261 6.36813,10.69217 0.86481,2.75166 1.33652,5.50332 1.33652,8.25499 0,1.33652 -0.0786,2.59442 -0.31448,3.93095 -0.70757,4.32404 -2.35857,8.01913 -4.95299,11.08527 -2.59442,3.06614 -6.13228,5.4247 -10.61355,6.91846 -1.96547,0.70757 -3.85233,1.10066 -5.58194,1.2579 -0.39309,0.0786 -0.70757,0.0786 -1.10066,0.0786 -1.33652,0 -2.59442,-0.23586 -3.93095,-0.62895 -1.651,-0.55033 -3.14476,-1.10066 -4.40266,-1.80823 -1.49376,-0.86481 -2.98752,-1.80823 -4.40266,-2.9089 4.32404,1.88685 8.09775,2.83028 11.16389,2.83028 1.33652,0 2.59442,-0.15724 3.77371,-0.55033 5.73918,-1.80823 9.74875,-5.11023 12.10731,-9.82736 1.33652,-2.67304 2.04409,-5.50332 2.04409,-8.56946 0,-2.51581 -0.47171,-5.18885 -1.41514,-8.01913 v -0.0786 l -0.0786,-0.0786 c -1.96547,-6.28951 -5.4247,-10.61355 -10.22046,-12.97212 -3.06614,-1.49376 -6.13228,-2.20133 -9.19841,-2.20133 -2.04409,0 -4.08818,0.31448 -6.21089,0.94343 -0.86481,0.23586 -1.96547,0.78619 -3.45923,1.49376 -1.41514,0.70757 -3.22338,1.80823 -5.4247,3.45923 -2.04409,1.49376 -3.61647,3.06614 -4.79575,4.79575 1.80823,-5.66056 7.23294,-10.14184 16.11688,-13.44383 z m -2.20133,6.13227 c 1.96547,-0.62895 3.77371,-1.02205 5.50332,-1.10066 h 0.70757 c 1.49376,0 2.83028,0.23586 4.1668,0.62895 1.57238,0.47171 2.98752,1.02205 4.32404,1.72962 1.33652,0.70757 2.75166,1.72962 4.32404,2.9089 -4.24542,-1.88685 -7.94051,-2.83028 -11.08527,-2.83028 -1.33652,0 -2.67304,0.15724 -3.85233,0.55033 -5.58194,1.80823 -9.59151,5.03161 -12.10731,9.82736 -1.33652,2.59442 -1.96547,5.50332 -1.96547,8.56946 0,2.51581 0.47171,5.18885 1.33652,8.01913 l 0.0786,0.0786 v 0.0786 c 1.96547,6.21089 5.4247,10.53493 10.22046,12.97212 3.06614,1.49376 6.21089,2.27995 9.27703,2.27995 l 6.13228,-1.02205 c 0.86481,-0.23586 2.04409,-0.78619 3.53785,-1.57238 1.49376,-0.70757 3.22338,-1.88685 5.34609,-3.45923 2.12271,-1.49376 3.69509,-3.06614 4.79575,-4.71713 -1.80823,5.66056 -7.23294,10.14184 -16.11688,13.44383 -2.51581,0.86481 -5.03161,1.2579 -7.54742,1.2579 -1.651,0 -3.38061,-0.23586 -5.03161,-0.62895 -4.1668,-0.94343 -7.70465,-2.98752 -10.61355,-6.05366 -2.9089,-3.06614 -5.03161,-6.60399 -6.36813,-10.61355 -0.86481,-2.75166 -1.2579,-5.50332 -1.2579,-8.3336 0,-1.2579 0.0786,-2.51581 0.23586,-3.85233 0.55033,-4.1668 2.20133,-7.86189 4.95299,-11.08527 2.67304,-3.14476 6.21089,-5.4247 10.61355,-6.91846 0.0786,-0.0786 0.23586,-0.0786 0.39309,-0.15724 z"
         data-paper-data="{&quot;glyphName&quot;:&quot;O&quot;,&quot;glyphIndex&quot;:2,&quot;word&quot;:1}"
         fill="#ffffff"
         id="element-id-82250"
         style="fill:#ffffff" /><path
         d="m 243.55244,299.80952 h 5.73918 v 27.51662 c 0.0786,2.20133 0.15724,4.08818 0.31448,5.66056 0.15724,1.57238 0.47171,3.14476 0.94343,4.71713 0.39309,1.651 1.02205,3.06614 1.88685,4.24542 0.78619,1.17928 1.80823,2.35857 3.14476,3.45923 1.2579,1.17928 2.83028,2.27995 4.71713,3.30199 2.83028,1.49376 5.66056,2.20133 8.49084,2.20133 1.96547,0 3.93095,-0.31448 5.89642,-1.02205 1.57238,-0.55033 3.77371,-1.72962 6.52537,-3.53785 2.75166,-1.80823 4.87437,-3.85233 6.36813,-6.21089 -1.72962,5.66056 -6.76123,10.14184 -15.09483,13.52245 -2.43719,0.86481 -4.79575,1.2579 -7.0757,1.2579 -1.651,0 -3.22338,-0.23586 -4.79575,-0.62895 -3.85233,-1.02205 -7.15432,-2.98752 -9.90598,-6.05366 -2.75166,-3.06614 -4.79575,-6.60399 -5.97504,-10.69217 -0.86481,-2.67304 -1.2579,-5.4247 -1.2579,-8.17637 0,-0.70757 0,-1.33652 0.0786,-2.04409 z m 40.41012,0 5.73918,0.0786 v 27.51662 c 0,0.86481 -0.0786,1.49376 -0.15724,1.88685 -1.80823,5.89642 -3.38061,9.67013 -4.71713,11.16389 -2.83028,3.22338 -6.13228,5.58194 -9.90598,6.91846 -1.88685,0.70757 -3.69509,1.10066 -5.34609,1.17928 h -0.86481 c -1.33652,0 -2.59442,-0.15724 -3.85233,-0.55033 -1.49376,-0.47171 -2.83028,-1.10066 -4.08818,-1.80823 -1.2579,-0.70757 -2.67304,-1.72962 -4.1668,-2.9089 4.00956,1.88685 7.54742,2.83028 10.45632,2.83028 1.33652,0 2.51581,-0.15724 3.61647,-0.55033 5.18885,-1.80823 8.96256,-5.03161 11.32112,-9.82736 1.2579,-2.59442 1.88685,-5.4247 1.88685,-8.41222 h 0.0786 z"
         data-paper-data="{&quot;glyphName&quot;:&quot;U&quot;,&quot;glyphIndex&quot;:3,&quot;word&quot;:1}"
         fill="#ffffff"
         id="element-id-2815"
         style="fill:#329c32;fill-opacity:1" /><path
         d="m 294.73335,299.88814 v 5.97504 c 0.94343,5.26747 2.20133,9.11979 3.77371,11.55698 0.86481,1.49376 2.04409,2.67304 3.53785,3.69509 v -14.78036 h 4.24542 c 4.00956,0 6.76123,0.23586 8.41222,0.78619 1.651,0.55033 2.9089,1.49376 3.77371,2.9089 0.86481,1.33652 1.33652,2.98752 1.33652,4.79575 0,1.96547 -0.47171,3.53785 -1.41514,4.79575 -0.94343,1.33652 -2.35857,2.20133 -4.24542,2.75166 -1.41514,0.39309 -3.69509,0.62895 -6.91846,0.62895 h -0.62895 c 2.75166,0.70757 6.91846,1.10066 12.50041,1.17928 2.43719,0.0786 4.48128,-1.10066 5.97504,-3.53785 1.33652,-2.12271 1.96547,-4.32404 1.96547,-6.68261 0,-2.51581 -0.70757,-4.95299 -2.20133,-7.23294 -1.49376,-2.35857 -3.45923,-4.08818 -6.05366,-5.18885 -2.51581,-1.10066 -5.89642,-1.651 -10.14184,-1.651 z m 0,10.29908 V 355 h 21.14849 c 3.53785,0 6.44675,-0.31448 8.88394,-0.94343 2.43719,-0.62895 4.48128,-1.57238 6.13228,-2.75166 1.57238,-1.17928 2.9089,-2.9089 4.00956,-5.11023 1.10066,-2.20133 1.651,-4.63852 1.651,-7.23294 0,-3.22338 -0.94343,-5.97504 -2.75166,-8.3336 -1.17928,-1.57238 -2.67304,-2.75166 -4.63852,-3.61647 -1.96547,-0.78619 -4.00956,-1.2579 -6.13228,-1.49376 -2.20133,-0.15724 -4.48128,-0.23586 -6.91846,-0.31448 -2.43719,-0.0786 -4.71713,-0.23586 -6.99708,-0.62895 -2.27995,-0.31448 -4.32404,-0.94343 -6.28951,-1.80823 -1.96547,-0.86481 -3.61647,-2.35857 -5.03161,-4.48128 -1.49376,-2.12271 -2.51581,-4.79575 -3.06614,-8.09775 z m 7.31156,19.34025 c 0.47171,0.0786 1.02205,0.15724 1.57238,0.23586 0.55033,0.15724 1.10066,0.31448 1.49376,0.39309 0.39309,0.0786 0.94343,0.23586 1.651,0.31448 0.70757,0.0786 1.41514,0.15724 2.27995,0.23586 0.86481,0.0786 1.72962,0.0786 2.59442,0.0786 0.86481,0 1.72962,0 2.59442,-0.0786 0.70757,-0.0786 1.33652,-0.0786 1.96547,-0.0786 1.17928,0 2.27995,0.0786 3.38061,0.15724 1.80823,0.23586 3.38061,0.55033 4.71713,0.94343 1.33652,0.47171 2.51581,1.33652 3.38061,2.51581 0.86481,1.17928 1.2579,2.75166 1.2579,4.71713 0,1.80823 -0.39309,3.38061 -1.10066,4.71713 -0.70757,1.33652 -1.651,2.27995 -2.75166,2.98752 -1.17928,0.70757 -2.59442,1.2579 -4.24542,1.57238 -0.94343,0.15724 -2.59442,0.23586 -4.95299,0.23586 H 302.0449 Z"
         data-paper-data="{&quot;glyphName&quot;:&quot;B&quot;,&quot;glyphIndex&quot;:4,&quot;word&quot;:1}"
         fill="#ffffff"
         id="element-id-55365"
         style="fill:#329c32;fill-opacity:1" /><path
         d="m 341.59022,299.80952 h 9.11979 v 44.10521 l -3.53785,-32.31237 -5.58194,10.53493 z m 4.08818,19.65473 3.77371,35.37851 h -7.86189 V 327.1689 Z"
         data-paper-data="{&quot;glyphName&quot;:&quot;I&quot;,&quot;glyphIndex&quot;:5,&quot;word&quot;:1}"
         fill="#ffffff"
         id="element-id-82444"
         style="fill:#329c32;fill-opacity:1" /><path
         d="m 380.27072,299.88814 c 3.14476,0 6.21089,0.62895 9.11979,1.96547 2.9089,1.33652 5.4247,3.14476 7.70465,5.58194 -2.83028,-2.59442 -6.05366,-4.40266 -9.59151,-5.26747 -1.651,-0.39309 -3.30199,-0.62895 -4.95299,-0.62895 h -0.55033 c -3.45923,0.0786 -6.76123,0.86481 -9.9846,2.51581 -3.22338,1.651 -5.73918,3.85233 -7.70465,6.60399 -2.20133,2.9089 -3.61647,6.21089 -4.32404,9.90598 -0.31448,1.57238 -0.47171,3.14476 -0.47171,4.63852 0,2.04409 0.23586,4.00956 0.78619,5.97504 0.70757,2.98752 2.04409,5.73918 3.93095,8.25499 1.80823,2.59442 4.08818,4.63852 6.83985,6.28951 3.38061,1.96547 6.60399,2.9089 9.74875,2.9089 3.38061,0 6.60399,-1.10066 9.74875,-3.38061 2.27995,-1.96547 4.00956,-4.71713 5.03161,-8.25499 h 7.62603 c -1.88685,5.4247 -4.71713,9.67013 -8.41222,12.8935 -3.69509,3.22338 -8.41222,4.79575 -14.1514,4.79575 -3.22338,0 -6.36813,-0.70757 -9.43427,-2.12271 -3.06614,-1.33652 -5.66056,-3.22338 -7.94051,-5.66056 -2.27995,-2.35857 -4.1668,-5.26747 -5.50332,-8.7267 -1.33652,-3.38061 -2.04409,-6.99708 -2.04409,-10.84941 0.0786,-4.95299 1.17928,-9.59151 3.38061,-13.75831 2.12271,-4.1668 5.11023,-7.54742 8.88394,-9.9846 3.77371,-2.43719 7.86189,-3.69509 12.26455,-3.69509 z m 2.12271,2.75166 h 0.31448 0.31448 c 2.43719,0 4.95299,0.55033 7.70465,1.72962 2.83028,1.17928 5.34609,2.98752 7.62603,5.34609 2.20133,2.43719 3.53785,5.03161 3.93095,7.86189 h -6.76123 c -1.80823,-5.8178 -6.28951,-8.88394 -13.36522,-9.27703 h -0.47171 c -4.32404,0 -8.09775,1.2579 -11.47836,3.85233 -3.53785,2.67304 -5.58194,6.21089 -6.05366,10.61355 -0.0786,0.86481 -0.15724,1.72962 -0.15724,2.59442 0,2.9089 0.55033,5.8178 1.651,8.56946 1.41514,3.53785 3.53785,6.44675 6.36813,8.56946 2.83028,2.20133 5.89642,3.30199 9.27703,3.30199 1.49376,0 2.83028,-0.15724 4.00956,-0.47171 1.17928,-0.23586 2.27995,-0.70757 3.30199,-1.33652 1.02205,-0.62895 1.88685,-1.33652 2.67304,-2.04409 0.70757,-0.70757 1.49376,-1.49376 2.27995,-2.51581 -1.17928,2.35857 -2.83028,4.24542 -4.95299,5.66056 -2.20133,1.41514 -4.71713,2.20133 -7.54742,2.35857 h -0.78619 c -1.17928,0 -2.35857,-0.15724 -3.69509,-0.55033 -3.30199,-0.94343 -6.21089,-2.67304 -8.80532,-5.11023 -2.59442,-2.43719 -4.48128,-5.26747 -5.66056,-8.49084 -0.94343,-2.59442 -1.41514,-5.18885 -1.41514,-7.94051 0,-1.02205 0.0786,-2.04409 0.15724,-3.06614 0.47171,-3.85233 1.72962,-7.23294 3.85233,-10.29908 1.49376,-2.20133 3.38061,-4.08818 5.66056,-5.66056 2.27995,-1.49376 4.63852,-2.59442 7.23294,-3.14476 1.57238,-0.39309 3.14476,-0.55033 4.79575,-0.55033 z"
         data-paper-data="{&quot;glyphName&quot;:&quot;C&quot;,&quot;glyphIndex&quot;:6,&quot;word&quot;:1}"
         fill="#ffffff"
         id="element-id-82168"
         style="fill:#329c32;fill-opacity:1" /><path
         d="m 428.69997,295.87858 -10.3777,58.96418 11.87146,-13.12936 -0.0786,13.12936 12.73626,-21.06987 7.4688,-12.34317 3.53785,-5.89642 -4.1668,4.63852 -9.04117,10.06322 -10.45632,11.47836 0.23586,-37.57984 12.10731,22.32777 c 1.17928,-1.33652 2.12271,-2.43719 2.98752,-3.30199 z m -2.20133,3.93094 -18.23959,55.03324 h 8.25499 z m 21.54159,27.438 c -0.94343,1.57238 -1.88685,3.22338 -2.9089,4.87437 l 11.00665,22.72087 h 8.88394 z"
         data-paper-data="{&quot;glyphName&quot;:&quot;A&quot;,&quot;glyphIndex&quot;:7,&quot;lastGlyphOfWord&quot;:true,&quot;word&quot;:1}"
         fill="#ffffff"
         id="element-id-18102"
         style="fill:#329c32;fill-opacity:1" /></g><g
       data-paper-data="{&quot;fillRule&quot;:&quot;evenodd&quot;,&quot;fillRuleOriginal&quot;:&quot;evenodd&quot;,&quot;isIcon&quot;:true,&quot;iconStyle&quot;:&quot;standalone&quot;,&quot;selectedEffects&quot;:{&quot;container&quot;:&quot;&quot;,&quot;transformation&quot;:&quot;&quot;,&quot;pattern&quot;:&quot;&quot;},&quot;bounds&quot;:{&quot;x&quot;:203.6442557204568,&quot;y&quot;:115,&quot;width&quot;:142.71148855908646,&quot;height&quot;:149.5737984377484},&quot;iconType&quot;:&quot;icon&quot;,&quot;rawIconId&quot;:&quot;69548&quot;,&quot;combineTerms&quot;:&quot;reciclaje&quot;,&quot;isDetailed&quot;:false,&quot;suitableAsStandaloneIcon&quot;:true}"
       fill-rule="evenodd"
       id="element-id-95148"
       style="mix-blend-mode:normal"><g
         data-paper-data="{&quot;isPathIcon&quot;:true}"
         id="element-id-72133"><path
           d="m 252.01519,128.15498 -20.36697,35.28695 -3.45,-9.91099 c -0.604,-1.731 -2.5,-2.672 -4.23099,-2.036 -1.73,0.597 -2.645,2.493 -2.035,4.21699 l 5.84099,16.75598 c 0.478,1.326 1.737,2.221 3.13,2.221 0.146,0 0.285,-0.006 0.431,-0.013 l 18.06198,-2.381 c 1.817,-0.251 3.096,-1.922 2.864,-3.73299 -0.252,-1.83 -1.943,-3.103 -3.73299,-2.857 l -11.40698,1.509 20.63697,-35.74295 c 3.508,-6.08099 10.06499,-9.83999 17.08098,-9.83999 7.01499,0 13.57198,3.76599 17.07998,9.84599 l 16.04598,27.82196 c 0.909,1.605 2.944,2.142 4.52199,1.214 1.612,-0.915 2.155,-2.944 1.234,-4.52899 L 297.64715,128.16198 C 292.95916,120.05299 284.22017,115 274.83118,115 c -9.38199,0 -18.11498,5.02599 -22.81597,13.15498 z"
           fill="#329c32"
           id="element-id-87836" /><path
           d="m 309.11811,185.00591 c -0.504,0 -1.008,-0.119 -1.492,-0.358 -1.644,-0.828 -2.307,-2.838 -1.479,-4.45499 l 7.32099,-14.42898 c 0.597,-1.173 1.823,-1.896 3.136,-1.797 l 18.04198,0.975 c 1.823,0.113 3.223,1.664 3.136,3.488 -0.086,1.823 -1.644,3.441 -3.481,3.129 l -11.87598,-0.649 c 0.009,0.015 0.018,0.031 0.027,0.046 l 20.46197,35.50095 c 4.66199,8.07599 4.58199,19.07597 -0.205,27.36396 -4.97999,8.60699 -14.01698,14.17698 -23.04797,14.17698 h -27.74296 c -1.823,0 -3.315,-1.486 -3.315,-3.316 0,-1.83 1.492,-3.315 3.315,-3.315 h 27.74296 c 6.59099,0 13.54598,-4.36299 17.28598,-10.86799 3.6,-6.21899 3.68,-14.75298 0.219,-20.73397 l -20.46897,-35.49395 c -0.016,-0.027 -0.032,-0.055 -0.047,-0.083 l -4.54799,8.98199 c -0.61,1.173 -1.777,1.836 -2.984,1.836 z"
           fill="#329c32"
           id="element-id-12905" /><path
           d="m 270.90317,241.39283 -7.89499,-11.15898 c -1.047,-1.512 -0.689,-3.567 0.79,-4.62099 1.491,-1.055 3.56,-0.71 4.62099,0.789 l 11.57698,16.37098 c 0.803,1.147 0.803,2.665 0.013,3.81199 l -11.57698,16.57698 c -0.643,0.922 -1.677,1.412 -2.718,1.412 -0.663,0 -1.32,-0.192 -1.897,-0.597 -1.505,-1.047 -1.869,-3.116 -0.822,-4.61399 l 7.93799,-11.36498 h -40.91194 c -8.76599,0 -17.72998,-5.69599 -22.81597,-14.51498 -4.74799,-8.18899 -4.74799,-18.81097 0,-27.01296 l 14.59398,-26.70796 c 0.882,-1.605 2.904,-2.195 4.50899,-1.313 1.604,0.875 2.188,2.904 1.306,4.50899 l -14.63398,26.76696 c -3.56,6.18699 -3.56,14.36898 -0.04,20.47597 3.93899,6.78999 10.63599,11.19198 17.08098,11.19198 z"
           fill="#329c32"
           id="element-id-83764"
           style="fill:#ffffff" /></g></g></g></svg>
